<svg width="43" height="42" viewBox="0 0 43 42" fill="none" xmlns="http://www.w3.org/2000/svg">
<circle cx="21.5" cy="21" r="20.25" stroke="white" stroke-width="1.5"/>
<path d="M21.5011 12.6708C24.2142 12.6708 24.5355 12.681 25.6073 12.7298C26.2517 12.7377 26.89 12.8561 27.4944 13.0797C27.9327 13.2487 28.3307 13.5077 28.6629 13.8398C28.9951 14.172 29.254 14.5701 29.4231 15.0084C29.6467 15.6128 29.765 16.2511 29.7729 16.8955C29.8213 17.9673 29.8319 18.2886 29.8319 21.0016C29.8319 23.7147 29.8218 24.036 29.7729 25.1077C29.765 25.7522 29.6467 26.3904 29.4231 26.9948C29.254 27.4332 28.9951 27.8312 28.6629 28.1634C28.3307 28.4956 27.9327 28.7545 27.4944 28.9236C26.89 29.1472 26.2517 29.2655 25.6073 29.2734C24.536 29.3218 24.2147 29.3324 21.5011 29.3324C18.7876 29.3324 18.4663 29.3223 17.395 29.2734C16.7506 29.2655 16.1123 29.1472 15.5079 28.9236C15.0696 28.7545 14.6715 28.4956 14.3394 28.1634C14.0072 27.8312 13.7482 27.4332 13.5792 26.9948C13.3556 26.3904 13.2372 25.7522 13.2294 25.1077C13.181 24.036 13.1703 23.7147 13.1703 21.0016C13.1703 18.2886 13.1805 17.9673 13.2294 16.8955C13.2372 16.2511 13.3556 15.6128 13.5792 15.0084C13.7482 14.5701 14.0072 14.172 14.3394 13.8398C14.6715 13.5077 15.0696 13.2487 15.5079 13.0797C16.1123 12.8561 16.7506 12.7377 17.395 12.7298C18.4668 12.6815 18.7881 12.6708 21.5011 12.6708ZM21.5011 10.8398C18.7431 10.8398 18.3957 10.8515 17.3118 10.9008C16.4684 10.9176 15.634 11.0773 14.844 11.3731C14.1664 11.6284 13.5526 12.0285 13.0455 12.5455C12.528 13.0528 12.1276 13.6669 11.8721 14.345C11.5763 15.135 11.4166 15.9694 11.3998 16.8127C11.3515 17.8956 11.3398 18.2431 11.3398 21.0011C11.3398 23.7592 11.3515 24.1066 11.4008 25.1905C11.4176 26.0339 11.5773 26.8683 11.8731 27.6582C12.1283 28.3362 12.5284 28.9504 13.0455 29.4577C13.5529 29.9748 14.167 30.375 14.845 30.6302C15.635 30.926 16.4694 31.0856 17.3127 31.1024C18.3966 31.1508 18.7426 31.1634 21.5021 31.1634C24.2616 31.1634 24.6076 31.1518 25.6915 31.1024C26.5348 31.0856 27.3692 30.926 28.1592 30.6302C28.834 30.3686 29.4468 29.9691 29.9584 29.4572C30.4699 28.9453 30.869 28.3322 31.1302 27.6573C31.426 26.8673 31.5857 26.0329 31.6024 25.1895C31.6508 24.1066 31.6624 23.7592 31.6624 21.0011C31.6624 18.2431 31.6508 17.8956 31.6015 16.8118C31.5847 15.9684 31.425 15.134 31.1292 14.344C30.874 13.666 30.4739 13.0519 29.9568 12.5445C29.4494 12.0274 28.8353 11.6273 28.1573 11.3721C27.3673 11.0763 26.5329 10.9166 25.6895 10.8998C24.6066 10.8515 24.2592 10.8398 21.5011 10.8398Z" fill="white"/>
<path d="M21.5032 15.7852C20.4712 15.7852 19.4623 16.0912 18.6042 16.6646C17.7461 17.2379 17.0773 18.0529 16.6824 19.0064C16.2874 19.9598 16.1841 21.009 16.3854 22.0212C16.5868 23.0334 17.0837 23.9632 17.8135 24.6929C18.5433 25.4227 19.473 25.9197 20.4852 26.121C21.4974 26.3224 22.5466 26.219 23.5001 25.8241C24.4536 25.4291 25.2685 24.7603 25.8419 23.9022C26.4153 23.0441 26.7213 22.0353 26.7213 21.0032C26.7213 19.6193 26.1715 18.2921 25.193 17.3135C24.2144 16.3349 22.8871 15.7852 21.5032 15.7852ZM21.5032 24.3903C20.8333 24.3903 20.1785 24.1917 19.6215 23.8195C19.0644 23.4473 18.6303 22.9183 18.374 22.2994C18.1176 21.6805 18.0505 20.9995 18.1812 20.3424C18.3119 19.6854 18.6345 19.0819 19.1082 18.6082C19.5819 18.1345 20.1854 17.8119 20.8424 17.6812C21.4995 17.5505 22.1805 17.6176 22.7994 17.874C23.4183 18.1303 23.9473 18.5644 24.3195 19.1215C24.6917 19.6785 24.8903 20.3333 24.8903 21.0032C24.8903 21.9015 24.5335 22.7631 23.8983 23.3983C23.2631 24.0335 22.4015 24.3903 21.5032 24.3903Z" fill="white"/>
<path d="M26.9264 16.7971C27.5998 16.7971 28.1457 16.2512 28.1457 15.5778C28.1457 14.9043 27.5998 14.3584 26.9264 14.3584C26.253 14.3584 25.707 14.9043 25.707 15.5778C25.707 16.2512 26.253 16.7971 26.9264 16.7971Z" fill="white"/>
</svg>
