<svg width="32" height="32" viewBox="0 0 32 32" fill="none" xmlns="http://www.w3.org/2000/svg">
<path fill-rule="evenodd" clip-rule="evenodd" d="M14.1541 2.46158C7.6965 2.46158 2.46158 7.6965 2.46158 14.1541C2.46158 20.6117 7.6965 25.8466 14.1541 25.8466C20.6117 25.8466 25.8466 20.6117 25.8466 14.1541C25.8466 7.6965 20.6117 2.46158 14.1541 2.46158ZM0 14.1541C0 6.337 6.337 0 14.1541 0C21.9712 0 28.3082 6.337 28.3082 14.1541C28.3082 21.9712 21.9712 28.3082 14.1541 28.3082C6.337 28.3082 0 21.9712 0 14.1541Z" fill="#242A32"/>
<path fill-rule="evenodd" clip-rule="evenodd" d="M22.422 22.4225C22.9027 21.9418 23.682 21.9418 24.1626 22.4225L31.6398 29.8996C32.1204 30.3803 32.1204 31.1596 31.6398 31.6402C31.1591 32.1209 30.3798 32.1209 29.8992 31.6402L22.422 24.1631C21.9414 23.6824 21.9414 22.9032 22.422 22.4225Z" fill="#242A32"/>
</svg>
