<svg width="43" height="42" viewBox="0 0 43 42" fill="none" xmlns="http://www.w3.org/2000/svg">
<circle cx="21.5" cy="21" r="20.25" stroke="white" stroke-width="1.5"/>
<path d="M30.8107 16.4747C30.1822 16.754 29.5187 16.9286 28.8203 17.0334C29.5187 16.6143 30.0774 15.9509 30.3218 15.1478C29.6584 15.5319 28.9251 15.8112 28.122 15.9858C27.4934 15.3223 26.5856 14.9033 25.6078 14.9033C23.7222 14.9033 22.1858 16.4397 22.1858 18.3253C22.1858 18.6047 22.2207 18.8491 22.2906 19.0935C19.4622 18.9539 16.9131 17.592 15.2021 15.4969C14.9228 16.0207 14.7482 16.5794 14.7482 17.2079C14.7482 18.3952 15.3418 19.4427 16.2846 20.0713C15.7259 20.0363 15.2021 19.8967 14.7133 19.6522V19.6872C14.7133 21.3632 15.9005 22.76 17.4718 23.0743C17.1925 23.1441 16.8782 23.179 16.5639 23.179C16.3544 23.179 16.11 23.1441 15.9005 23.1092C16.3544 24.471 17.6115 25.4836 19.113 25.4836C17.9258 26.3915 16.4592 26.9502 14.8529 26.9502C14.5736 26.9502 14.2942 26.9502 14.0498 26.9153C15.5862 27.893 17.3671 28.4517 19.3225 28.4517C25.6428 28.4517 29.0997 23.2139 29.0997 18.6745C29.0997 18.5348 29.0997 18.3603 29.0997 18.2206C29.7631 17.7666 30.3568 17.173 30.8107 16.4747Z" fill="white"/>
</svg>
