<svg width="82" height="101" viewBox="0 0 82 101" fill="none" xmlns="http://www.w3.org/2000/svg">
<g clip-path="url(#clip0_757_133)">
<path d="M32.3706 0.0212671C26.7539 1.65499 21.5131 4.37778 16.9465 8.03466C12.3385 11.6267 8.45286 16.06 5.49523 21.0998C2.44915 26.2811 0.602752 32.0797 0.0918312 38.069C-0.354321 43.9497 0.800008 50.3477 4.70915 55.0735C8.25005 59.3743 13.9155 62.4351 19.7792 62.0171C20.494 61.9651 21.2041 61.8609 21.9037 61.7053C22.6119 61.5565 22.3074 60.5575 21.6205 60.6992C18.8768 61.2169 16.0452 61.0022 13.4108 60.0768C10.7764 59.1514 8.43214 57.5479 6.61416 55.4278C3.03546 51.0032 1.20133 45.42 1.45862 39.734C1.6379 33.9168 3.08822 28.2094 5.70769 23.0128C8.18067 17.9647 11.6496 13.4698 15.9055 9.79889C20.24 6.14464 25.219 3.33313 30.586 1.50916C31.2517 1.27535 31.9245 1.0628 32.5972 0.850238C32.6571 0.840598 32.7143 0.818454 32.765 0.785252C32.8158 0.75205 32.859 0.708533 32.8918 0.657528C32.9246 0.606524 32.9463 0.549175 32.9556 0.489214C32.9648 0.429253 32.9613 0.368026 32.9453 0.30951C32.9293 0.250994 32.9011 0.196502 32.8627 0.14958C32.8243 0.102658 32.7764 0.0643592 32.7222 0.0371703C32.668 0.00998146 32.6087 -0.00548601 32.5481 -0.00822592C32.4875 -0.0109658 32.427 -0.000917261 32.3706 0.0212671Z" fill="#0B041B"/>
<path d="M25.6643 59.5089C24.8814 59.5961 24.0927 59.6198 23.306 59.5797C20.6162 59.4068 18.0206 58.5217 15.7852 57.0149C13.5081 55.48 11.713 53.3302 10.6084 50.8153C9.41645 47.8929 8.824 44.7605 8.86627 41.6045C8.82802 38.4117 9.13191 35.2241 9.77274 32.0961C11.0168 25.9291 13.5324 20.0894 17.159 14.9498C20.5724 10.1907 24.9344 6.19084 29.97 3.20251C30.5932 2.83408 31.2164 2.44439 31.8396 2.06888C31.9335 2.0172 32.003 1.93031 32.0329 1.82734C32.0628 1.72436 32.0506 1.61373 31.9989 1.51977C31.9473 1.42581 31.8604 1.35623 31.7575 1.32634C31.6546 1.29644 31.544 1.30868 31.4501 1.36035C28.7456 2.77119 26.2225 4.50561 23.9363 6.52549C21.6083 8.48416 19.4739 10.6623 17.5627 13.0297C11.3052 20.6841 7.78103 30.2095 7.54906 40.0953C7.37523 43.4155 7.83426 46.7385 8.90168 49.8871C9.9382 52.5774 11.6371 54.9621 13.8408 56.82C16.0445 58.678 18.6815 59.9489 21.5073 60.515C22.8597 60.7587 24.2384 60.823 25.6076 60.7063C25.6076 60.3095 25.6076 59.9127 25.6076 59.5089" fill="#0B041B"/>
<path d="M37.1579 52.4875C35.6162 54.7323 33.5562 56.5721 31.1525 57.851C30.8905 57.9856 30.6214 58.106 30.3523 58.2194V58.7862C30.3523 59.0625 30.3523 59.3318 30.3169 59.6081C32.8922 58.5963 35.1614 56.9339 36.903 54.7831C37.3503 54.2274 37.7462 53.6322 38.0856 53.0047C38.1394 52.8857 38.1469 52.7509 38.1066 52.6267C38.0663 52.5025 37.9811 52.3978 37.8678 52.3331C37.7544 52.2685 37.621 52.2484 37.4936 52.277C37.3662 52.3055 37.2541 52.3806 37.1791 52.4875" fill="#0B041B"/>
<path d="M25.6431 60.1749C25.459 60.1749 25.2749 60.1749 25.0907 60.2316C23.6052 60.3801 22.1343 60.6502 20.6929 61.0393C19.2654 61.4512 17.8748 61.9821 16.5359 62.6264C15.3735 63.1303 14.309 63.8354 13.3916 64.7095C12.9622 65.1546 12.5975 65.6578 12.3081 66.2045C12.5206 66.5091 12.7189 66.828 12.903 67.1539C13.0329 66.7282 13.2263 66.3245 13.4766 65.9565C14.2164 64.9877 15.1915 64.2243 16.3093 63.7388C17.5402 63.1672 18.8141 62.6934 20.1193 62.3218C21.4788 61.8941 22.8621 61.5463 24.2622 61.2802C24.7343 61.1952 25.2064 61.1244 25.6785 61.0677C25.6785 60.763 25.6785 60.4654 25.6785 60.1678" fill="#0B041B"/>
<path d="M34.1127 60.6779C32.8466 60.4079 31.5646 60.2186 30.2744 60.1111C30.2744 60.3024 30.2744 60.5008 30.2744 60.6992C30.2782 60.7297 30.2782 60.7607 30.2744 60.7913C31.5358 60.7743 32.7969 60.843 34.049 60.9967C34.2544 60.9967 34.3535 60.7204 34.134 60.6779" fill="#0B041B"/>
<path d="M13.2852 64.9929C13.4977 64.8582 13.7172 65.1204 13.611 65.3188C13.1101 66.5054 12.9483 67.8078 13.1436 69.081C13.2711 70.7602 13.3419 72.4465 13.5543 74.1115C14.0093 77.3928 14.7196 80.6335 15.6789 83.8041C15.9409 84.704 16.2029 85.5967 16.4862 86.4894C16.8387 87.3816 17.109 88.3042 17.2935 89.2456C17.322 89.3568 17.3092 89.4746 17.2576 89.5771C17.2059 89.6796 17.1189 89.7599 17.0126 89.8032C16.9062 89.8464 16.7879 89.8496 16.6794 89.8122C16.5709 89.7749 16.4796 89.6994 16.4225 89.5999C16.0223 88.8241 15.7157 88.0036 15.5089 87.1555C15.254 86.3123 15.0061 85.4692 14.8007 84.6189C14.3404 82.9185 14.0217 81.1897 13.6818 79.4609C13.3419 77.7321 13.0515 76.0033 12.7683 74.2674C12.485 72.5315 12.1663 70.824 12.0601 69.081C11.9397 67.664 11.9468 65.8502 13.3135 64.9929" fill="#0B041B"/>
<path d="M25.643 60.2811C23.8919 60.4409 22.1531 60.7155 20.4379 61.103C20.1192 61.1739 20.2538 61.6273 20.5583 61.5848C22.2532 61.3534 23.9481 61.1715 25.643 61.0392C25.643 60.7842 25.643 60.5362 25.643 60.2811Z" fill="#0B041B"/>
<path d="M46.5271 62.3004C41.2184 60.908 35.7618 60.1586 30.2744 60.0686C30.2744 60.2812 30.2744 60.4866 30.2744 60.6992C30.2744 60.7488 30.2744 60.8055 30.2744 60.8551C33.4724 60.8677 36.6626 61.1688 39.8065 61.7549C41.5982 62.0808 44.5513 62.7326 46.2934 63.264C46.9024 63.4483 47.1645 62.4634 46.5413 62.3004" fill="#0B041B"/>
<path d="M40.4937 52.3811C39.8634 54.5634 38.0009 56.4551 36.1313 57.6525C34.3368 58.7665 32.3547 59.5444 30.2817 59.9481C30.2817 60.1394 30.2817 60.3307 30.2817 60.522C32.5563 60.3721 34.7606 59.6719 36.7049 58.4815C37.7807 57.8187 38.7382 56.9805 39.5376 56.0017C40.3042 55.0054 40.9309 53.9088 41.4001 52.7425C41.6692 52.0906 40.692 51.708 40.5078 52.3811" fill="#0B041B"/>
<path d="M40.9328 51.7718C40.1538 51.7718 39.389 51.9348 38.61 51.9631L36.45 52.034C35.1824 52.0765 33.9147 52.119 32.6542 52.1828C32.4984 52.4166 32.3426 52.6504 32.1938 52.8913C33.6102 52.8913 35.0266 52.8346 36.4429 52.785L38.6029 52.7142C39.3748 52.7142 40.1538 52.7708 40.9257 52.7567C41.5631 52.7567 41.5631 51.7435 40.9257 51.7718" fill="#0B041B"/>
<path d="M25.6856 59.0554C24.686 59.4085 23.6577 59.674 22.6121 59.849C22.5347 59.8719 22.468 59.9216 22.4239 59.9893C22.3798 60.0569 22.3612 60.138 22.3714 60.2182C22.3816 60.2983 22.42 60.3721 22.4797 60.4265C22.5394 60.4809 22.6164 60.5123 22.6971 60.515C23.7343 60.4476 24.7467 60.1679 25.6715 59.6931C25.6715 59.4805 25.6715 59.2609 25.6715 59.0413" fill="#0B041B"/>
<path d="M25.9334 63.5758C23.766 64.0607 21.6937 64.901 19.8005 66.0627C18.809 66.6563 17.9452 67.4411 17.2595 68.3716C16.5738 69.3021 16.0799 70.3597 15.8064 71.4829C15.7002 72.0214 16.5146 72.2481 16.635 71.7026C17.6123 67.4514 21.9746 65.4392 25.8413 64.3977L26.1387 64.3268C26.0679 64.0789 26.0042 63.8309 25.9546 63.5758" fill="#0B041B"/>
<path d="M46.2653 65.3401C46.205 65.2655 46.1271 65.2071 46.0387 65.17C41.8405 63.3929 37.3101 62.5376 32.7533 62.6619C31.953 62.6619 31.1528 62.754 30.3525 62.8319C30.3525 63.0374 30.3525 63.2428 30.3525 63.4483C30.3565 63.4978 30.3565 63.5476 30.3525 63.5971C33.1136 63.3081 35.9024 63.4395 38.6241 63.9868C40.9748 64.4551 43.2567 65.2192 45.4155 66.2611C45.5678 66.335 45.7431 66.346 45.9035 66.2916C46.0638 66.2373 46.1963 66.122 46.2724 65.9707C46.2724 65.7581 46.2724 65.5526 46.2724 65.3401" fill="#0B041B"/>
<path d="M60.606 52.9479L60.0465 53.0401C58.8155 54.8404 57.2358 56.3752 55.4009 57.5534C55.3803 57.5704 55.3613 57.5894 55.3442 57.61C55.3584 57.8838 55.3584 58.1581 55.3442 58.4319C55.4228 58.4911 55.5185 58.5231 55.6169 58.5231C55.7153 58.5231 55.811 58.4911 55.8895 58.4319C56.4046 58.1148 56.9033 57.7719 57.3838 57.4046C59.002 56.1364 60.383 54.5916 61.4629 52.8417C61.1584 52.8771 60.8468 52.8771 60.5777 52.9196" fill="#0B041B"/>
<path d="M63.4672 43.4891L64.4303 43.4537H64.6144C64.989 38.326 64.1495 33.1822 62.1641 28.4401C60.451 24.0669 58.0612 19.9903 55.0823 16.3598C52.1259 12.7636 48.7418 9.54199 45.005 6.76638C41.2821 3.8707 37.0935 1.63045 32.6189 0.141688C32.024 -0.0425281 31.8187 0.850208 32.3781 1.06277L33.9786 1.6721C38.2181 3.26933 42.2114 5.45658 45.8406 8.16926C49.4787 10.9369 52.6636 14.2548 55.2806 18.0036C57.9451 21.7811 60.0711 25.9113 61.5976 30.2752C63.1571 34.4956 63.7946 39.0014 63.4672 43.4891Z" fill="#0B041B"/>
<path d="M62.164 43.5458H63.0563C63.0597 43.5342 63.0597 43.5219 63.0563 43.5104C63.4093 38.1417 62.5023 32.7649 60.4078 27.8095C58.746 23.6703 56.4734 19.8037 53.6659 16.3385C50.8703 12.8574 47.5604 9.8231 43.8505 7.34026C42.0011 6.11236 40.0704 5.01162 38.0718 4.04563C37.0662 3.56383 36.0393 3.11746 35.0054 2.69943C33.9872 2.25294 32.9473 1.85803 31.8894 1.5162C31.3724 1.36033 31.1812 2.16804 31.6769 2.331C32.1727 2.49396 32.6967 2.69235 33.2208 2.81988C35.3138 3.40188 37.3263 4.24203 39.212 5.32097C41.1381 6.34851 42.9762 7.53341 44.7074 8.86358C48.1835 11.4783 51.2816 14.5612 53.9138 18.0248C56.5187 21.4742 58.5909 25.2957 60.0607 29.3612C61.7944 33.8876 62.5195 38.7382 62.1853 43.5741" fill="#0B041B"/>
<path d="M58.963 53.1889C57.9959 54.729 56.8022 56.1144 55.4221 57.2983C55.3834 57.3316 55.3521 57.3726 55.3301 57.4187C55.3301 57.5321 55.3301 57.6455 55.3301 57.7588C55.3611 57.812 55.4034 57.8578 55.4539 57.893C55.5044 57.9283 55.5619 57.9521 55.6226 57.9629C55.6832 57.9737 55.7454 57.9712 55.805 57.9555C55.8645 57.9398 55.92 57.9114 55.9674 57.8722C56.4348 57.4896 56.881 57.0786 57.3059 56.6535C58.3677 55.5544 59.2905 54.3289 60.0536 53.0046L58.9347 53.1889" fill="#0B041B"/>
<path d="M48.298 57.8296C47.3096 57.6887 46.3519 57.3821 45.4653 56.9227C44.4894 56.4429 43.6237 55.7657 42.9227 54.9339C42.2218 54.1022 41.701 53.134 41.3933 52.0906C41.3613 51.981 41.288 51.8882 41.1888 51.8318C41.0896 51.7754 40.9724 51.7598 40.862 51.7884C40.7515 51.8169 40.6565 51.8874 40.5971 51.9848C40.5376 52.0822 40.5184 52.1989 40.5434 52.3102C40.9168 53.6113 41.5996 54.8025 42.5334 55.782C43.9702 57.2804 45.8445 58.2849 47.8873 58.6515C48.0218 58.3681 48.1635 58.0989 48.3122 57.8296" fill="#0B041B"/>
<path d="M47.8161 58.7578C46.4159 58.475 45.0851 57.9188 43.8998 57.1211C42.7243 56.3134 41.0671 55.1373 41.2583 53.536C41.2677 53.4777 41.2652 53.418 41.251 53.3607C41.2368 53.3033 41.2112 53.2495 41.1756 53.2022C41.1401 53.155 41.0955 53.1155 41.0443 53.0859C40.9932 53.0564 40.9366 53.0375 40.878 53.0303C40.8193 53.0232 40.7599 53.0279 40.7031 53.0443C40.6464 53.0607 40.5935 53.0883 40.5477 53.1256C40.5019 53.1629 40.4641 53.2091 40.4365 53.2613C40.4089 53.3136 40.3922 53.3708 40.3873 53.4297C40.1961 54.9956 41.3079 56.2638 42.5118 57.1849C43.9955 58.2984 45.7042 59.0746 47.5186 59.4593C47.6178 59.2184 47.724 58.9846 47.8302 58.7507" fill="#0B041B"/>
<path d="M36.4427 58.0635C36.7659 58.2683 37.0672 58.5057 37.3421 58.772C37.6608 59.0129 37.9936 59.2396 38.3335 59.4805C38.9863 59.9033 39.6651 60.2843 40.366 60.6212C41.7826 61.3042 43.2756 61.8156 44.8134 62.1446C45.0258 62.1871 44.9904 62.5555 44.7638 62.5343C43.1361 62.3863 41.5407 61.9896 40.0332 61.3581C39.2744 61.0294 38.5407 60.6458 37.8378 60.2103C37.4979 59.9977 37.1721 59.771 36.8463 59.5018C36.4751 59.2782 36.1427 58.9959 35.862 58.6657C35.6 58.2902 36.1028 57.9572 36.4427 58.0847" fill="#0B041B"/>
<path d="M79.8757 68.6772C78.8895 66.9172 77.5744 65.3633 76.002 64.1001C76.002 64.3127 76.002 64.5323 76.002 64.7519C77.4334 65.8979 78.6636 67.2748 79.642 68.8259C79.6518 68.8432 79.6648 68.8583 79.6804 68.8704C79.696 68.8826 79.7139 68.8916 79.7329 68.8968C79.752 68.9021 79.7719 68.9036 79.7916 68.9011C79.8112 68.8987 79.8302 68.8924 79.8474 68.8826C79.8646 68.8729 79.8797 68.8598 79.8918 68.8442C79.904 68.8286 79.913 68.8107 79.9182 68.7916C79.9235 68.7726 79.9249 68.7526 79.9225 68.733C79.9201 68.7133 79.9138 68.6944 79.904 68.6772" fill="#0B041B"/>
<path d="M72.5742 61.7619C68.7613 59.61 64.4916 58.3958 60.1174 58.2193C58.5313 58.1625 56.9434 58.2478 55.3726 58.4744C55.3726 58.8286 55.3726 59.1829 55.2876 59.5301C59.625 58.8062 64.074 59.1639 68.2402 60.5716C69.7454 61.0827 71.2048 61.7203 72.6026 62.4775C72.6026 62.2296 72.6026 61.9816 72.6026 61.7336" fill="#0B041B"/>
<path d="M79.8543 68.748C79.0114 66.8995 77.6823 65.3149 76.0089 64.1638C76.0089 64.348 76.0089 64.5252 75.9735 64.7023C76.2989 65.0124 76.6085 65.3388 76.9012 65.6801C79.0419 68.1035 80.1746 71.2546 80.0667 74.487C79.8859 77.9338 78.4764 81.2016 76.0939 83.6978C75.7044 84.1087 76.3205 84.7322 76.7171 84.3213C78.1569 82.8136 79.2898 81.0401 80.0526 79.0995C80.7113 77.4458 81.0337 75.6772 81.0009 73.8974C80.9681 72.1175 80.5807 70.362 79.8614 68.7338" fill="#0B041B"/>
<path d="M72.5599 61.3653C72.5599 61.174 72.5599 60.9756 72.5599 60.763C68.41 58.8146 63.6652 58.269 59.0549 58.3328C59.0132 58.3411 58.9755 58.3636 58.9485 58.3966C58.9215 58.4295 58.9067 58.4708 58.9067 58.5134C58.9067 58.5561 58.9215 58.5974 58.9485 58.6303C58.9755 58.6632 59.0132 58.6858 59.0549 58.6941C62.7329 58.7425 66.3837 59.3322 69.8901 60.4442C70.811 60.7592 71.708 61.1405 72.5741 61.5849C72.5741 61.514 72.5741 61.4432 72.5741 61.3653" fill="#0B041B"/>
<path d="M81.4828 70.4059C80.6362 67.7334 79.047 65.3571 76.9009 63.5545C76.5963 63.2923 76.2777 63.0514 75.959 62.8105C75.959 62.9806 75.959 63.1577 75.959 63.3278C75.959 63.4978 75.959 63.6679 75.959 63.8379C78.5426 65.8702 80.3035 68.7696 80.9162 72.0001C81.504 75.4364 80.5409 78.9436 79.4999 82.1957C79.167 83.2585 78.7917 84.3213 78.4943 85.377L79.2024 84.2646C79.5707 83.6907 79.9106 83.0814 80.3426 82.5217C80.5621 81.8131 80.7746 81.1046 80.9729 80.4386C81.8864 77.1936 82.3892 73.7006 81.4261 70.4059" fill="#0B041B"/>
<path d="M14.9143 64.3622C15.5945 63.5776 16.5506 63.0853 17.5841 62.9877C17.6762 62.9877 17.6691 63.101 17.5841 63.1294C17.1004 63.3041 16.6606 63.5822 16.2952 63.9442C15.9834 64.3017 15.7214 64.6997 15.5162 65.1274C15.0195 65.9835 14.8202 66.9801 14.9497 67.9615C15.2471 70.1508 16.8759 71.8867 18.6535 73.0558C20.6791 74.296 22.8122 75.3513 25.0271 76.2087C27.2319 77.1534 29.4673 78.006 31.7335 78.7665C40.8745 81.9091 50.4085 83.7619 60.0607 84.2717C62.7447 84.4063 65.4357 84.4418 68.1268 84.3567C70.8179 84.2717 73.5869 83.9883 76.3204 83.6482C76.8445 83.5915 76.8445 84.4205 76.3204 84.4772C73.8064 84.7464 71.264 84.8598 68.7358 84.959C66.2076 85.0582 63.6653 85.0794 61.13 84.9944C56.124 84.8417 51.1353 84.3327 46.2016 83.4711C41.2028 82.5919 36.2784 81.3318 31.4715 79.7017C29.1274 78.9082 26.8117 78.0225 24.5243 77.066C22.1988 76.1908 19.9626 75.0947 17.8461 73.7927C15.7216 72.3756 13.9157 70.2004 13.8378 67.5506C13.7764 66.4054 14.1339 65.277 14.8435 64.3764" fill="#0B041B"/>
<path d="M17.0387 88.8488C18.5967 89.7699 20.1051 90.7477 21.7339 91.5483C23.3325 92.3068 24.9707 92.9785 26.6416 93.5605C30.179 94.7986 33.7764 95.858 37.4201 96.7347C44.7953 98.5336 52.3234 99.6343 59.9048 100.022C62.0293 100.131 64.1538 100.178 66.2784 100.164C68.4029 100.164 70.5274 100.008 72.652 99.8806C73.3177 99.838 73.3177 100.887 72.652 100.915C70.7328 101.007 68.8136 100.986 66.9016 101C64.9895 101.014 63.0632 101 61.1441 100.908C57.327 100.766 53.517 100.433 49.7282 99.9372C42.1316 98.9419 34.6429 97.2485 27.3569 94.8784C25.4377 94.2549 23.5539 93.5534 21.6914 92.7528C19.7765 91.9903 17.9808 90.9572 16.3589 89.6849C15.8985 89.2952 16.4863 88.5513 16.9891 88.8488" fill="#0B041B"/>
<path d="M72.404 100.221C72.9706 97.4929 73.6717 94.7934 74.2382 92.0585C74.8048 89.3236 75.2155 86.5462 75.9662 83.868C76.0061 83.769 76.0807 83.688 76.176 83.64C76.2713 83.592 76.3808 83.5804 76.484 83.6073C76.5872 83.6342 76.6772 83.6978 76.7369 83.7862C76.7967 83.8746 76.8223 83.9817 76.8089 84.0876C76.3982 86.8438 75.6475 89.5503 75.0526 92.2711C74.4578 94.9918 74.0045 97.755 73.4097 100.483C73.268 101.142 72.2695 100.873 72.404 100.221Z" fill="#0B041B"/>
<path d="M76.5823 93.4117L77.1347 90.9461C77.4888 89.366 77.9066 87.7931 78.3174 86.2202C78.7281 84.6473 79.1459 83.0814 79.6063 81.5298C80.0666 79.9781 80.6685 78.3414 81.1642 76.7402C81.1864 76.6793 81.2307 76.6292 81.2884 76.5999C81.3461 76.5706 81.4127 76.5643 81.4748 76.5823C81.5369 76.6004 81.5899 76.6413 81.623 76.6969C81.656 76.7526 81.6667 76.8187 81.6529 76.8819C81.3059 78.469 81.0439 80.0773 80.6968 81.6715C80.3498 83.2657 79.9108 84.8811 79.5 86.4824C79.0893 88.0836 78.6927 89.6211 78.2253 91.1799L77.5171 93.5109C77.2763 94.3045 77.0993 95.1405 76.8089 95.9199C76.6673 96.3096 75.9733 96.2741 76.0441 95.7994C76.1645 94.9988 76.4053 94.2053 76.5823 93.4117Z" fill="#0B041B"/>
<path d="M72.6025 99.9443C73.2926 99.3083 73.9341 98.6215 74.5216 97.8895C74.7978 97.5424 75.0457 97.181 75.3077 96.8197C75.5697 96.4583 75.9026 96.0686 76.1787 95.6719C76.2218 95.609 76.2852 95.5628 76.3582 95.5411C76.4312 95.5193 76.5095 95.5233 76.58 95.5523C76.6504 95.5813 76.7088 95.6337 76.7453 95.7005C76.7819 95.7674 76.7943 95.8449 76.7807 95.9199C76.6116 96.3832 76.4129 96.8352 76.1858 97.2731C75.9309 97.6888 75.6543 98.0909 75.3573 98.4776C74.7512 99.2706 74.0783 100.01 73.346 100.688C73.247 100.741 73.1338 100.76 73.0231 100.743C72.9123 100.726 72.8098 100.675 72.7306 100.595C72.6514 100.516 72.5997 100.414 72.583 100.303C72.5663 100.192 72.5855 100.079 72.6379 99.9797" fill="#0B041B"/>
<path d="M72.7087 64.5464C70.1478 62.7943 67.2597 61.5775 64.2175 60.9687C61.1753 60.36 58.0417 60.3719 55.0042 61.0038C54.9546 61.3085 54.8909 61.6131 54.8271 61.9249L55.422 61.7832C58.4283 61.1879 61.5262 61.2323 64.5142 61.9134C67.5022 62.5946 70.3135 63.8972 72.7653 65.7367C72.7653 65.34 72.7228 64.9361 72.6945 64.5323" fill="#0B041B"/>
<path d="M78.8417 71.9718C78.0977 70.0957 76.9824 68.3895 75.5628 66.9554C75.4566 67.3097 75.3433 67.664 75.2158 68.0111C76.5774 69.4802 77.6171 71.2178 78.2681 73.1125C79.2422 76.0194 79.0855 79.1868 77.829 81.9832C77.814 82.0271 77.8148 82.0748 77.8313 82.1182C77.8478 82.1615 77.879 82.1977 77.9194 82.2204C77.9598 82.2432 78.0069 82.251 78.0525 82.2427C78.098 82.2343 78.1393 82.2102 78.1689 82.1745C80.0952 79.135 80.1164 75.2664 78.8771 71.9718" fill="#0B041B"/>
<path d="M51.1094 46.7129C51.0669 47.1663 50.9961 47.6127 50.9182 48.0662C51.2771 48.3333 51.6049 48.6399 51.8955 48.9802C52.1355 47.8958 52.2894 46.7942 52.3558 45.6855C52.8727 36.9069 49.9267 27.8307 44.7712 20.7597C39.8684 14.0876 32.9901 9.12965 25.1121 6.58922C24.8076 6.49002 24.6943 6.95057 24.9847 7.05685C29.1998 8.58993 33.1316 10.8118 36.62 13.6319C43.0734 18.8418 47.7159 25.9589 49.8842 33.9666C51.0575 38.1091 51.4725 42.4297 51.1094 46.72" fill="#0B041B"/>
<path d="M50.1887 52.4874L49.778 51.871C48.8852 53.9695 47.3889 55.7551 45.4793 57.0007C45.3626 57.0748 45.2789 57.1909 45.2455 57.3251C45.212 57.4592 45.2315 57.6011 45.2998 57.7213C45.368 57.8416 45.4799 57.9309 45.6122 57.9708C45.7445 58.0108 45.8871 57.9983 46.0104 57.9359C47.9777 56.7892 49.5507 55.0721 50.5215 53.0117C50.4153 52.8346 50.302 52.6645 50.1887 52.4874Z" fill="#0B041B"/>
<path d="M53.2198 52.5086L54.098 51.9914C52.2638 48.3496 48.9778 45.3951 44.8916 44.5944C43.642 44.3506 42.3676 44.2578 41.0958 44.3181C41.0254 44.385 40.9366 44.4294 40.8409 44.4456C40.7422 44.4641 40.6451 44.4902 40.5505 44.5236L40.4372 44.5803L40.1822 44.7432L40.0902 44.8212C39.9515 44.9469 39.8213 45.0818 39.7007 45.225C42.0316 44.8732 44.4144 45.1748 46.5842 46.0965C49.4652 47.3976 51.8126 49.6485 53.234 52.4732" fill="#0B041B"/>
<path d="M55.2165 54.9885L55.0394 55.194C54.8411 55.4207 54.6499 55.6474 54.4587 55.9025C55.009 58.2964 54.992 60.7858 54.4092 63.172C53.8355 65.3617 52.8422 67.4191 51.4844 69.2298C51.5269 69.6408 51.5835 70.0517 51.5977 70.4627C51.711 70.4369 51.8114 70.3716 51.881 70.2785C52.2623 69.7516 52.6123 69.2027 52.9291 68.6347C55.174 64.5961 56.3708 59.5727 55.2165 55.0098" fill="#0B041B"/>
<path d="M51.3925 53.8407C50.877 52.6209 50.1586 51.4974 49.268 50.5177C47.9412 49.07 46.2517 48.0034 44.3745 47.4285C42.5295 46.8045 40.535 46.7773 38.6736 47.3506C38.6098 47.3675 38.5552 47.4091 38.522 47.4663C38.4888 47.5234 38.4797 47.5914 38.4966 47.6553C38.5135 47.7192 38.5551 47.7737 38.6122 47.8069C38.6693 47.8401 38.7372 47.8493 38.8011 47.8324C39.8297 47.5826 40.8874 47.473 41.9454 47.5065C43.0095 47.5814 44.0533 47.8353 45.0331 48.2575C46.3577 48.8583 47.5467 49.722 48.5279 50.7962C49.509 51.8704 50.2619 53.1327 50.741 54.5067C50.9394 54.2693 51.1547 54.0467 51.3854 53.8407" fill="#0B041B"/>
<path d="M52.3414 58.779L52.1572 59.2042C52.1788 59.2902 52.1788 59.3803 52.1572 59.4663C51.8739 60.6637 51.5269 61.847 51.1729 63.0089C51.2224 63.4907 51.2578 63.9796 51.2791 64.4685C51.6156 63.6065 51.8878 62.7208 52.0935 61.8186C52.3477 60.7706 52.4667 59.6943 52.4476 58.6161C52.4189 58.6642 52.3928 58.7139 52.3697 58.7649" fill="#0B041B"/>
<path d="M51.4989 53.7486C51.7237 53.5439 51.9602 53.3523 52.207 53.1747C51.7206 52.2787 51.126 51.4458 50.4366 50.6949C48.4206 48.7329 45.8247 47.4754 43.0361 47.1097C43.1282 47.1523 45.3873 47.8183 45.4793 47.8537C48.0774 49.103 50.1908 51.1751 51.4918 53.7486" fill="#0B041B"/>
<path d="M53.5738 56.944C53.3401 57.2416 53.0993 57.5321 52.8656 57.8367C53.1934 59.7942 53.0846 61.7999 52.5469 63.7104C52.2688 64.686 51.8666 65.6218 51.3501 66.4949C51.3501 66.6366 51.3501 66.7854 51.3501 66.9271C51.3501 67.1751 51.3501 67.416 51.3501 67.6356C52.2519 66.242 52.9328 64.7172 53.3684 63.1152C53.9008 61.0912 53.9541 58.9709 53.5242 56.9227" fill="#0B041B"/>
<path d="M34.8567 49.1927C36.6659 47.7919 38.9006 47.0542 41.1878 47.1026C41.2278 47.1107 41.2638 47.1324 41.2896 47.1641C41.3155 47.1957 41.3296 47.2353 41.3296 47.2762C41.3296 47.317 41.3155 47.3566 41.2896 47.3883C41.2638 47.4199 41.2278 47.4416 41.1878 47.4498C37.3565 47.7757 33.8864 50.5106 32.1727 53.8761C31.2805 55.7566 30.7738 57.797 30.6826 59.8766C30.5914 61.9563 30.9174 64.0332 31.6415 65.9847C32.3011 68.0605 33.6505 69.8481 35.4657 71.0507C35.8835 71.3057 35.5082 71.9718 35.0833 71.7167C31.3937 69.4636 30.0765 64.8653 29.9561 60.7771C29.8215 56.4409 31.3158 51.8922 34.8567 49.1927Z" fill="#0B041B"/>
<path d="M42.1508 47.0389C40.9911 46.8744 39.8106 46.9345 38.6736 47.216C37.489 47.4524 36.3411 47.8456 35.2602 48.3851C33.0727 49.4613 31.1958 51.0781 29.8072 53.0826C28.4617 55.0814 27.6566 57.3948 27.4704 59.7975C27.2843 62.2002 27.7234 64.6101 28.7449 66.7925C29.884 69.1876 31.6635 71.2206 33.8863 72.6662C34.3537 72.9638 34.7786 72.2198 34.3183 71.9151C32.4499 70.6722 30.923 68.9802 29.8774 66.9941C28.8318 65.008 28.3009 62.7911 28.3333 60.5466C28.3657 58.302 28.9604 56.1015 30.0629 54.1464C31.1655 52.1913 32.7406 50.5441 34.6441 49.3557C35.7519 48.6971 36.9427 48.1896 38.1849 47.8466C38.789 47.6763 39.4043 47.5484 40.0262 47.464C40.7344 47.3648 41.4426 47.379 42.1508 47.294C42.2853 47.294 42.342 47.0672 42.1862 47.0389" fill="#0B041B"/>
<path d="M45.0188 45.1541C44.3094 44.8923 43.583 44.6793 42.8447 44.5165C42.1425 44.3922 41.4327 44.3164 40.7201 44.2897C39.2337 44.2524 37.751 44.4558 36.3294 44.892C33.5352 45.7427 31.0272 47.3428 29.0777 49.5186C27.0931 51.7388 25.782 54.4787 25.2979 57.4176C24.8138 60.3564 25.1767 63.3724 26.3441 66.1123C27.0325 67.6843 28.0579 69.0856 29.3478 70.2169C30.6377 71.3483 32.1605 72.182 33.8083 72.659C33.9207 72.6764 34.0355 72.6515 34.1307 72.5891C34.2258 72.5268 34.2945 72.4314 34.3235 72.3214C34.3526 72.2114 34.3399 72.0945 34.2879 71.9933C34.2359 71.8921 34.1483 71.8138 34.042 71.7734C28.327 70.1508 25.5014 63.7883 26.1458 58.2264C26.4654 55.5386 27.4917 52.9838 29.1202 50.8223C30.7832 48.6392 33.0702 47.0133 35.6779 46.1602C37.146 45.6798 38.6688 45.387 40.2102 45.2888C40.9859 45.2321 41.7645 45.2321 42.5402 45.2888C43.341 45.3216 44.1373 45.4259 44.9196 45.6005C44.9701 45.608 45.0215 45.5964 45.0639 45.5681C45.1063 45.5397 45.1367 45.4966 45.149 45.4471C45.1614 45.3976 45.1549 45.3453 45.1308 45.3003C45.1068 45.2553 45.0668 45.2209 45.0188 45.2037" fill="#0B041B"/>
<path d="M75.6547 59.1333C74.0968 54.6838 70.4142 50.8365 65.6765 49.9225C65.2597 49.8398 64.839 49.7783 64.4159 49.7383C64.3969 49.766 64.3755 49.792 64.3522 49.8162L64.1893 49.9934L63.7998 50.383L63.6724 50.4964C64.9368 50.6126 66.1749 50.9283 67.3407 51.4317C69.305 52.3388 71.0354 53.684 72.3992 55.3642C73.7631 57.0444 74.7241 59.0148 75.2086 61.1242C75.7892 63.5413 75.7892 66.0616 75.2086 68.4787C74.5639 70.9014 73.4205 73.1626 71.8518 75.1176C71.4906 75.5923 72.3192 76.0741 72.6804 75.5852C73.0514 75.0513 73.3896 74.4952 73.6931 73.9202C76.1363 69.5344 77.3544 64.0009 75.6547 59.1333Z" fill="#0B041B"/>
<path d="M59.4518 52.6575C61.3019 52.0903 63.2833 52.1176 65.1172 52.7354C66.9986 53.3057 68.6915 54.3729 70.0178 55.8246C71.3587 57.3516 72.3155 59.1772 72.8082 61.1491C73.301 63.1211 73.3155 65.1823 72.8505 67.161C72.3108 69.5124 71.3511 71.747 70.0178 73.7573C69.7062 74.2108 68.9626 73.7573 69.3096 73.3393C70.5622 71.7494 71.4692 69.9153 71.9724 67.9545C72.4426 66.0412 72.5149 64.0516 72.1848 62.1092C71.5191 58.4674 69.3096 55.024 65.8112 53.6069C64.834 53.1847 63.7924 52.9308 62.7306 52.8559C61.6706 52.82 60.6106 52.9272 59.5792 53.1747C59.5205 53.18 59.4618 53.1642 59.4137 53.1301C59.3656 53.0961 59.3312 53.0459 59.3167 52.9887C59.3022 52.9316 59.3085 52.8711 59.3346 52.8182C59.3606 52.7653 59.4047 52.7234 59.4588 52.7" fill="#0B041B"/>
<path d="M66.2501 53.1535C66.1651 53.1535 63.906 52.4449 63.814 52.4449C66.6008 52.8164 69.1949 54.0731 71.2144 56.0301C72.7027 57.6958 73.7532 59.7059 74.2712 61.8791C74.7892 64.0524 74.7585 66.3204 74.1817 68.4788C73.5236 70.9436 72.2741 73.2103 70.5417 75.0823C70.1947 75.4507 69.6281 74.8839 69.9893 74.5296C71.5697 73.0345 72.7214 71.1434 73.3248 69.0527C74.18 65.9972 73.9402 62.7387 72.6469 59.8415C71.3535 56.9443 69.0881 54.5909 66.243 53.1889" fill="#0B041B"/>
<path d="M55.6276 54.4996C57.4363 53.0978 59.6713 52.3599 61.9587 52.4094C61.9987 52.4176 62.0347 52.4393 62.0605 52.4709C62.0864 52.5026 62.1005 52.5422 62.1005 52.583C62.1005 52.6239 62.0864 52.6635 62.0605 52.6951C62.0347 52.7268 61.9987 52.7485 61.9587 52.7566C58.1204 53.0825 54.6574 55.8174 52.9365 59.1829C52.0454 61.064 51.54 63.1045 51.45 65.1842C51.36 67.2639 51.6872 69.3405 52.4124 71.2916C53.0697 73.3666 54.4166 75.1542 56.2295 76.3575C56.6544 76.6126 56.272 77.2786 55.8542 77.0235C52.1646 74.7704 50.8474 70.1721 50.7199 66.0839C50.5924 61.7478 52.0867 57.1991 55.6276 54.4996Z" fill="#0B041B"/>
<path d="M62.9219 52.3456C61.7622 52.1811 60.5817 52.2413 59.4447 52.5228C58.2575 52.758 57.1071 53.1512 56.0242 53.6918C53.8386 54.768 51.964 56.3849 50.5783 58.3894C49.2374 60.3859 48.4344 62.6951 48.2471 65.0932C48.0597 67.4913 48.4944 69.8973 49.509 72.078C50.6511 74.4715 52.433 76.5019 54.6574 77.9446C55.1248 78.2493 55.5497 77.4982 55.0823 77.1936C53.2158 75.9498 51.6909 74.2576 50.6469 72.2718C49.6029 70.2861 49.0732 68.0701 49.1064 65.8267C49.1395 63.5832 49.7343 61.3839 50.8364 59.4298C51.9385 57.4758 53.5128 55.8294 55.4152 54.6413C56.5213 53.9794 57.7126 53.4716 58.9561 53.1321C59.5602 52.9618 60.1754 52.8339 60.7973 52.7495C61.5055 52.6503 62.2137 52.6645 62.9219 52.5795C63.0564 52.5795 63.1131 52.3527 62.9219 52.3244" fill="#0B041B"/>
<path d="M61.0593 50.1139L60.769 49.8446L60.6911 49.7879C60.6911 49.7879 60.514 49.6887 60.5919 49.7242C60.5503 49.7074 60.5119 49.6834 60.4786 49.6533C59.3278 49.7121 58.1886 49.9119 57.0864 50.2485C54.2923 51.0955 51.784 52.6934 49.8347 54.8681C47.8497 57.0879 46.5378 59.8274 46.0525 62.7661C45.5671 65.7048 45.9284 68.721 47.094 71.4617C47.7905 73.0262 48.8209 74.4192 50.1129 75.5428C51.4048 76.6665 52.927 77.4935 54.5724 77.9659C54.6848 77.9832 54.7996 77.9583 54.8948 77.896C54.9899 77.8337 55.0586 77.7383 55.0876 77.6283C55.1167 77.5183 55.104 77.4014 55.052 77.3002C55 77.199 54.9124 77.1207 54.8061 77.0803C49.0911 75.4506 46.2655 69.0952 46.9099 63.5333C47.232 60.8317 48.2658 58.2643 49.9055 56.0938C51.5711 53.9149 53.8575 52.292 56.4632 51.4388C57.9293 50.9589 59.4494 50.6637 60.9885 50.5602H61.5338L61.0735 50.0997" fill="#0B041B"/>
<path d="M65.7896 50.4681C65.2514 50.291 64.7344 50.0997 64.1962 49.9651L63.8067 50.3548L63.5659 50.5673C64.2814 50.5994 64.9926 50.6967 65.6905 50.8578C65.7424 50.8701 65.7971 50.8616 65.843 50.8342C65.8888 50.8068 65.9222 50.7626 65.936 50.711C65.9498 50.6594 65.943 50.6044 65.917 50.5578C65.891 50.5111 65.8478 50.4764 65.7967 50.4611" fill="#0B041B"/>
<path d="M62.5815 50.9074C60.2881 49.5816 58.3055 47.7792 56.7674 45.6218C56.5691 45.3596 56.1017 45.7139 56.3 45.976C57.1255 47.0545 58.0527 48.051 59.0689 48.9518C60.0887 49.8587 61.1935 50.6381 62.277 51.4387C62.5886 51.6655 62.9356 51.0916 62.5815 50.9074Z" fill="#0B041B"/>
<path d="M68.0277 45.8203C67.792 46.0205 67.5697 46.2359 67.362 46.465L66.6538 47.0956C66.1723 47.5278 65.6907 47.9671 65.195 48.3922C64.2507 49.233 63.29 50.0785 62.3127 50.9287C61.9586 51.2404 62.4756 51.7648 62.8226 51.4459C63.7574 50.5957 64.678 49.7384 65.6057 48.874C66.0519 48.456 66.5051 48.045 66.9583 47.6341L67.6665 46.9964C67.794 46.883 67.9144 46.7626 68.0489 46.6563C68.1891 46.5715 68.3197 46.4717 68.4384 46.3587C68.658 46.0824 68.3747 45.5935 68.0277 45.8203Z" fill="#0B041B"/>
<path d="M59.2744 43.2979C59.1753 43.1704 58.9203 43.1845 58.892 43.3687C58.892 43.4183 58.7999 43.475 58.7645 43.5034C58.72 43.5536 58.6702 43.5987 58.6158 43.638L58.3042 43.8789L57.6668 44.3607C57.2348 44.6866 56.817 45.0692 56.3992 45.3739C56.3429 45.4331 56.3115 45.5118 56.3115 45.5935C56.3115 45.6753 56.3429 45.7539 56.3992 45.8131C56.4573 45.869 56.5347 45.9002 56.6152 45.9002C56.6957 45.9002 56.7731 45.869 56.8312 45.8131C57.2278 45.4518 57.6173 45.1046 57.9926 44.7079L58.545 44.1481C58.637 44.056 58.7291 43.9639 58.8283 43.8789C58.872 43.8305 58.9193 43.7854 58.9699 43.7443L59.0478 43.6805C59.0478 43.6805 59.1257 43.638 59.1044 43.638C59.1439 43.638 59.1826 43.627 59.2161 43.6062C59.2497 43.5855 59.2768 43.5558 59.2945 43.5205C59.3121 43.4852 59.3196 43.4457 59.316 43.4063C59.3125 43.367 59.2981 43.3295 59.2744 43.2979Z" fill="#0B041B"/>
<path d="M65.3507 43.2058C64.3238 43.1704 63.2899 43.2058 62.263 43.2058C61.2362 43.2058 60.2093 43.2058 59.1754 43.2058C59.1177 43.2157 59.0654 43.2456 59.0276 43.2903C58.9899 43.3351 58.9692 43.3917 58.9692 43.4502C58.9692 43.5088 58.9899 43.5654 59.0276 43.6101C59.0654 43.6549 59.1177 43.6848 59.1754 43.6947C60.2022 43.7372 61.2362 43.7585 62.263 43.7797C63.2899 43.801 64.3238 43.8647 65.3507 43.8647C65.4243 43.8535 65.4916 43.8163 65.5401 43.7597C65.5887 43.7032 65.6154 43.6311 65.6154 43.5565C65.6154 43.482 65.5887 43.4099 65.5401 43.3533C65.4916 43.2968 65.4243 43.2595 65.3507 43.2483" fill="#0B041B"/>
<path d="M68.2967 45.6501C68.2401 45.5863 68.1905 45.5226 68.1338 45.4659L67.8151 45.1116C67.6027 44.892 67.3761 44.6723 67.1495 44.4669C66.6898 44.0283 66.1894 43.6345 65.6552 43.2907C65.4215 43.1419 65.1453 43.4962 65.3578 43.6804C65.811 44.0843 66.2713 44.481 66.6962 44.9203C66.9087 45.1329 67.1141 45.3525 67.3123 45.5793L67.6027 45.9264C67.7372 46.0894 67.8364 46.2594 68.0701 46.2594C68.1418 46.2613 68.212 46.2384 68.2687 46.1945C68.3255 46.1506 68.3654 46.0884 68.3817 46.0185C68.398 45.9548 68.3989 45.8881 68.3841 45.824C68.3693 45.7598 68.3393 45.7002 68.2967 45.6501Z" fill="#0B041B"/>
<path d="M61.7602 45.3455C61.5716 45.161 61.3679 44.9927 61.1511 44.8425C60.9458 44.6724 60.7404 44.5095 60.5279 44.3536L59.2674 43.3829C59.2238 43.3405 59.1653 43.3168 59.1045 43.3168C59.0437 43.3168 58.9852 43.3405 58.9416 43.3829C58.9198 43.4041 58.9024 43.4294 58.8905 43.4574C58.8787 43.4854 58.8726 43.5155 58.8726 43.5459C58.8726 43.5763 58.8787 43.6064 58.8905 43.6344C58.9024 43.6624 58.9198 43.6877 58.9416 43.7088L60.1739 44.7362L60.79 45.2392C61.0005 45.4214 61.2229 45.5895 61.4557 45.7423C61.5085 45.7684 61.5688 45.7753 61.6262 45.7619C61.6836 45.7485 61.7346 45.7156 61.7705 45.6688C61.8064 45.622 61.825 45.5643 61.8231 45.5053C61.8212 45.4464 61.799 45.3899 61.7602 45.3455Z" fill="#0B041B"/>
<path d="M65.6765 43.4892C65.6561 43.4686 65.6318 43.4523 65.6051 43.4412C65.5784 43.43 65.5497 43.4243 65.5207 43.4243C65.4918 43.4243 65.4631 43.43 65.4363 43.4412C65.4096 43.4523 65.3853 43.4686 65.3649 43.4892C65.0816 43.7939 64.7913 44.0985 64.5009 44.3961L64.076 44.8354L63.8565 45.0692C63.809 45.1097 63.7684 45.1575 63.7361 45.2109C63.6983 45.2777 63.6811 45.3541 63.6865 45.4306C63.6865 45.4888 63.7097 45.5447 63.7508 45.5859C63.792 45.6271 63.8478 45.6502 63.9061 45.6502C64.0349 45.6391 64.1544 45.5781 64.2389 45.4802C64.3097 45.3951 64.3735 45.3101 64.4443 45.2322C64.5151 45.1542 64.7134 44.9063 64.855 44.7504C65.1241 44.4245 65.4003 44.1127 65.6765 43.7939C65.7143 43.7522 65.7353 43.6979 65.7353 43.6415C65.7353 43.5852 65.7143 43.5309 65.6765 43.4892Z" fill="#0B041B"/>
<path d="M63.8634 45.2533C63.6747 45.2427 63.4855 45.2427 63.2968 45.2533H62.7515C62.3833 45.2533 62.0434 45.2958 61.6468 45.3313C61.5848 45.3313 61.5254 45.3559 61.4815 45.3997C61.4377 45.4436 61.4131 45.5031 61.4131 45.5651C61.4131 45.6271 61.4377 45.6866 61.4815 45.7304C61.5254 45.7743 61.5848 45.7989 61.6468 45.7989C62.0245 45.8272 62.3998 45.8414 62.7728 45.8414H63.3393C63.5382 45.8437 63.737 45.8319 63.9342 45.806C63.9998 45.7892 64.057 45.7489 64.0948 45.6928C64.1327 45.6366 64.1486 45.5685 64.1396 45.5013C64.1297 45.4342 64.0967 45.3727 64.0462 45.3274C63.9958 45.2821 63.9311 45.2559 63.8634 45.2533Z" fill="#0B041B"/>
<path d="M60.8679 47.7048C60.7058 47.6078 60.5322 47.5316 60.351 47.4781L59.8057 47.2585C59.4728 47.1097 59.1471 46.9609 58.8284 46.7979C58.1615 46.4651 57.5158 46.0912 56.8951 45.6785C56.6968 45.5509 56.5197 45.8627 56.7109 45.9973C57.3409 46.4404 57.9984 46.8427 58.6797 47.2018C59.0196 47.386 59.3879 47.549 59.7136 47.7048C60.0401 47.8894 60.3939 48.021 60.7617 48.0945C60.9954 48.0945 61.0167 47.8111 60.8679 47.7048Z" fill="#0B041B"/>
<path d="M67.8718 45.7352C67.2108 46.0658 66.5522 46.4059 65.896 46.7554L64.947 47.2585L64.4725 47.5136C64.2878 47.5952 64.1141 47.7 63.9556 47.8253C63.9186 47.8664 63.8955 47.9181 63.8897 47.973C63.8838 48.028 63.8954 48.0834 63.9229 48.1313C63.9504 48.1792 63.9924 48.2172 64.0427 48.2399C64.0931 48.2626 64.1494 48.2687 64.2034 48.2575C64.3843 48.1995 64.556 48.116 64.7133 48.0095L65.2161 47.7261L66.1509 47.2018C66.7954 46.8405 67.4398 46.4933 68.0772 46.0965C68.1009 46.083 68.1217 46.065 68.1385 46.0434C68.1552 46.0219 68.1676 45.9973 68.1748 45.971C68.182 45.9446 68.184 45.9172 68.1806 45.8901C68.1772 45.863 68.1685 45.8368 68.1551 45.8131C68.1416 45.7894 68.1236 45.7686 68.102 45.7518C68.0805 45.735 68.0559 45.7227 68.0296 45.7154C67.9764 45.7008 67.9197 45.7079 67.8718 45.7352Z" fill="#0B041B"/>
<path d="M64.0546 47.9316C62.9781 47.8679 61.93 47.797 60.8324 47.7616C60.5491 47.7616 60.5562 48.1655 60.8324 48.1938C61.9017 48.2859 62.9569 48.3497 64.0546 48.4205C64.3733 48.4205 64.3733 47.9458 64.0546 47.9316Z" fill="#0B041B"/>
<path d="M61.3918 45.5226C61.3363 45.6217 61.298 45.7295 61.2785 45.8414C61.2431 45.9477 61.2147 46.054 61.1864 46.1603C61.1581 46.2665 61.0802 46.557 61.0306 46.7554C60.981 46.9538 60.9244 47.1522 60.8677 47.3506C60.7891 47.5631 60.7368 47.7843 60.7119 48.0095C60.7156 48.0611 60.7352 48.1102 60.7681 48.1501C60.8011 48.1899 60.8456 48.2184 60.8955 48.2317C60.9455 48.245 60.9983 48.2423 61.0466 48.2241C61.095 48.2058 61.1364 48.1729 61.1651 48.13C61.2543 47.921 61.3185 47.7022 61.3564 47.4781L61.5051 46.883C61.5546 46.6846 61.6042 46.4862 61.6609 46.2878C61.7175 46.0894 61.7104 46.0682 61.7388 45.9619C61.7719 45.8538 61.791 45.7419 61.7954 45.6289C61.7927 45.5826 61.7755 45.5384 61.7462 45.5025C61.7168 45.4667 61.6769 45.441 61.6321 45.4292C61.5873 45.4174 61.54 45.4201 61.4968 45.4369C61.4536 45.4537 61.4169 45.4837 61.3918 45.5226Z" fill="#0B041B"/>
<path d="M64.3381 47.2797C64.2956 47.0672 64.2602 46.8475 64.2177 46.6279C64.1752 46.4082 64.1398 46.1957 64.0973 45.9831C64.0864 45.7463 64.0131 45.5165 63.8849 45.3171C63.8613 45.2928 63.8324 45.2743 63.8005 45.2631C63.7685 45.2518 63.7344 45.2481 63.7008 45.2522C63.6672 45.2564 63.635 45.2682 63.6068 45.2868C63.5785 45.3054 63.5549 45.3304 63.5379 45.3596C63.4757 45.5917 63.4757 45.8361 63.5379 46.0681C63.5379 46.2878 63.6016 46.5074 63.6299 46.7271L63.7362 47.3789C63.7414 47.623 63.7943 47.8637 63.892 48.0874C63.9194 48.1338 63.9598 48.1711 64.0082 48.1948C64.0566 48.2184 64.1109 48.2274 64.1643 48.2207C64.2177 48.2139 64.268 48.1916 64.309 48.1566C64.3499 48.1216 64.3797 48.0754 64.3948 48.0237C64.4111 47.7852 64.3872 47.5456 64.324 47.3151" fill="#0B041B"/>
<path d="M62.6102 50.957L61.9021 49.4479C61.7888 49.1999 61.6684 48.9448 61.548 48.6968C61.4276 48.4489 61.3214 48.1796 61.1797 47.9458C61.0381 47.712 60.7052 47.8679 60.7831 48.1088C60.8795 48.3699 60.9906 48.6254 61.116 48.874C61.2293 49.1385 61.3497 49.4006 61.4772 49.6604C61.7109 50.1777 61.9446 50.6878 62.1853 51.205C62.3199 51.4955 62.7519 51.2475 62.6173 50.957" fill="#0B041B"/>
<path d="M63.906 47.8679L63.0704 49.455C62.9287 49.71 62.8013 49.9651 62.6667 50.2202C62.4999 50.4902 62.3577 50.7748 62.2418 51.0704C62.2211 51.1409 62.2278 51.2167 62.2606 51.2824C62.2935 51.3481 62.35 51.399 62.4189 51.4247C62.4865 51.4503 62.5609 51.4516 62.6294 51.4283C62.6979 51.405 62.7561 51.3587 62.7942 51.2971C62.946 51.0478 63.0786 50.7872 63.1908 50.5178C63.3253 50.2485 63.4599 49.9793 63.5873 49.71L64.3451 48.1017C64.4726 47.8324 64.0902 47.6057 63.9414 47.8679" fill="#0B041B"/>
<path d="M66.2995 46.6209C65.5489 46.2099 64.8194 45.7636 64.0546 45.3881C64.0351 45.3769 64.0135 45.3697 63.9912 45.3668C63.9689 45.364 63.9463 45.3656 63.9246 45.3715C63.9029 45.3774 63.8825 45.3876 63.8647 45.4014C63.847 45.4151 63.8321 45.4323 63.8209 45.4518C63.8097 45.4714 63.8025 45.4929 63.7997 45.5152C63.7969 45.5376 63.7985 45.5602 63.8044 45.5819C63.8103 45.6036 63.8204 45.624 63.8342 45.6418C63.848 45.6596 63.8651 45.6745 63.8846 45.6856C64.5928 46.1674 65.301 46.5925 66.0588 47.0389C66.3208 47.2019 66.5686 46.7768 66.2995 46.6209Z" fill="#0B041B"/>
<path d="M66.4838 46.4862C66.2289 45.5651 65.981 44.6369 65.7756 43.7088C65.7634 43.6608 65.7327 43.6197 65.6902 43.5945C65.6477 43.5692 65.5969 43.5619 65.549 43.5741C65.5011 43.5864 65.46 43.6171 65.4348 43.6596C65.4096 43.7021 65.4023 43.7529 65.4145 43.8009C65.6269 44.7361 65.8323 45.6784 66.0306 46.635C66.0943 46.9538 66.6042 46.8263 66.5192 46.5074" fill="#0B041B"/>
<path d="M61.3567 45.3596C61.2218 45.381 61.0949 45.4372 60.9884 45.5226L60.6839 45.7068L60.0253 46.0823L58.7152 46.8333C58.672 46.8578 58.6402 46.8984 58.6269 46.9462C58.6137 46.9941 58.6199 47.0452 58.6443 47.0884C58.6687 47.1316 58.7093 47.1634 58.7571 47.1767C58.8049 47.19 58.8561 47.1837 58.8993 47.1593L60.2236 46.4508L60.8822 46.0823C60.9813 46.0256 61.0876 45.9619 61.1938 45.9123C61.3217 45.8619 61.4359 45.7818 61.5266 45.6785C61.5423 45.6486 61.5501 45.6153 61.5493 45.5817C61.5485 45.548 61.5392 45.5151 61.5222 45.4861C61.5052 45.457 61.4811 45.4327 61.4521 45.4156C61.4231 45.3984 61.3903 45.3889 61.3567 45.388" fill="#0B041B"/>
<path d="M58.9486 43.6167C58.8778 44.141 58.807 44.6511 58.7362 45.1683L58.6299 45.9335C58.5621 46.1922 58.5358 46.4601 58.552 46.7271C58.5649 46.7724 58.5908 46.813 58.6265 46.8438C58.6622 46.8746 58.7061 46.8943 58.7529 46.9003C58.7996 46.9063 58.8471 46.8985 58.8895 46.8778C58.9318 46.8571 58.9672 46.8244 58.9911 46.7838C59.0659 46.5357 59.1017 46.2776 59.0973 46.0185C59.0973 45.7564 59.1398 45.4942 59.1681 45.225C59.2106 44.7078 59.2602 44.1835 59.3027 43.6662C59.3027 43.4679 58.9769 43.4183 58.9486 43.6167Z" fill="#0B041B"/>
<path d="M38.0007 70.1509C36.8249 70.3312 35.7085 70.7877 34.7431 71.483C33.6964 72.1657 32.9104 73.1817 32.5123 74.3667C32.4892 74.4754 32.505 74.5889 32.5569 74.6872C32.6089 74.7855 32.6936 74.8625 32.7965 74.9046C32.8993 74.9468 33.0137 74.9515 33.1197 74.918C33.2257 74.8844 33.3165 74.8146 33.3763 74.7209C33.6667 74.2533 33.9358 73.7644 34.2544 73.3039C34.5576 72.8794 34.9068 72.4897 35.2955 72.1419C36.0945 71.4038 37.0701 70.884 38.1282 70.6327C38.4539 70.5548 38.3123 70.0943 38.0007 70.1439" fill="#0B041B"/>
<path d="M58.8212 75.2735C57.6515 75.4073 56.5376 75.8472 55.5919 76.5488C54.6339 77.2704 53.9257 78.2738 53.5665 79.4184C53.4037 79.9639 54.2747 80.3394 54.5084 79.801C54.9167 78.8455 55.5141 77.9826 56.2647 77.2644C57.0055 76.5264 57.9256 75.994 58.9345 75.7199C59.232 75.6561 59.1045 75.2381 58.8212 75.2735Z" fill="#0B041B"/>
<path d="M73.4311 76.6622C73.1707 76.285 72.8638 75.9422 72.5175 75.6419C72.1658 75.3495 71.7807 75.0997 71.3703 74.898C70.4914 74.4645 69.486 74.3614 68.5375 74.6075C68.0206 74.7634 68.0843 75.6065 68.665 75.5782C70.2372 75.4931 71.9722 75.6986 73.1053 76.9244C73.2682 77.1015 73.601 76.8606 73.4452 76.6622" fill="#0B041B"/>
<path d="M70.4424 74.5438C70.1371 74.1082 69.7556 73.7314 69.3164 73.4314C69.1289 73.2981 68.9298 73.1819 68.7216 73.0842L68.41 72.9496C68.2857 72.8881 68.158 72.8337 68.0275 72.7866C67.9627 72.7696 67.8939 72.7768 67.834 72.8068C67.7741 72.8367 67.7271 72.8875 67.7018 72.9496C67.6742 73.0119 67.6712 73.0825 67.6936 73.1469C67.7159 73.2114 67.7619 73.2649 67.8222 73.2968C68.0254 73.3827 68.2179 73.492 68.3958 73.6227C68.4161 73.6453 68.4401 73.6645 68.4666 73.6794L68.5799 73.7856C68.6654 73.8581 68.7458 73.9362 68.8207 74.0195L68.9199 74.1328L68.9836 74.2107C69.0402 74.2958 69.104 74.3808 69.1536 74.4658C69.2162 74.5602 69.2707 74.6598 69.3164 74.7634V74.8059L69.4297 75.0822C69.4664 75.1482 69.5161 75.2061 69.5757 75.2523C69.6354 75.2986 69.7038 75.3323 69.7768 75.3515C69.9207 75.3828 70.071 75.3628 70.2017 75.2948C70.3321 75.2205 70.4278 75.0974 70.4676 74.9526C70.5074 74.8078 70.4882 74.6531 70.4141 74.5225" fill="#0B041B"/>
<path d="M54.6573 81.5298C54.5228 81.9549 54.4094 82.4225 54.3174 82.8334C54.6431 82.1958 55.0256 81.5723 55.3726 80.9629C56.9022 78.5965 59.1613 76.2938 62.1782 76.0033C58.5027 75.2948 55.6063 78.1997 54.6573 81.5369" fill="#0B041B"/>
<path d="M56.2859 81.3384C56.6454 80.846 57.0308 80.373 57.4402 79.9214C58.0412 79.2908 58.703 78.7212 59.416 78.2209C60.1968 77.592 61.0391 77.0436 61.9301 76.5842C60.6392 76.7904 59.4291 77.3455 58.4306 78.1896C57.4322 79.0338 56.6832 80.1348 56.2646 81.3738" fill="#0B041B"/>
<path d="M58.7788 79.9073C59.664 79.1634 60.4501 78.2777 61.392 77.6117C60.2913 78.067 59.3724 78.8742 58.7788 79.9073Z" fill="#0B041B"/>
<path d="M64.7701 77.7038L63.4741 78.4123C64.1823 78.1997 64.8905 77.9942 65.5987 77.8242C69.4441 77.0023 72.8787 77.9872 76.1293 80.3324C73.2966 76.5843 68.9413 75.4506 64.7984 77.6896" fill="#0B041B"/>
<path d="M66.4981 78.5327L66.144 78.6177C66.4769 78.6177 66.8522 78.6177 67.1638 78.6177C68.4173 78.6177 70.1311 78.8586 71.1509 78.9862C72.0395 79.0619 72.9064 79.3022 73.7074 79.6947C71.7387 78.0934 68.8847 78.0863 66.4981 78.5469" fill="#0B041B"/>
<path d="M68.6084 79.7231C70.1451 79.879 71.1507 79.964 72.6592 80.2191C71.4027 79.6041 69.9761 79.4294 68.6084 79.7231Z" fill="#0B041B"/>
<path d="M70.1523 80.9417C70.558 80.9665 70.9648 80.9665 71.3704 80.9417C70.9674 80.8713 70.5553 80.8713 70.1523 80.9417Z" fill="#0B041B"/>
<path d="M69.6918 64.8582C67.8542 63.6718 65.7968 62.8678 63.642 62.4941C61.4872 62.1204 59.2793 62.1846 57.1499 62.683C61.2011 62.535 65.238 63.2423 68.9977 64.759C69.458 64.9503 69.9467 65.1416 70.3787 65.34C70.1521 65.177 69.9255 65.014 69.6705 64.8582" fill="#0B041B"/>
<path d="M60.3652 63.5192C62.5889 63.8309 64.8622 64.2773 67.0504 64.8087C64.9883 63.7563 62.6706 63.3092 60.3652 63.5192Z" fill="#0B041B"/>
<path d="M62.1284 64.6031C63.1199 64.7519 64.253 65.1061 65.1382 65.3116C64.2159 64.8116 63.1768 64.567 62.1284 64.6031Z" fill="#0B041B"/>
<path d="M26.7621 64.9928C23.4795 65.8768 20.5092 67.6609 18.186 70.1438C20.8078 68.0511 23.8793 66.5959 27.1587 65.8926C27.0032 65.5962 26.8706 65.2883 26.7621 64.9716" fill="#0B041B"/>
<path d="M40.3378 64.9928C37.0957 64.0904 33.709 63.8281 30.3667 64.2205C30.4942 64.5677 30.6287 64.929 30.7845 65.2408C33.6803 64.9129 36.6029 64.8963 39.5022 65.1912C40.2599 65.2762 41.8958 65.5951 42.6111 65.7722C41.8673 65.4734 41.1085 65.2132 40.3378 64.9928Z" fill="#0B041B"/>
<path d="M31.0252 65.7864C31.1172 65.9777 31.2164 66.162 31.3084 66.3462C33.4857 66.0367 35.6812 65.8733 37.8803 65.8573C35.5803 65.4781 33.2429 65.3781 30.9189 65.5597L31.0252 65.7864Z" fill="#0B041B"/>
<path d="M27.2933 66.1477C24.99 66.6886 22.8212 67.694 20.9197 69.1022C20.6293 69.3077 20.2115 69.577 20.0132 69.7612C20.5797 69.4565 21.1463 69.1589 21.727 68.8755C23.6168 67.9364 25.6323 67.2754 27.7111 66.9129C27.5553 66.6578 27.4066 66.4099 27.2649 66.1477" fill="#0B041B"/>
<path d="M31.4927 66.7075L31.783 67.2672C32.9374 67.0334 34.0988 66.8067 35.2531 66.5587C33.9996 66.5587 32.7391 66.5587 31.4927 66.6792" fill="#0B041B"/>
<path d="M28.1786 67.579L27.9591 67.246C27.4633 67.3593 26.9747 67.4869 26.4861 67.6498C24.7501 68.3033 23.0883 69.1393 21.5288 70.1438C23.7733 69.2385 26.0871 68.5158 28.4477 67.9828L28.1574 67.579" fill="#0B041B"/>
<path d="M28.7023 68.3938C27.4079 68.8225 26.1619 69.3852 24.9844 70.073C26.3016 69.6337 27.64 69.244 28.9785 68.8543C28.8864 68.7055 28.7873 68.5568 28.7023 68.3938Z" fill="#0B041B"/>
<path d="M31.9602 67.6073C31.9746 67.627 31.9865 67.6485 31.9956 67.6711L32.1514 67.9687L34.276 67.3806C33.4882 67.4066 32.703 67.4824 31.9248 67.6073" fill="#0B041B"/>
<path d="M32.3282 77.2786C32.2078 77.5124 32.052 77.8242 31.9741 77.9871C32.314 77.4983 32.6115 77.1086 32.9656 76.6764C34.3795 74.8252 36.1433 73.2701 38.1565 72.0993C39.5774 71.17 41.1942 70.5831 42.8801 70.3847C38.2486 70.0658 34.219 73.0629 32.3282 77.2503" fill="#0B041B"/>
<path d="M34.2899 76.3292L33.7446 77.1086C34.0633 76.7756 34.3962 76.4568 34.729 76.1379C35.9969 74.9266 37.3932 73.8575 38.8931 72.9496C39.8199 72.2944 40.8455 71.7921 41.9312 71.4617C38.8152 71.7451 36.0179 73.7856 34.2899 76.3292Z" fill="#0B041B"/>
<path d="M36.0181 76.2513C36.882 75.4932 37.8168 74.7917 38.4967 74.2674C39.1695 73.7227 39.8794 73.2256 40.6212 72.7795C38.7729 73.2755 37.0237 74.9051 36.0322 76.2513" fill="#0B041B"/>
<path d="M37.9727 75.7199C38.7729 75.0894 39.5236 74.3879 40.3167 73.7432C39.3798 74.1916 38.573 74.872 37.9727 75.7199Z" fill="#0B041B"/>
<path d="M39.835 75.3018C39.9695 75.2168 40.0757 75.1247 40.2032 75.0468C40.0626 75.1026 39.9367 75.1898 39.835 75.3018Z" fill="#0B041B"/>
<path d="M52.4479 82.3375C46.3975 81.4726 40.4066 80.2327 34.5098 78.6249C37.5513 79.9521 40.7122 80.9865 43.9498 81.714C46.7509 82.2396 49.5985 82.477 52.4479 82.4226H53.3544L52.4267 82.3021" fill="#0B041B"/>
<path d="M38.8721 78.8091C42.6706 80.3598 46.7378 81.1447 50.8403 81.1189C46.8391 80.4103 42.8804 79.4893 38.8721 78.8091Z" fill="#0B041B"/>
<path d="M42.937 78.6036C45.2403 79.4847 47.6874 79.9292 50.1533 79.9144C47.7385 79.4113 45.3094 79.0075 42.937 78.6036Z" fill="#0B041B"/>
<path d="M47.3628 78.228C47.663 78.3434 47.9775 78.4173 48.2976 78.4477C47.986 78.3556 47.6744 78.2918 47.3628 78.228Z" fill="#0B041B"/>
<path d="M28.1149 76.0883C26.4649 75.4294 24.4607 74.487 22.5911 73.5943C21.0751 72.9345 19.626 72.1302 18.2642 71.1924C21.1535 74.2178 25.2539 75.8261 29.2976 76.6126L29.5525 76.6622C29.071 76.478 28.5894 76.2796 28.1362 76.0883" fill="#0B041B"/>
<path d="M21.2881 72.0781C23.5293 73.4484 25.9822 74.4372 28.5469 75.0043C26.1108 73.9274 23.8588 72.9425 21.2881 72.0781Z" fill="#0B041B"/>
<path d="M24.1206 72.0781C25.565 72.9201 27.1327 73.5298 28.7663 73.8849C27.2597 73.1797 25.7077 72.5761 24.1206 72.0781Z" fill="#0B041B"/>
<path d="M27.4844 72.1277C27.7098 72.2414 27.9474 72.3294 28.1926 72.3898C27.9668 72.2768 27.7293 72.1889 27.4844 72.1277Z" fill="#0B041B"/>
<path d="M57.2349 83.4499C62.5129 84.0574 67.8509 83.8999 73.0839 82.9823C67.8009 83.1736 62.5108 83.0177 57.2349 83.4499Z" fill="#0B041B"/>
<path d="M59.7134 82.5713C62.3327 82.7346 64.9615 82.6587 67.5671 82.3446C64.9495 82.1081 62.313 82.1842 59.7134 82.5713Z" fill="#0B041B"/>
<path d="M61.6963 81.5369C63.046 81.6615 64.4057 81.6258 65.7471 81.4307C64.3972 81.3101 63.038 81.3458 61.6963 81.5369Z" fill="#0B041B"/>
<path d="M63.7148 80.5804C64.1135 80.5799 64.5114 80.5468 64.9046 80.4812C64.5054 80.4643 64.1057 80.4976 63.7148 80.5804Z" fill="#0B041B"/>
<path d="M51.0311 58.9349L50.0043 59.19L49.4731 60.9613C49.7493 60.8267 50.0326 60.685 50.323 60.5575C50.5567 60.0332 50.7904 59.4947 51.0311 58.9349Z" fill="#0B041B"/>
<path d="M34.8567 8.31095C38.5433 11.0551 41.8864 14.2332 44.8137 17.7768C40.9329 13.4619 35.9544 10.2027 30.7988 7.58118C45.4723 17.3163 53.8571 31.3309 52.2708 49.0652C52.2708 49.3841 52.1929 49.7171 52.1504 50.0571C52.2522 50.087 52.342 50.1483 52.4069 50.2323C52.4718 50.3163 52.5084 50.4187 52.5116 50.5248C52.5127 50.5956 52.4982 50.6657 52.4691 50.7302L52.5045 50.8082C52.5045 50.8082 52.5045 50.8507 52.5399 50.8578C52.6677 51.0103 52.8049 51.1546 52.9507 51.29C53.156 51.4742 53.3756 51.6513 53.588 51.8285L53.673 51.538L53.6305 51.8639C53.7084 51.9277 53.7934 51.9914 53.8642 52.0623C54.2537 51.9277 54.6432 51.8072 55.0256 51.7009C55.1248 51.2191 55.2239 50.7373 55.3018 50.2485C58.8427 31.9473 50.9182 17.2029 34.8567 8.2897M47.7526 21.6525C49.1414 23.6553 50.3276 25.7913 51.2935 28.0292C52.2354 29.8572 53.6022 35.1144 53.8925 37.2966C52.8583 31.7509 50.7613 26.4578 47.7172 21.7091" fill="#0B041B"/>
<path d="M49.0131 62.343C48.7511 63.1862 48.4962 64.0151 48.2412 64.8158C48.5528 64.2348 48.9494 63.3987 49.4097 62.4564C49.2692 62.4588 49.1311 62.4193 49.0131 62.343Z" fill="#0B041B"/>
<path d="M56.612 53.6564C56.0171 53.8761 55.4364 54.117 54.8486 54.3649L54.8911 54.4358C55.4931 54.2303 56.1092 54.0319 56.7253 53.8477C56.7253 53.7627 56.7607 53.6777 56.7749 53.5997L56.612 53.6564Z" fill="#0B041B"/>
<path d="M57.7094 47.2089C57.5739 47.138 57.4498 47.0473 57.3411 46.9397C57.2481 46.8431 57.1737 46.7302 57.1216 46.6067L56.9799 46.5146C56.8192 46.4199 56.7022 46.2656 56.6545 46.0852C56.6067 45.9048 56.6321 45.7128 56.725 45.551C56.9737 45.229 57.2537 44.9323 57.5607 44.6653C57.7751 44.4321 58.0124 44.2208 58.2688 44.0347C59.1895 31.8411 55.3582 22.1059 43.9424 13.5682C47.1466 16.6074 49.9137 20.0768 52.1643 23.8773C55.4454 29.614 56.8935 36.2178 56.3143 42.8019C56.0806 45.806 55.7265 48.7464 55.2732 51.6726C55.9318 51.5026 56.5905 51.3538 57.2632 51.2333C57.5252 49.9084 57.7377 48.6118 57.9147 47.3365C57.8362 47.3138 57.7602 47.2829 57.6881 47.2443" fill="#0B041B"/>
<path d="M56.9307 53.7769C57.6388 53.5714 58.347 53.3801 59.0552 53.2101C59.0906 53.0897 59.126 52.9621 59.1685 52.8417C58.4603 53.0259 57.7522 53.2526 57.0086 53.5077L56.9448 53.7769" fill="#0B041B"/>
<path d="M53.5737 66.5587L52.8301 69.2015C53.2054 68.1883 53.5878 67.2176 53.9702 66.254L53.5737 66.5587Z" fill="#0B041B"/>
<path d="M56.697 23.6505C58.977 28.2438 60.3796 33.2227 60.8327 38.3311C60.8823 39.2664 60.8965 40.3363 60.8894 41.4132C60.8056 38.697 60.4641 35.9948 59.8696 33.3431C58.4533 26.5626 54.4308 20.5897 48.7725 15.8993C53.3616 20.7347 56.4789 26.7781 57.7592 33.3219C58.5559 36.7854 58.847 40.3461 58.6232 43.8931C59.0176 43.7854 59.4255 43.7353 59.8342 43.7443C60.0183 43.7443 60.2025 43.7443 60.3937 43.7443H60.7548C61.1729 43.6217 61.6125 43.5903 62.0437 43.6522C62.2822 43.6801 62.5187 43.7227 62.7519 43.7797C62.7519 43.3971 62.7519 43.0216 62.7519 42.639C62.9077 35.8655 60.3653 29.255 56.7041 23.6505" fill="#0B041B"/>
<path d="M59.0975 48.4063C58.9417 48.2008 58.7859 47.9883 58.6089 47.797C58.5037 47.6786 58.3821 47.576 58.2477 47.4923C58.0919 48.5126 57.9078 49.5329 57.667 50.539C57.6175 50.7444 57.575 50.9499 57.5254 51.1554C58.8175 50.9278 60.1235 50.7882 61.4345 50.7373C61.4345 50.6594 61.4841 50.5815 61.5124 50.5035L61.1371 50.0784C60.3615 49.6495 59.6703 49.0829 59.0975 48.4063Z" fill="#0B041B"/>
<path d="M16.0122 59.7923C13.2361 57.5534 10.6017 55.4491 9.29863 52.1473C7.03954 47.0389 6.69253 39.4648 7.54942 34.0446C8.82414 26.513 12.0039 20.2 16.083 13.7241C10.4742 20.4268 5.86396 28.4402 5.32574 37.3321C4.86543 43.3546 5.70816 49.873 9.57481 54.7193C11.494 57.0858 14.1851 58.6303 16.6566 60.3237C16.43 60.1466 16.2034 59.9765 15.9484 59.7923" fill="#0B041B"/>
<path d="M9.51098 56.8306C8.93497 55.7626 8.41493 54.6652 7.95299 53.5431C5.91343 48.5834 4.93615 44.2756 5.21942 39.1388C5.32564 33.2084 6.63578 27.9441 8.65409 22.0421C6.32297 26.1763 4.65046 30.6488 3.69684 35.2986C3.83139 33.2864 4.05801 31.2671 4.34128 29.2407C1.29611 37.0912 0.906613 45.5367 5.94176 52.6574C6.24628 53.125 6.58621 53.6493 6.87656 54.0745C6.5508 53.4439 6.10464 52.5086 5.89219 51.9489C5.47287 50.8866 5.11581 49.8007 4.82284 48.6968C5.61182 50.7436 6.65387 52.6835 7.92466 54.4712C8.44163 55.2577 8.97985 56.0512 9.51098 56.8164" fill="#0B041B"/>
<path d="M68.1551 94.3966L71.1223 94.0778C69.9397 94.0778 68.757 94.0778 67.5815 94.0778C64.4088 93.9857 61.5336 93.8015 58.7859 93.5535C61.3282 93.5535 63.8848 93.4685 66.4696 93.2488C67.2486 93.1921 68.0984 93.1355 68.8349 93.0717C67.801 93.0717 66.767 93.0717 65.7331 92.9867C62.8154 92.7599 60.1243 92.4978 57.5253 92.1931C59.9898 92.2285 62.4826 92.1931 65.1099 92.016C65.8181 92.016 66.9016 91.938 67.4186 91.9026C66.5121 91.8601 65.6127 91.7963 64.7133 91.7184C60.3155 91.2295 56.541 90.7548 52.7593 90.1809C57.0914 90.4708 61.4384 90.4566 65.7685 90.1384C66.59 90.0888 67.454 90.0321 68.2471 89.9684C67.3548 89.9684 66.4555 89.9188 65.5631 89.8692C61.477 89.6141 57.9148 89.2527 54.3881 88.7568C59.0453 89.0356 63.7179 88.9099 68.3534 88.3813C69.4865 88.275 71.094 88.1333 71.958 88.027C70.7399 88.027 69.5219 88.027 68.3038 88.027C63.1547 88.0159 58.016 87.5655 52.9434 86.6808C57.7922 86.9879 62.6582 86.8836 67.4894 86.3691C68.7075 86.2628 70.4496 86.1494 71.3631 86.0644C69.8901 86.029 68.4242 85.9794 66.9512 85.9014C56.341 85.5912 45.8103 83.9657 35.6001 81.0622C29.3485 79.5432 23.2401 77.4856 17.3433 74.9122C22.3482 78.1555 27.7579 80.7259 33.4331 82.5572C29.4885 81.5298 25.5794 80.3891 21.7198 79.0854C27.365 82.0308 33.2976 84.3884 39.4243 86.1211C33.8722 85.0866 28.405 83.6767 22.945 82.2455C27.0507 84.0683 31.2625 85.6417 35.5576 86.9571C31.7405 86.1707 27.9305 85.3275 24.1843 84.2222C27.1206 85.6164 30.13 86.8511 33.1994 87.9207C28.2421 86.95 23.2849 85.9298 18.448 84.4702C22.9662 86.4529 27.6045 88.1496 32.3354 89.5503C28.3554 88.7993 24.3873 88.001 20.4309 87.1555C25.1828 88.7497 29.8143 90.6981 34.6653 91.9735L35.5718 92.2144C31.4738 91.4397 27.3782 90.6131 23.2849 89.7345C28.0084 91.4067 32.7391 93.1284 37.5688 94.4675C33.688 93.759 29.7789 93.0504 26.0184 91.9876C38.0575 97.4008 51.5129 100.27 64.7062 99.1366L66.6467 98.9312C65.8039 98.9312 64.9541 98.8816 64.1114 98.8249C60.2415 98.5027 56.394 97.9515 52.5893 97.174C57.7391 97.7468 62.943 97.6109 68.0559 96.7702C68.7641 96.6639 69.5856 96.5364 70.2938 96.4159C69.2598 96.5009 68.2188 96.5505 67.1849 96.5647C60.9246 96.6001 56.4064 95.7428 50.4577 94.7792C56.3572 95.2665 62.2916 95.1287 68.1622 94.3683" fill="#0B041B"/>
<path d="M55.4219 76.4284C55.3581 76.1804 55.1244 76.0387 54.9686 75.8545C52.2563 73.0913 50.3584 70.0517 49.8981 65.9352C49.7215 69.2672 50.7106 72.5566 52.6954 75.2381C53.4036 76.06 54.1471 77.1157 54.8199 77.222C54.9151 77.2209 55.0087 77.1981 55.0937 77.1553C55.1787 77.1124 55.2528 77.0507 55.3102 76.9747C55.3676 76.8988 55.4069 76.8107 55.425 76.7173C55.4432 76.6238 55.4397 76.5274 55.4148 76.4355" fill="#0B041B"/>
<path d="M55.1177 54.365C54.4096 54.4784 53.5881 55.6687 52.8799 56.5402C50.9303 59.0028 49.8653 62.0498 49.856 65.1912C50.298 62.2887 51.6177 59.5911 53.6376 57.4612C53.6352 57.4895 53.6352 57.518 53.6376 57.5463C53.9858 59.6576 53.9858 61.8117 53.6376 63.923C54.4344 61.898 54.6954 59.7017 54.3954 57.5463C54.3859 57.3047 54.3018 57.072 54.1546 56.8802C54.5795 56.4268 55.0186 55.9733 55.4789 55.5199C55.5837 55.439 55.6611 55.3278 55.7006 55.2014C55.74 55.075 55.7396 54.9395 55.6994 54.8133C55.6592 54.6871 55.5811 54.5764 55.4757 54.4962C55.3704 54.416 55.2429 54.3702 55.1106 54.365" fill="#0B041B"/>
<path d="M34.7433 71.32C34.6017 70.9515 34.1838 70.7886 33.936 70.4981C31.2134 67.8472 29.5153 64.3187 29.1416 60.5363C28.9624 63.9545 30.0209 67.3228 32.1231 70.0234C32.6179 70.7003 33.1961 71.3121 33.8439 71.8443C33.9434 71.944 34.0784 72 34.2193 72.0002C34.3046 71.9992 34.3886 71.9786 34.4646 71.9397C34.5406 71.9009 34.6066 71.8449 34.6574 71.7763C34.7082 71.7076 34.7424 71.6281 34.7573 71.5441C34.7722 71.46 34.7674 71.3736 34.7433 71.2916" fill="#0B041B"/>
<path d="M35.515 49.122C34.913 48.2292 33.6808 49.6604 32.9301 50.2556C30.524 52.6677 29.1435 55.9175 29.0776 59.3247C29.7373 55.9612 31.5787 52.9452 34.2686 50.8224C34.9768 50.1139 35.8478 49.9793 35.5079 49.1503" fill="#0B041B"/>
<path d="M69.7483 73.3889C69.6421 73.5589 69.6138 73.3888 69.543 73.8565C69.5442 73.9491 69.5665 74.0402 69.6082 74.1229C69.6499 74.2056 69.7099 74.2777 69.7837 74.3337C69.8574 74.3897 69.9429 74.4282 70.0338 74.4462C70.1246 74.4641 70.2183 74.4612 70.3078 74.4375C70.6477 74.3241 70.846 73.9982 71.0655 73.7289C71.3622 73.3244 71.6319 72.9007 71.8729 72.4607C72.9803 70.1635 73.5656 67.6495 73.5867 65.0991C72.9909 68.1284 71.6743 70.9695 69.7483 73.3818" fill="#0B041B"/>
<path d="M39.0491 52.7425C38.9854 52.863 38.9146 52.9834 38.8508 53.1109C38.9712 52.7283 38.95 52.4024 38.6171 52.2395C38.486 52.1878 38.3402 52.1876 38.2089 52.2388C38.0776 52.29 37.9705 52.389 37.9089 52.5158C36.82 55.0502 35.0501 57.233 32.7959 58.8216C34.7332 57.9826 36.4354 56.6811 37.7531 55.031C37.7886 54.9673 37.8381 54.8964 37.8948 54.8114C37.426 55.5833 36.8674 56.2968 36.2306 56.937C37.7246 55.8914 38.9245 54.4786 39.7148 52.8346C39.7213 52.7923 39.7194 52.7491 39.7092 52.7075C39.6991 52.6659 39.6808 52.6267 39.6555 52.5921C39.6044 52.5224 39.5276 52.4758 39.4422 52.4626C39.3998 52.4561 39.3567 52.458 39.3151 52.4682C39.2735 52.4784 39.2343 52.4967 39.1998 52.522C39.1301 52.5732 39.0835 52.6499 39.0704 52.7354" fill="#0B041B"/>
<path d="M39.9414 52.6504C39.2828 53.6919 38.7092 54.776 37.9585 55.7608C38.263 55.6404 41.3365 52.119 39.9414 52.6504Z" fill="#0B041B"/>
<path d="M47.5754 59.5443C47.4267 59.3884 47.1859 59.3955 46.9876 59.3247C44.506 58.7626 42.2124 57.5665 40.3307 55.8529C41.2725 57.1559 42.4612 58.2609 43.8291 59.105C42.3144 58.4763 40.9052 57.6185 39.6509 56.5614C41.3688 58.6692 43.6618 60.2323 46.2511 61.0605C46.4298 61.1283 46.6195 61.1619 46.8106 61.1597C46.9033 61.157 46.993 61.1258 47.0675 61.0703C47.142 61.0149 47.1976 60.938 47.227 60.8499C47.2563 60.7618 47.258 60.6668 47.2316 60.5778C47.2053 60.4887 47.1522 60.4099 47.0797 60.352C47.155 60.3597 47.231 60.3597 47.3063 60.352C47.3926 60.339 47.4736 60.3024 47.5405 60.2463C47.6073 60.1902 47.6574 60.1167 47.6853 60.0339C47.7131 59.9512 47.7175 59.8623 47.6981 59.7772C47.6788 59.6921 47.6363 59.6139 47.5754 59.5514" fill="#0B041B"/>
<path d="M46.3856 61.1739C43.8871 60.3285 41.5394 59.0896 39.4313 57.5038C40.7794 58.9481 42.3357 60.1827 44.0486 61.1669C42.119 60.3415 40.3069 59.2647 38.6593 57.9643C39.5463 58.9569 40.523 59.8653 41.577 60.678C40.3025 60.0439 39.0929 59.2869 37.9653 58.4178C39.063 59.7371 40.4233 60.8133 41.9595 61.5778C42.0066 61.6176 42.0643 61.6429 42.1256 61.6506C42.1868 61.6582 42.249 61.6479 42.3044 61.6209C42.3599 61.5939 42.4064 61.5513 42.4382 61.4984C42.47 61.4455 42.4857 61.3844 42.4835 61.3227C43.0069 61.6589 43.5536 61.9572 44.1194 62.2155C44.6157 62.43 45.1366 62.5823 45.6703 62.6689C45.727 62.6857 45.7868 62.6888 45.8449 62.6781C45.903 62.6673 45.9577 62.643 46.0046 62.6071C46.0516 62.5712 46.0894 62.5247 46.1149 62.4714C46.1405 62.4182 46.1532 62.3596 46.1519 62.3005C46.1377 62.188 46.0909 62.0821 46.0173 61.9958C46.068 62.0142 46.1201 62.0284 46.1731 62.0383C46.2325 62.0559 46.2948 62.061 46.3562 62.0532C46.4176 62.0454 46.4767 62.0249 46.5297 61.993C46.5828 61.9611 46.6286 61.9186 46.6643 61.868C46.7001 61.8174 46.7249 61.76 46.7372 61.6993C46.7495 61.6386 46.7491 61.576 46.7359 61.5155C46.7228 61.455 46.6972 61.3979 46.6608 61.3479C46.6244 61.2978 46.578 61.2558 46.5245 61.2247C46.471 61.1935 46.4117 61.1738 46.3502 61.1669" fill="#0B041B"/>
<path d="M46.2156 64.2843C46.2156 64.2843 46.2156 64.2843 46.1448 64.2206C43.929 63.3015 41.5952 62.6981 39.2117 62.428C36.767 62.0656 34.2843 62.0394 31.8325 62.3501C36.227 62.2084 40.5934 63.1015 44.5797 64.9574C45.2879 65.2408 45.4225 65.4888 45.9961 65.418C46.107 65.3853 46.2071 65.3234 46.2859 65.2387C46.3647 65.1541 46.4193 65.0497 46.4439 64.9367C46.4685 64.8237 46.4623 64.7061 46.4259 64.5963C46.3895 64.4865 46.3242 64.3885 46.2369 64.3127" fill="#0B041B"/>
<path d="M15.3816 70.335C15.3787 70.2902 15.3787 70.2453 15.3816 70.2004V70.3563" fill="#0B041B"/>
<path d="M16.1041 68.5355C16.4048 67.595 16.9734 66.7627 17.74 66.1407C19.481 64.6706 21.4887 63.5496 23.6533 62.839C20.7144 63.5475 17.3859 64.5394 15.488 67.0405C16.0261 66.1254 16.7103 65.3044 17.5134 64.6103C18.5008 63.8606 19.6134 63.292 20.7993 62.9311C18.9218 63.1213 17.1619 63.9343 15.7996 65.2409C15.0064 65.9494 14.0433 67.3664 14.1283 68.1316C14.1387 68.1984 14.1638 68.262 14.2019 68.3178C14.2399 68.3736 14.29 68.4202 14.3484 68.4541C14.4067 68.4881 14.472 68.5085 14.5393 68.514C14.6066 68.5195 14.6742 68.5099 14.7373 68.4859C14.5923 68.8633 14.5651 69.2759 14.6594 69.6692C14.7182 69.8178 14.8318 69.9382 14.9768 70.0055C15.1218 70.0727 15.287 70.0817 15.4384 70.0305C15.4384 70.1084 15.4384 70.2005 15.3818 70.3068C15.3766 70.3996 15.3946 70.4923 15.4342 70.5764C15.4737 70.6605 15.5336 70.7334 15.6084 70.7886C16.0404 71.1216 16.5078 70.7461 16.5928 70.2856C16.5928 70.2218 16.5928 70.3564 16.5503 70.3989C16.7272 69.9523 16.9656 69.5326 17.2584 69.1519C19.1887 66.4575 21.8681 64.3902 24.9634 63.2074C21.7695 63.7601 17.9737 65.7227 16.1395 68.5355" fill="#0B041B"/>
<path d="M57.7164 59.7356C56.909 59.8773 55.7122 59.8914 55.1032 60.4441C55.0509 60.5432 55.0316 60.6564 55.0483 60.7672C55.065 60.878 55.1168 60.9806 55.196 61.0598C55.2752 61.139 55.3776 61.1908 55.4884 61.2075C55.5991 61.2242 55.7123 61.205 55.8114 61.1526C58.7572 60.2603 61.8698 60.0639 64.9044 60.5787C62.5905 59.8551 60.1651 59.5551 57.7447 59.6931" fill="#0B041B"/>
<path d="M72.7937 63.7742C70.8887 62.1233 68.3038 61.3439 65.8677 60.9401C68.0948 61.6872 70.1645 62.8402 71.9722 64.341C72.4183 64.9503 73.2681 64.4118 72.7937 63.8025" fill="#0B041B"/>
<path d="M76.4409 66.672C76.3982 66.6303 76.3467 66.5987 76.2901 66.5797C76.2335 66.5607 76.1733 66.5547 76.1141 66.5622C76.0549 66.5697 75.9981 66.5905 75.948 66.623C75.8979 66.6555 75.8558 66.6989 75.8248 66.75C75.7808 66.8256 75.7626 66.9134 75.7728 67.0003C75.783 67.0872 75.8211 67.1684 75.8815 67.2318C76.3064 67.6781 76.6817 68.1599 77.0712 68.6488C78.051 69.8047 78.8595 71.0957 79.4719 72.4819C78.9736 70.3225 77.93 68.327 76.4409 66.6862" fill="#0B041B"/>
<path d="M76.3489 90.0675C76.6818 88.3033 76.9863 86.5249 77.2554 84.7606C75.9665 89.4723 74.0969 94.0706 73.0913 98.839C73.1063 98.9632 73.1559 99.0807 73.2345 99.178C73.3132 99.2752 73.4176 99.3484 73.5358 99.3891C73.6541 99.4297 73.7814 99.4363 73.9031 99.4079C74.0249 99.3795 74.1363 99.3174 74.2244 99.2287C74.2881 99.1082 74.3377 98.9807 74.3944 98.8532C74.4839 98.9003 74.5835 98.925 74.6847 98.925C74.7859 98.925 74.8855 98.9003 74.9751 98.8532C75.485 98.3643 75.315 98.3218 75.5558 97.8754C76.3489 95.7498 76.5401 93.4046 76.9721 91.1657C77.5245 88.1545 78.1973 85.1574 79.0188 82.21C78.0415 84.6402 77.1492 87.3893 76.3419 90.0958" fill="#0B041B"/>
<path d="M55.3724 53.1039C49.8982 55.8317 46.6335 61.6061 47.7949 67.7065C47.6886 61.8258 50.3089 57.3692 54.7775 53.7557C55.3314 53.3495 55.9084 52.9757 56.5055 52.6362C56.1231 52.7779 55.7406 52.9267 55.3724 53.1039Z" fill="#0B041B"/>
<path d="M48.3401 59.1333C47.7665 60.197 47.4557 61.3826 47.4336 62.5909C47.4336 62.8177 47.4336 63.2003 47.4336 63.2995C47.5193 62.6321 47.6518 61.9715 47.8302 61.3227C48.7641 58.7345 50.3064 56.4089 52.3271 54.5421C50.552 55.6011 49.1586 57.1962 48.3472 59.0979" fill="#0B041B"/>
<path d="M30.3595 51.0208C31.3447 49.7565 32.4657 48.6041 33.7021 47.5844C30.6994 49.2211 28.1571 51.9702 27.3285 55.3357C27.3285 55.4774 27.2647 55.6333 27.2364 55.7608C27.3214 55.5695 27.3993 55.3782 27.4914 55.1869C28.0792 54.042 28.7917 52.9656 29.6159 51.9773C28.2999 53.8896 27.4154 56.0655 27.024 58.354C26.9602 58.6728 26.9036 59.0625 26.8682 59.3388C27.0594 58.6941 27.4135 57.7588 27.6188 57.2841C29.4955 52.6504 32.4769 49.214 37.0305 47.1451C34.4866 47.7458 32.1776 49.0871 30.3949 50.9995" fill="#0B041B"/>
<path d="M52.717 52.4307C52.4588 51.9522 52.1527 51.5012 51.8034 51.0845C50.2666 49.3198 48.2365 48.0563 45.9751 47.4569C48.5387 48.4914 51.074 50.5744 52.0442 52.7142C52.0611 52.7928 52.1033 52.8638 52.1643 52.9162C52.2254 52.9686 52.3019 52.9996 52.3821 53.0044C52.4624 53.0092 52.5421 52.9876 52.6089 52.9429C52.6758 52.8981 52.7262 52.8327 52.7524 52.7567C52.7803 52.7069 52.7949 52.6508 52.7949 52.5937C52.7949 52.5366 52.7803 52.4805 52.7524 52.4307" fill="#0B041B"/>
<path d="M74.3233 60.2316C75.0295 62.556 75.1402 65.0207 74.6452 67.3991C74.1502 69.7774 73.0654 71.9931 71.4906 73.8423C71.3346 74.0218 71.1903 74.2111 71.0586 74.4091C71.0586 74.4091 71.1294 74.317 71.1507 74.2887C71.028 74.4134 70.9593 74.5813 70.9595 74.7563C70.9604 74.8559 70.984 74.954 71.0287 75.043C71.0734 75.132 71.1379 75.2096 71.2172 75.2698C71.2965 75.3301 71.3886 75.3713 71.4863 75.3903C71.584 75.4094 71.6848 75.4058 71.781 75.3798C72.7087 75.0822 73.9551 72.3261 74.2667 71.4687C75.7263 67.8691 75.7466 63.8458 74.3233 60.2316Z" fill="#0B041B"/>
<path d="M35.062 13.0793C31.4577 10.6935 27.5797 8.74999 23.5116 7.29065C23.131 8.02628 22.5857 8.664 21.9182 9.15407L20.9551 9.86259C23.6014 10.6482 26.1596 11.7047 28.5892 13.0155C32.7898 15.0874 36.5807 17.9032 39.7785 21.3265C43.9284 25.443 47.0656 29.7296 48.9848 35.497C47.3347 26.6475 42.4412 18.3153 35.0337 13.0793" fill="#0B041B"/>
<path d="M31.9106 15.5096C28.1788 13.2883 24.1137 11.683 19.8716 10.7554L19.4679 11.0813C19.0819 11.98 18.5821 12.8253 17.9807 13.5966L17.9312 13.6603C25.275 15.2899 31.0891 17.6706 37.2644 22.3893C40.0405 24.4653 44.1267 28.3126 46.3574 31.8977C42.9765 25.3197 38.0115 19.6875 31.9106 15.5096Z" fill="#0B041B"/>
<path d="M15.3037 17.1888C25.5227 17.8973 34.7503 21.2274 42.5473 29.1133C38.1425 23.3034 32.2717 18.4146 25.2961 16.0693C22.716 15.2587 20.0651 14.6941 17.3787 14.3831C16.6752 15.3278 15.9836 16.2725 15.3037 17.2171" fill="#0B041B"/>
<path d="M21.6633 21.1635C24.8855 21.454 33.936 23.5229 38.7091 26.6192C34.1695 23.139 29.0442 20.4995 23.5754 18.8254C20.7586 18.0297 17.8408 17.6501 14.9143 17.6989C14.1424 18.79 13.4059 19.9095 12.7331 21.0502L13.9016 20.9722C13.4838 21.0289 13.066 21.1069 12.6552 21.1777C12.0269 22.2368 11.4617 23.3322 10.9627 24.4582L10.7715 24.9187C12.8423 24.2423 14.9787 23.7863 17.1451 23.5583C23.1312 23.1494 29.1402 23.8877 34.8496 25.7335C30.3855 23.3943 25.5627 21.8162 20.5798 21.0643C20.948 21.0998 21.2879 21.1423 21.6704 21.1919" fill="#0B041B"/>
<path d="M10.2544 29.1558C11.4736 28.4773 12.7482 27.9037 14.0644 27.4411C19.8644 25.7053 25.197 25.351 31.5281 25.8824C23.03 23.7001 16.4227 23.3884 10.4881 25.6911C9.99239 26.9664 9.5604 28.2914 9.16382 29.6376C8.90888 33.0314 8.1653 36.5173 8.11572 39.7907C8.11572 40.1024 8.11572 40.4142 8.11572 40.7189C9.55534 39.0586 11.1254 37.5161 12.8109 36.1064C15.9311 33.287 19.4188 30.9035 23.1787 29.0212C18.6819 30.4001 14.4147 32.4393 10.5164 35.0719C11.0122 34.6397 11.5008 34.2146 12.0178 33.7895C15.9977 30.7321 20.5631 28.5255 25.4307 27.3065C22.5447 27.5587 19.6949 28.1266 16.9325 28.9999C20.5361 27.3886 24.4237 26.5095 28.3696 26.4138C22.1934 25.5779 15.9071 26.5294 10.2544 29.1558Z" fill="#0B041B"/>
<path d="M8.6327 46.0044C8.90173 45.1744 9.25036 44.3724 9.67372 43.6096C11.5376 40.0768 14.034 36.9163 17.0388 34.2854C18.2327 33.1844 19.5381 32.2108 20.9338 31.3805C15.8814 33.539 11.4643 36.9534 8.10156 41.2998C8.15265 42.8736 8.32072 44.4414 8.60437 45.9902" fill="#0B041B"/>
<path d="M10.0631 51.2405C10.2897 50.2344 10.5659 49.1857 10.9129 48.0663C12.5325 42.3212 15.6571 37.1134 19.9634 32.9818C16.6617 35.3258 13.769 38.1984 11.4015 41.4841C10.3582 43.081 9.46225 44.7695 8.72461 46.5288C9.04421 48.1326 9.49179 49.7082 10.0631 51.2405Z" fill="#0B041B"/>
<path d="M11.4585 54.365C11.7935 54.6498 12.1082 54.9576 12.4004 55.2861C12.4429 54.4501 12.4925 53.5998 12.5845 52.7071C13.0378 47.0389 15.2827 39.9537 19.6097 34.8311C14.7597 39.3059 11.4773 45.2231 10.2476 51.7081C10.3963 52.0836 10.545 52.4662 10.7079 52.8346C10.9345 53.3448 11.1965 53.8549 11.4585 54.365Z" fill="#0B041B"/>
<path d="M14.5812 57.2912C15.3496 57.8208 16.1651 58.2785 17.0173 58.6587C15.9633 54.5626 15.7227 50.2995 16.3092 46.1107C16.8899 43.0003 17.4847 39.734 19.0357 37.0204C14.8756 42.6163 12.9058 49.5417 13.4977 56.4906C13.8279 56.7984 14.1833 57.078 14.56 57.3267" fill="#0B041B"/>
<path d="M20.0625 59.7144C20.4803 59.8206 20.8981 59.9057 21.3159 59.9836C20.891 59.1334 20.5299 58.3257 20.2537 57.5959C19.4176 55.0407 18.8248 52.4122 18.4832 49.7454C18.1291 46.0965 18.0725 42.6106 19.1206 39.2239C16.3606 45.4267 15.8594 52.4009 17.7042 58.935C18.4819 59.2467 19.2791 59.5071 20.0908 59.7144" fill="#0B041B"/>
<path d="M25.3954 60.6212C24.7295 59.6903 24.1443 58.7042 23.6462 57.6737C22.1893 54.6292 21.1575 51.3988 20.5797 48.0732C20.0812 45.8722 19.8435 43.6202 19.8716 41.3635C18.9438 47.4852 19.0996 54.3366 21.7341 60.0615C22.9805 60.2811 24.2127 60.4228 25.4095 60.6212" fill="#0B041B"/>
<path d="M25.9335 56.7881C26.009 56.4055 26.1011 56.0229 26.2097 55.6403C25.5198 54.6333 24.8839 53.5903 24.3047 52.5157C22.7679 49.4124 21.4366 46.6562 20.9621 42.6672C20.8036 48.5735 22.457 54.3867 25.6998 59.3246C25.679 58.4706 25.7575 57.617 25.9335 56.781" fill="#0B041B"/>
<path d="M27.4136 52.6078C25.2494 50.3062 23.4639 47.6755 22.1235 44.8141C23.0434 48.2372 24.5611 51.4706 26.6063 54.365C26.8203 53.7577 27.0906 53.1718 27.4136 52.6149" fill="#0B041B"/>
<path d="M33.2134 57.7376C32.3825 57.1188 31.568 56.4741 30.7702 55.8033C30.6002 56.7315 30.409 57.6526 30.1611 58.5666L30.8268 59.2113C31.6525 58.7707 32.4496 58.2785 33.2134 57.7376Z" fill="#0B041B"/>
<path d="M33.596 59.0909C32.926 59.3935 32.2377 59.6538 31.5352 59.8703C31.7689 60.0828 32.0026 60.3025 32.2433 60.5079L32.3637 60.3733C32.6464 60.1452 32.9678 59.9699 33.3127 59.8561C33.4402 59.8065 33.5747 59.7711 33.7022 59.7286L33.7447 59.679C33.8477 59.5699 33.9643 59.4747 34.0917 59.3955H34.1412C34.2573 59.338 34.3782 59.2906 34.5024 59.2538C34.637 59.2206 34.7747 59.2016 34.9132 59.1972H34.9698C35.0871 59.1998 35.2036 59.2164 35.3168 59.2468L34.4741 58.6658C34.1837 58.8216 33.8934 58.9846 33.596 59.1263" fill="#0B041B"/>
<path d="M32.6187 60.1962C32.5402 60.2513 32.4645 60.3104 32.3921 60.3733C32.4561 60.3008 32.5329 60.2408 32.6187 60.1962Z" fill="#0B041B"/>
<path d="M49.7284 47.5065C49.775 47.5358 49.8116 47.5786 49.8331 47.6293C49.8546 47.68 49.8601 47.736 49.8488 47.7899C50.014 46.7542 50.0969 45.707 50.0966 44.6582C50.0966 41.9233 49.523 39.5356 48.9069 36.7369C49.3331 40.0341 49.0922 43.3833 48.1987 46.5854C48.7228 46.8688 49.2327 47.1806 49.7284 47.5065Z" fill="#0B041B"/>
<path d="M49.2465 49.8942C48.8216 49.5187 48.3896 49.1432 47.9293 48.8102L47.4761 48.6189C46.9638 49.8564 46.3354 51.0426 45.5994 52.1615C44.7345 53.3808 43.6885 54.4608 42.4976 55.364C42.5942 55.4374 42.696 55.5037 42.8021 55.5624C43.1916 55.8033 43.5669 56.0584 43.9281 56.3347C44.3039 56.6422 44.7069 56.9149 45.132 57.1495C47.1416 55.1652 48.6052 52.6954 49.3811 49.9793L49.2748 49.873" fill="#0B041B"/>
<path d="M27.7817 52.0198C27.9982 51.6846 28.2347 51.3629 28.4899 51.0562C26.7097 49.5574 25.1166 47.8494 23.7451 45.969C24.7882 48.1703 26.1247 50.2201 27.718 52.0623V52.0198" fill="#0B041B"/>
<path d="M35.8479 55.6546C34.3614 54.9619 32.9251 54.1664 31.5492 53.2739C31.5764 53.4779 31.534 53.6851 31.4288 53.862C31.2081 54.2734 31.0279 54.7053 30.8906 55.1515C31.8118 55.9286 32.7764 56.6525 33.78 57.3196C34.4882 56.7953 35.1964 56.2356 35.8479 55.6546Z" fill="#0B041B"/>
<path d="M36.5206 57.4188C36.0957 57.7022 35.6637 57.9714 35.2246 58.2265C35.5079 58.3965 35.7982 58.5737 36.0886 58.7295C36.5135 58.439 36.9242 58.1344 37.3279 57.8226C37.7452 57.5266 38.1319 57.1895 38.4822 56.8165L37.7386 56.4977C37.3421 56.8165 36.9384 57.1283 36.5206 57.4188Z" fill="#0B041B"/>
<path d="M29.8923 49.703C28.38 48.8023 27.0001 47.6959 25.792 46.4154C26.6733 47.9328 27.7547 49.3245 29.0071 50.5532C29.2904 50.2627 29.5807 49.9722 29.8923 49.703Z" fill="#0B041B"/>
<path d="M43.036 47.3294C41.9698 48.8571 40.7213 50.249 39.3181 51.4742C38.6652 52.0199 37.8941 52.4057 37.066 52.6008C37.0046 52.6332 36.9371 52.6525 36.8678 52.6574L36.7474 52.6149C35.1752 52.1119 34.0775 51.7434 32.9445 51.2617C32.4416 51.6797 31.9388 52.1119 31.4785 52.5724L31.6414 52.6929C33.1459 53.6372 34.7429 54.4254 36.4074 55.0452C36.4699 54.6463 36.6859 54.2876 37.0094 54.0462C37.3313 53.7171 37.6743 53.4094 38.0362 53.1251C38.0445 53.0819 38.066 53.0423 38.0978 53.0119C38.1295 52.9814 38.1698 52.9616 38.2133 52.955L38.3054 52.8771L38.362 52.8275C38.4152 52.7898 38.4808 52.7739 38.5454 52.7832C38.6099 52.7924 38.6685 52.826 38.709 52.8771C39.2395 52.8027 39.7739 52.7602 40.3095 52.7496C41.8747 51.2682 43.1415 49.5004 44.0416 47.5419C43.7017 47.4569 43.3334 47.386 43.0077 47.3223" fill="#0B041B"/>
<path d="M44.9267 45.4164C45.2774 44.3862 45.4708 43.3089 45.5003 42.2209C45.2693 43.2981 44.8625 44.3298 44.2964 45.2747V45.3172L44.9479 45.4164" fill="#0B041B"/>
<path d="M46.8815 45.9548L47.448 46.2028C47.9902 44.1646 48.1653 42.0461 47.965 39.9465C47.82 41.9765 47.2634 43.9557 46.3291 45.7635C46.5164 45.8177 46.7008 45.8816 46.8815 45.9548Z" fill="#0B041B"/>
<path d="M45.1747 47.8324C44.8129 48.4092 44.4156 48.9629 43.985 49.4903C43.0573 50.6188 42.0259 51.6578 40.9044 52.5937C41.0602 52.5937 41.2231 52.7141 41.2018 52.8983C41.0994 53.3528 40.8506 53.7611 40.4937 54.0603C40.8594 54.0095 41.2317 54.0787 41.5547 54.2576C41.8778 54.4364 42.1341 54.7153 42.2853 55.0523C43.2412 54.1977 44.0944 53.2347 44.8277 52.1827C45.6088 50.9729 46.2638 49.6861 46.7823 48.3425C46.2582 48.1512 45.7342 47.9883 45.203 47.8324" fill="#0B041B"/>
<path d="M30.9543 48.8102L31.4288 48.4276L31.8962 48.0663C30.8292 47.2983 29.8569 46.4064 28.9998 45.4093C28.8015 45.2251 28.1358 44.3819 28.4686 44.9417C29.133 46.3297 29.968 47.6293 30.9543 48.8102Z" fill="#0B041B"/>
<path d="M40.8973 47.053C40.3246 47.8754 39.5365 48.524 38.6195 48.9277C37.7026 49.3314 36.6922 49.4746 35.6992 49.3415C34.9788 49.7161 34.2978 50.1624 33.6668 50.6735L33.5747 50.7444C34.6467 51.2935 35.8585 51.5087 37.0539 51.3622C38.2492 51.2157 39.3733 50.7142 40.2812 49.9225C41.0781 49.1398 41.7176 48.2114 42.1649 47.1876C41.7471 47.1238 41.3222 47.0813 40.8973 47.053Z" fill="#0B041B"/>
<path d="M42.9084 45.1967C43.1562 44.4032 43.3687 43.5884 43.6165 42.7523C43.214 43.5779 42.7647 44.3798 42.271 45.1542L42.9084 45.1967Z" fill="#0B041B"/>
<path d="M33.0509 47.2797C33.4457 47.0208 33.8547 46.7842 34.276 46.5712C33.577 46.5186 32.8884 46.3708 32.2294 46.1319C31.6345 45.872 31.0958 45.499 30.6431 45.0337C30.7817 45.299 30.9453 45.5505 31.1317 45.7847C31.6451 46.4306 32.3023 46.9474 33.0509 47.2939" fill="#0B041B"/>
<path d="M40.1255 45.1541H40.26C40.7195 44.5178 41.0447 43.7946 41.2161 43.0286C40.7234 43.9118 40.0325 44.6686 39.1978 45.2392C39.5023 45.1896 39.8139 45.1541 40.1255 45.1329" fill="#0B041B"/>
</g>
<defs>
<clipPath id="clip0_757_133">
<rect width="82" height="101" fill="white"/>
</clipPath>
</defs>
</svg>
