<svg width="200" height="140" viewBox="0 0 200 140" fill="none" xmlns="http://www.w3.org/2000/svg">
<g opacity="0.6" clip-path="url(#clip0_816_1709)">
<path d="M95.9439 113.86C94.2673 112.011 91.8123 111.199 89.4838 110.534C88.2596 110.168 87.0155 109.868 85.8113 109.396C84.9597 109.083 81.7463 107.693 80.9213 107.26C81.0265 107.474 81.1111 107.696 81.1741 107.926C81.2081 108.048 81.2326 108.172 81.2473 108.298C81.5001 108.465 84.0815 109.629 84.3543 109.775C85.3026 110.19 86.2785 110.539 87.275 110.82C89.2705 111.305 91.2103 111.996 93.0631 112.882C93.4883 113.109 93.8934 113.372 94.274 113.667C94.5667 113.893 95.2919 114.333 95.3518 114.725C95.4116 115.118 94.6865 115.53 94.3338 115.69C93.8464 115.909 93.3382 116.078 92.8169 116.195C90.7826 116.563 88.7021 116.599 86.6562 116.302C81.994 115.789 77.3695 114.978 72.8112 113.873C70.6224 113.361 68.4202 112.842 66.2913 112.124C65.2273 111.761 64.1929 111.316 63.1976 110.793C62.5323 110.44 61.2017 109.908 61.2483 108.97C61.2483 107.726 63.3506 107.839 64.1623 107.806C65.4929 107.759 66.8235 107.746 68.1075 107.746C69.3916 107.746 73.5298 108.032 74.8737 107.959C76.0005 107.927 77.1186 107.751 78.2002 107.433C78.2002 107.36 78.2468 107.28 78.28 107.2C78.3133 107.121 78.3333 107.067 78.3665 107.001C77.3619 107.433 75.4592 107.46 74.3747 107.46C73.0973 107.46 69.1188 107.087 67.8414 107.034C66.564 106.981 65.1802 106.961 63.8496 106.961C62.7785 106.961 61.6142 106.881 60.7825 107.686C60.6172 107.833 60.4829 108.011 60.3875 108.21C60.2921 108.409 60.2375 108.626 60.227 108.847C60.2164 109.067 60.2502 109.288 60.3261 109.495C60.4021 109.703 60.5189 109.893 60.6694 110.055C61.4294 110.778 62.3156 111.355 63.2841 111.758C65.5203 112.874 67.884 113.714 70.323 114.259C72.8112 114.805 75.3128 115.277 77.8077 115.763C80.3026 116.249 82.9505 116.781 85.5319 117.18C87.7591 117.605 90.0451 117.62 92.278 117.227C93.4756 116.974 97.6005 115.73 95.9239 113.86" fill="#0B041B"/>
<path d="M86.0505 63.7028C83.549 55.9653 80.6549 48.2877 79.7701 40.1444C79.282 35.9418 79.3289 31.6943 79.9098 27.5036C80.5793 23.2412 81.6257 19.0466 83.0367 14.9692C84.5935 10.3121 86.5628 5.79469 88.4656 1.25732C88.7583 0.592011 87.6872 0.0730764 87.4078 0.771646C85.7578 4.87879 84.2054 9.02363 82.7506 13.2062C81.2922 17.3302 80.1359 21.555 79.291 25.847C78.4214 30.0749 78.0994 34.3972 78.333 38.7073C78.6717 42.8073 79.4455 46.8596 80.6416 50.7959C81.9814 55.2623 83.5672 59.6511 85.3919 63.9423C85.4219 64.0305 85.4857 64.1032 85.5693 64.1444C85.6529 64.1856 85.7494 64.1918 85.8376 64.1619C85.9259 64.1319 85.9986 64.068 86.0397 63.9844C86.0809 63.9008 86.0872 63.8043 86.0572 63.7161" fill="#0B041B"/>
<path d="M107.174 19.2472C107.134 20.6621 107.066 22.0747 106.968 23.4852C107.068 23.4386 107.174 23.3854 107.281 23.3455C107.446 23.2825 107.628 23.2825 107.793 23.3455C107.926 21.4693 108.008 19.5865 108.039 17.697C108.119 13.2617 108.086 8.82631 107.939 4.39095C107.939 3.63916 106.742 3.72565 106.775 4.49075C107.008 9.40069 107.314 14.3106 107.174 19.2272" fill="#0B041B"/>
<path d="M98.0464 50.144C94.8862 54.9675 91.1738 59.4583 87.621 63.9757C87.5619 64.0463 87.5333 64.1375 87.5414 64.2292C87.5495 64.3209 87.5937 64.4056 87.6643 64.4647C87.7349 64.5238 87.826 64.5525 87.9177 64.5444C88.0094 64.5363 88.0942 64.4921 88.1533 64.4215C91.3399 61.0144 94.3362 57.4341 97.1282 53.6968C97.5208 53.1645 97.9 52.6256 98.2792 52.0867C98.021 51.4738 97.9403 50.8006 98.0464 50.144Z" fill="#0B041B"/>
<path d="M107.58 3.47955C106.042 2.74261 104.435 2.15877 102.783 1.73645C101.156 1.27099 99.5063 0.891249 97.8398 0.598783C96.1703 0.321739 94.4867 0.137387 92.7968 0.0465795C91.9851 0.00666124 91.1735 -0.0132979 90.3618 0.0465795C89.5024 -0.0147373 88.6392 0.0914611 87.8203 0.359273C87.4611 0.532252 87.3879 1.20421 87.8869 1.23747C88.6899 1.2149 89.4903 1.13486 90.2819 0.997965C91.1136 0.944741 91.9452 0.898167 92.7768 0.891514C94.4394 0.873624 96.1002 1.00275 97.74 1.27739C99.3833 1.53348 100.998 1.94562 102.563 2.5082C104.134 3.08702 105.611 3.83881 107.121 4.50412C107.259 4.56764 107.417 4.57354 107.56 4.52051C107.703 4.46748 107.819 4.35988 107.883 4.22137C107.946 4.08285 107.952 3.92478 107.899 3.78192C107.846 3.63906 107.738 3.52311 107.6 3.45959" fill="#0B041B"/>
<path d="M106.841 3.90529C106.008 4.08736 105.159 4.18983 104.307 4.21133C103.535 4.27786 102.756 4.31778 101.978 4.32443C100.357 4.34416 98.737 4.23067 97.1345 3.98512C95.5274 3.74359 93.9461 3.35383 92.4109 2.82084C90.9597 2.35707 89.5836 1.68473 88.3259 0.824929C88.0265 0.605378 87.5408 0.97795 87.807 1.30395C88.785 2.46158 90.5081 2.84746 91.8986 3.25329C93.5352 3.73068 95.1965 4.11934 96.8751 4.41757C98.5539 4.71697 100.249 4.91691 101.951 5.01635C102.756 5.05627 103.568 5.08288 104.38 5.07622C105.191 5.06957 106.176 4.93651 107.041 4.96978C107.779 4.96978 107.646 3.63917 106.808 3.89864" fill="#0B041B"/>
<path d="M107.154 24.736C107.154 24.6561 107.015 24.6229 106.995 24.736C106.755 26 106.742 27.2841 106.602 28.5548C106.462 29.8255 106.143 31.216 105.884 32.5466C105.624 33.8773 105.338 35.0948 104.999 36.3455C104.66 37.5963 104.334 38.9336 103.908 40.1777C103.908 40.2509 104.001 40.2974 104.034 40.2243C104.533 39.0334 105.052 37.889 105.438 36.6449C105.824 35.4008 106.183 34.0303 106.456 32.6997C106.729 31.3691 106.815 30.1449 106.968 28.8609C107.189 27.5156 107.252 26.149 107.154 24.7892" fill="#0B041B"/>
<path d="M103.149 41.4419C101.526 45.8263 98.8443 49.8248 95.9702 53.4773C95.9349 53.5143 95.9158 53.5639 95.917 53.615C95.9183 53.6662 95.9398 53.7148 95.9769 53.75C96.0139 53.7853 96.0635 53.8045 96.1146 53.8032C96.1658 53.802 96.2144 53.7805 96.2496 53.7434C99.829 50.4169 102.024 46.1456 103.375 41.5284C103.415 41.3953 103.202 41.3155 103.149 41.4419Z" fill="#0B041B"/>
<path d="M85.6849 65.7189C85.8379 62.8448 85.4054 59.5648 83.476 57.376C83.5692 57.6754 83.6557 57.9814 83.7289 58.2874C83.804 58.7267 83.833 59.1727 83.8153 59.618C84.4368 61.3382 84.6928 63.169 84.5671 64.9937C84.2411 68.7261 83.4627 72.4318 82.8906 76.1376C81.7063 83.7619 80.6685 91.4396 79.3911 99.0307C79.0385 101.133 78.626 103.222 78.2201 105.311C78.1181 106.233 77.7889 107.116 77.2621 107.879C77.0026 108.206 76.6603 108.458 76.2706 108.607C75.881 108.757 75.4583 108.8 75.0466 108.731C74.3813 108.644 74.2483 109.649 74.887 109.722C76.3573 109.875 77.6879 108.771 78.4197 107.586C79.4376 105.95 79.4776 103.954 79.7503 102.104C80.2959 98.0061 81.0477 93.9411 81.7462 89.8694C82.4448 85.7978 83.1567 81.786 83.842 77.7476C84.1879 75.7517 84.5073 73.7025 84.8466 71.68C85.2406 69.7013 85.5249 67.7024 85.6982 65.6923" fill="#0B041B"/>
<path d="M87.3416 66.0514C88.1466 63.2904 89.6369 60.3364 92.1783 58.906C91.9921 59.1588 91.8124 59.4183 91.6461 59.6844C91.4261 60.0741 91.2498 60.4868 91.1205 60.9152C89.9662 62.3325 89.1209 63.9755 88.6389 65.7387C87.7141 69.3712 87.2218 73.1236 86.5432 76.8093C85.1461 84.4005 83.5959 91.9716 82.2919 99.5761C81.9327 101.672 81.6266 103.787 81.3272 105.89C81.1173 106.794 81.1379 107.737 81.3871 108.631C81.5239 109.024 81.763 109.374 82.0799 109.644C82.3968 109.914 82.7801 110.095 83.1901 110.168C83.8221 110.294 83.6425 111.299 83.0171 111.152C81.58 110.82 80.6885 109.329 80.3891 107.972C79.97 106.096 80.5887 104.193 80.968 102.37C81.7996 98.3186 82.4383 94.2337 83.1036 90.1554C83.7689 86.077 84.4342 82.0653 85.0995 78.0202C85.4388 76.0243 85.7648 73.9818 86.1573 71.9593C86.4367 69.9706 86.8231 67.9984 87.315 66.0514" fill="#0B041B"/>
<path d="M89.1246 63.0242C89.1186 62.9722 89.0978 62.923 89.0647 62.8824C89.0315 62.8419 88.9874 62.8118 88.9376 62.7957C88.8878 62.7795 88.8344 62.7781 88.7838 62.7915C88.7332 62.8049 88.6875 62.8325 88.6522 62.8712C88.3661 63.257 88.0734 63.7028 87.5544 63.7494C87.3093 63.7814 87.0601 63.7533 86.8283 63.6675C86.5965 63.5818 86.389 63.4409 86.2238 63.257C85.8432 62.7973 85.5643 62.2622 85.4055 61.6869C85.2105 61.033 84.9612 60.3966 84.6604 59.7841C84.534 59.5579 84.1614 59.7841 84.2545 59.9904C84.4841 60.7845 84.6575 61.5937 84.7735 62.4121C84.9293 63.1452 85.3081 63.8122 85.8579 64.3215C86.1343 64.5816 86.4819 64.7534 86.8564 64.815C87.2308 64.8766 87.6151 64.8253 87.9603 64.6675C88.5724 64.3614 89.231 63.7693 89.1312 63.0242" fill="#0B041B"/>
<path d="M138.929 132.309C136.8 131.012 134.219 130.925 131.797 130.925C130.513 130.925 129.229 130.965 127.945 130.879C127.04 130.812 123.567 130.386 122.622 130.213C122.79 130.396 122.939 130.594 123.068 130.805C123.128 130.912 123.188 131.025 123.241 131.138C123.527 131.225 126.335 131.644 126.634 131.684C127.663 131.811 128.698 131.869 129.735 131.857C131.786 131.762 133.841 131.878 135.869 132.203C136.338 132.298 136.798 132.432 137.246 132.602C137.592 132.735 138.417 132.968 138.576 133.314C138.736 133.66 138.157 134.278 137.878 134.525C137.466 134.872 137.02 135.177 136.547 135.436C134.698 136.367 132.709 136.99 130.659 137.279C126.041 138.104 121.374 138.63 116.688 138.856C114.446 138.982 112.184 139.109 109.942 139.015C108.825 138.975 107.713 138.848 106.615 138.636C105.87 138.49 104.486 138.343 104.233 137.439C103.894 136.234 105.93 135.755 106.695 135.496C107.946 135.083 109.203 134.691 110.467 134.332C111.731 133.972 115.75 133.068 117.014 132.622C118.094 132.272 119.125 131.784 120.081 131.171C120.081 131.092 120.081 131.012 120.081 130.925C120.081 130.839 120.081 130.779 120.081 130.706C119.243 131.411 117.42 131.97 116.389 132.282C115.158 132.648 111.232 133.4 109.995 133.713C108.758 134.026 107.44 134.378 106.176 134.757C105.145 135.063 104.007 135.31 103.435 136.321C103.318 136.508 103.239 136.717 103.204 136.935C103.168 137.154 103.178 137.377 103.23 137.592C103.283 137.806 103.378 138.008 103.511 138.185C103.643 138.363 103.81 138.511 104.001 138.623C104.932 139.104 105.945 139.409 106.988 139.521C109.419 139.956 111.894 140.097 114.359 139.94C116.894 139.76 119.429 139.508 121.964 139.275C124.499 139.042 127.18 138.802 129.774 138.456C132.049 138.237 134.263 137.601 136.308 136.58C137.386 136.002 141.018 133.633 138.856 132.322" fill="#0B041B"/>
<path d="M115.284 86.9818C110.7 80.2623 105.757 73.7157 102.643 66.1578C100.994 62.2712 99.8426 58.1916 99.217 54.016C98.6529 49.7317 98.4704 45.4058 98.6715 41.0891C98.8511 36.1659 99.4698 31.2892 100.002 26.3992C100.089 25.6541 98.9176 25.4811 98.8511 26.2329C98.4076 30.6372 98.0882 35.0504 97.8931 39.4725C97.6591 43.8349 97.7413 48.2085 98.1392 52.559C98.4935 56.8614 99.406 61.0995 100.854 65.1665C102.335 69.0035 104.219 72.6721 106.475 76.1108C109.012 80.0213 111.766 83.7862 114.725 87.3877C114.781 87.4558 114.861 87.4999 114.949 87.5111C115.036 87.5223 115.124 87.4997 115.196 87.4479C115.267 87.3961 115.316 87.319 115.332 87.2324C115.349 87.1458 115.332 87.0562 115.284 86.9818Z" fill="#0B041B"/>
<path d="M116.894 86.8222C119.888 79.2644 123.268 71.7863 124.678 63.7229C125.428 59.5672 125.652 55.3335 125.343 51.122C124.955 46.8192 124.182 42.5598 123.035 38.3947C121.751 33.5979 120.068 28.994 118.464 24.3435C118.225 23.6183 119.322 23.2125 119.555 23.9243C120.939 28.1291 122.219 32.3648 123.394 36.6317C124.593 40.8345 125.482 45.1194 126.055 49.4521C126.658 53.726 126.703 58.0602 126.188 62.3457C125.583 66.4126 124.551 70.4043 123.108 74.2546C121.489 78.6294 119.626 82.9096 117.526 87.075C117.483 87.1436 117.417 87.195 117.34 87.22C117.263 87.2451 117.18 87.2424 117.105 87.2123C117.029 87.1822 116.967 87.1267 116.929 87.0554C116.89 86.9841 116.878 86.9016 116.894 86.8222Z" fill="#0B041B"/>
<path d="M118.943 23.1326C117.259 22.8603 115.552 22.7533 113.847 22.8133C112.153 22.8256 110.461 22.9277 108.777 23.1193C107.098 23.3221 105.432 23.622 103.788 24.0175C102.996 24.2038 102.218 24.41 101.446 24.6828C100.602 24.87 99.8026 25.2179 99.0906 25.7073C98.7978 25.9735 98.9176 26.6321 99.4033 26.5257C100.163 26.2896 100.906 26.0006 101.625 25.6608C102.404 25.3747 103.189 25.0953 103.987 24.8557C105.576 24.3666 107.206 24.0214 108.857 23.8245C110.506 23.5995 112.172 23.5305 113.834 23.6183C115.504 23.7247 117.127 24.0108 118.777 24.2836C118.925 24.298 119.073 24.2549 119.19 24.1631C119.307 24.0714 119.385 23.938 119.406 23.7908C119.427 23.6435 119.391 23.4937 119.305 23.3724C119.219 23.251 119.089 23.1676 118.943 23.1393" fill="#0B041B"/>
<path d="M118.358 23.7447C117.611 24.1548 116.827 24.4934 116.016 24.756C115.291 25.0421 114.559 25.3015 113.814 25.5277C112.262 25.9955 110.676 26.3425 109.07 26.5656C107.459 26.786 105.831 26.8573 104.207 26.7785C102.686 26.7466 101.178 26.4934 99.7295 26.0267C99.3769 25.9003 99.011 26.3926 99.3703 26.6321C100.628 27.4638 102.391 27.3507 103.841 27.344C105.546 27.3418 107.25 27.2463 108.944 27.0579C110.638 26.8718 112.32 26.5853 113.98 26.1997C114.765 26.0134 115.55 25.8072 116.329 25.5743C117.107 25.3415 118.012 24.909 118.884 24.7094C119.596 24.5231 119.09 23.2857 118.358 23.7447Z" fill="#0B041B"/>
<path d="M115.504 89.0176C114.839 86.2233 113.508 83.1962 111.026 81.6394C111.207 81.8988 111.373 82.1675 111.525 82.4444C111.723 82.8445 111.879 83.2636 111.991 83.6952C113.073 85.1694 113.837 86.8529 114.233 88.6384C114.972 92.3175 115.271 96.0832 115.763 99.8022C116.775 107.447 117.946 115.091 118.89 122.749C119.15 124.864 119.343 126.98 119.556 129.102C119.717 130.016 119.648 130.956 119.356 131.837C119.2 132.223 118.944 132.56 118.614 132.814C118.285 133.068 117.893 133.229 117.48 133.28C116.815 133.373 116.974 134.385 117.6 134.272C119.057 134.012 120.015 132.568 120.387 131.225C120.899 129.375 120.387 127.446 120.094 125.603C119.423 121.524 118.99 117.426 118.524 113.301C118.059 109.176 117.6 105.158 117.121 101.08C116.881 99.0438 116.622 97.0146 116.369 94.9787C116.189 92.9687 115.9 90.9699 115.504 88.991" fill="#0B041B"/>
<path d="M117.187 88.8714C117.187 85.9972 117.772 82.7372 119.848 80.6482C119.737 80.9454 119.638 81.2448 119.549 81.5464C119.449 81.9831 119.396 82.4291 119.389 82.877C118.687 84.562 118.34 86.3741 118.371 88.1994C118.511 91.9451 119.103 95.6841 119.489 99.4098C120.261 107.094 120.886 114.765 121.804 122.456C122.05 124.572 122.356 126.681 122.656 128.79C122.713 129.714 122.999 130.61 123.487 131.398C123.731 131.737 124.06 132.005 124.441 132.176C124.822 132.347 125.241 132.413 125.656 132.369C126.322 132.309 126.408 133.32 125.763 133.36C124.292 133.447 123.022 132.269 122.343 131.052C121.412 129.402 121.472 127.406 121.319 125.51C120.979 121.391 120.434 117.293 119.921 113.195C119.409 109.097 118.923 105.052 118.438 100.98C118.192 98.9441 117.965 96.9082 117.772 94.8657C117.479 92.8814 117.295 90.8825 117.22 88.878" fill="#0B041B"/>
<path d="M118.039 85.4916C118.019 85.4428 117.984 85.401 117.941 85.3716C117.897 85.3422 117.845 85.3266 117.792 85.3266C117.74 85.3266 117.688 85.3422 117.644 85.3716C117.6 85.401 117.566 85.4428 117.546 85.4916C117.38 85.944 117.22 86.4496 116.735 86.6425C116.509 86.7444 116.262 86.7892 116.014 86.7729C115.767 86.7567 115.528 86.6799 115.318 86.5494C114.823 86.2163 114.405 85.7807 114.093 85.272C113.723 84.6987 113.303 84.1599 112.836 83.662C112.656 83.4757 112.357 83.7684 112.51 83.9747C112.953 84.6704 113.348 85.3949 113.694 86.1436C114.046 86.8063 114.598 87.3416 115.271 87.6738C115.609 87.8452 115.99 87.9115 116.366 87.864C116.742 87.8166 117.095 87.6576 117.38 87.4076C117.879 86.9419 118.345 86.1901 118.045 85.5049" fill="#0B041B"/>
<path d="M124.552 65.8784C123.035 66.8231 121.225 67.0759 119.462 67.3687C117.611 67.66 115.741 67.8223 113.867 67.8543C110.093 67.9363 106.323 67.5655 102.637 66.7499C102.384 66.6967 102.277 67.0826 102.53 67.1425C108.466 68.447 114.589 68.659 120.6 67.7679C122.064 67.5616 123.793 67.4152 124.971 66.4372C125.277 66.1844 124.885 65.6721 124.552 65.8784Z" fill="#0B041B"/>
<path d="M124.965 64.9469C124.098 64.7088 123.202 64.5901 122.303 64.5943C121.392 64.5477 120.48 64.5344 119.576 64.5344C117.62 64.5344 115.657 64.601 113.708 64.7473C109.875 65.0227 106.073 65.6281 102.344 66.5569C102.287 66.5711 102.238 66.6074 102.207 66.6579C102.176 66.7084 102.167 66.7691 102.181 66.8264C102.195 66.8837 102.232 66.9331 102.282 66.9637C102.333 66.9943 102.393 67.0035 102.451 66.9894C106.145 66.1189 109.899 65.5208 113.681 65.1997C115.537 65.0534 117.407 64.9868 119.27 64.9935C120.181 64.9935 121.099 64.9935 122.011 65.0733C122.487 65.1062 122.961 65.1729 123.428 65.2729C123.881 65.3979 124.326 65.5535 124.758 65.7386C125.257 65.9116 125.464 65.1199 124.971 64.9469" fill="#0B041B"/>
<path d="M100.188 44.7884C98.5584 45.1743 96.975 45.7398 95.3183 46.0192C93.6114 46.2883 91.8801 46.3686 90.1556 46.2587C88.3247 46.1301 86.5016 45.9081 84.6934 45.5934C83.8219 45.4604 82.957 45.314 82.0921 45.1743C81.3167 45.1405 80.5756 44.845 79.9897 44.336C79.7968 44.1165 79.4841 44.4358 79.6704 44.6553C80.1647 45.1722 80.8231 45.5015 81.5332 45.5868C82.4181 45.7598 83.3096 45.8662 84.1945 45.9926C86.0839 46.2521 87.9667 46.4384 89.8695 46.5315C91.7001 46.6258 93.5353 46.5769 95.3583 46.3851C97.0752 46.3041 98.7515 45.8356 100.262 45.0146C100.284 44.9978 100.3 44.974 100.307 44.947C100.315 44.9201 100.313 44.8914 100.302 44.8655C100.292 44.8397 100.273 44.8181 100.249 44.8041C100.224 44.7902 100.196 44.7846 100.168 44.7884" fill="#0B041B"/>
<path d="M102.118 43.9366C101.173 43.7437 100.182 43.6572 99.224 43.5308C98.266 43.4044 97.5075 43.3179 96.6426 43.2514C94.7676 43.0728 92.8842 42.9973 91.0008 43.0252C87.2733 43.1031 83.5673 43.6121 79.9568 44.5421C79.8783 44.5632 79.8114 44.6147 79.7708 44.6852C79.7303 44.7557 79.7194 44.8394 79.7406 44.918C79.7617 44.9965 79.8132 45.0634 79.8837 45.1039C79.9542 45.1445 80.0379 45.1554 80.1165 45.1342C83.6729 44.1879 87.3234 43.639 91.0008 43.4975C92.8217 43.4199 94.6455 43.4487 96.463 43.584C97.4144 43.6705 98.3591 43.7836 99.3038 43.93C100.249 44.0764 101.08 44.2959 101.965 44.4755C102.318 44.5487 102.464 44.0098 102.111 43.9366" fill="#0B041B"/>
<path d="M90.5814 115.304C88.0532 114.971 85.4319 114.532 82.8173 114.08C85.4253 114.233 88.0466 114.206 90.6612 114.14H91.1801C90.3285 114.066 89.4503 113.96 88.6187 113.854C86.2436 113.501 84.0946 113.222 81.9657 112.949C82.7441 112.995 83.5158 113.029 84.2876 113.042C81.9457 112.603 79.6305 112.037 77.2487 111.758C75.612 111.518 73.9221 111.498 72.3254 111.139C73.3895 111.531 74.4786 111.851 75.5854 112.097C73.2701 111.764 70.7886 111.372 67.9211 110.846C69.6642 111.465 71.4406 112.024 73.2435 112.503C70.0168 111.964 66.7967 111.332 63.6299 110.507C72.4984 114.091 82.0111 115.805 91.5727 115.543C91.7856 115.543 92.1116 115.543 92.238 115.543L90.6279 115.337" fill="#0B041B"/>
<path d="M76.1577 111.232C77.9114 111.726 79.7249 111.974 81.5467 111.971C79.7682 111.608 77.9681 111.362 76.1577 111.232Z" fill="#0B041B"/>
<path d="M77.8208 110.594C78.2233 110.712 78.639 110.779 79.0583 110.793C78.6524 110.7 78.2399 110.647 77.8208 110.594Z" fill="#0B041B"/>
<path d="M133.56 135.097C130.62 135.676 127.939 136.061 125.184 136.368C128.088 135.746 130.944 134.924 133.733 133.906L134.864 133.547C134.305 133.653 133.747 133.76 133.188 133.853C130.527 134.318 127.958 134.704 125.504 135.03C127.366 134.638 129.229 134.159 131.052 133.773C127.825 134.105 124.579 134.192 121.365 134.698C119.037 135.024 116.708 135.589 114.433 135.809C115.897 135.888 117.362 135.888 118.831 135.809C115.81 136.286 112.76 136.55 109.703 136.6C112.42 136.951 115.16 137.095 117.899 137.033C113.699 137.455 109.48 137.661 105.258 137.652C114.892 139.148 124.938 138.829 134.113 135.31C134.811 135.05 135.543 134.784 136.222 134.525C135.337 134.718 134.452 134.897 133.56 135.077" fill="#0B041B"/>
<path d="M119.07 134.804C120.361 134.678 121.638 134.428 122.882 134.059C121.587 134.134 120.308 134.389 119.083 134.817" fill="#0B041B"/>
<path d="M106.535 69.0254C108.578 73.31 110.387 77.7209 113.428 80.6616C114.872 82.0674 116.552 83.209 118.391 84.0347C119.163 81.8458 120.247 79.7368 121.105 77.5746L121.145 77.4548C120.495 77.2526 119.858 77.0127 119.236 76.7363C116.881 75.6518 112.749 72.2721 110.587 69.0254C112.037 72.1679 114.069 75.0077 116.575 77.3949C116.023 77.0623 115.477 76.7296 114.951 76.3304C112.405 74.3185 110.218 71.8889 108.485 69.1451C110.367 73.596 113.049 77.7542 117.134 80.4087C113.281 78.3729 109.915 74.6206 106.522 69.0254" fill="#0B041B"/>
<path d="M116.036 86.9287C116.628 87.1665 117.261 87.2841 117.899 87.2746C117.833 86.2384 117.978 85.1996 118.325 84.2209H117.699C117.044 84.1956 116.419 83.9332 115.943 83.4824C111.805 79.8299 108.086 74.6272 104.679 68.9788C106.994 74.3478 110.388 81.6195 113.475 85.0658C114.141 85.8489 114.969 86.4777 115.903 86.9087C115.43 86.951 114.954 86.8732 114.519 86.6825C114.772 88.7849 115.045 90.8872 115.357 92.9763C117.227 103.442 118.684 113.967 120.533 124.425C119.928 114.599 118.597 104.905 117.14 95.5976C116.768 93.0162 116.475 89.9957 116.029 86.9486" fill="#0B041B"/>
<path d="M85.5853 63.8093C85.226 65.8052 84.92 67.8012 84.5806 69.7971C83.0837 80.7147 81.1676 91.5791 80.2495 102.57C82.638 92.0648 84.1282 81.4 85.6185 70.7418C85.9645 68.6128 86.3237 66.4838 86.683 64.3549C86.472 64.353 86.2641 64.3043 86.0742 64.2123C85.8844 64.1202 85.7174 63.9871 85.5853 63.8226" fill="#0B041B"/>
<path d="M117.679 72.6844C118.929 73.7462 120.327 74.6182 121.831 75.2724L121.951 75.319C122.19 74.6537 122.43 74.0283 122.656 73.3763C121.226 72.9979 119.839 72.4717 118.518 71.8062C116.813 71.0637 115.251 70.0304 113.9 68.7524C114.939 70.2585 116.216 71.5864 117.679 72.6844Z" fill="#0B041B"/>
<path d="M121.937 75.3656C118.22 74.1541 114.9 71.9585 112.33 69.012C114.426 72.5115 117.44 75.665 121.192 77.3349C121.451 76.6696 121.691 76.0043 121.937 75.339" fill="#0B041B"/>
<path d="M123.601 70.6355C121.531 70.5666 119.508 70.0056 117.699 68.9988C118.531 69.8051 119.502 70.4523 120.567 70.9083C121.143 71.1899 121.739 71.4301 122.35 71.6268C120.041 71.1345 117.912 70.4426 116.123 68.8325C117.78 70.9804 120.073 72.5498 122.676 73.3167C122.995 72.4252 123.308 71.5336 123.601 70.6554" fill="#0B041B"/>
<path d="M124.073 69.1384C122.347 69.5047 120.552 69.3849 118.89 68.7925C120.304 69.7707 121.988 70.2825 123.707 70.2562C123.827 69.8902 123.946 69.5177 124.06 69.1384" fill="#0B041B"/>
<path d="M124.213 68.686C124.359 68.2269 124.519 67.7678 124.685 67.3154C123.128 68.1005 121.738 68.7458 119.888 68.646C121.303 69.0418 122.798 69.0418 124.213 68.646" fill="#0B041B"/>
<path d="M124.785 67.0627C124.985 66.528 125.239 66.0152 125.543 65.5325C123.953 66.597 122.283 67.5883 120.567 68.5663C121.988 68.2332 123.381 67.7883 124.732 67.2356L124.772 67.1225" fill="#0B041B"/>
<path d="M88.7253 64.0556C88.9522 63.5952 89.2101 63.1506 89.497 62.725C89.2442 62.3258 88.9914 61.8934 88.7186 61.4343C85.8283 56.5794 83.2806 51.5286 81.0942 46.3186C82.4248 51.6876 83.6756 57.0965 86.0508 62.1129C86.6317 63.4519 87.2984 64.7519 88.0467 66.005C88.1816 65.3351 88.4053 64.6862 88.712 64.0756" fill="#0B041B"/>
<path d="M90.6812 61.0816C90.9274 60.7756 91.1802 60.4762 91.433 60.1768C90.954 59.5514 90.495 58.9127 90.0026 58.2142C90.4741 58.8592 90.9875 59.4726 91.5395 60.0504C92.0983 59.3851 92.6572 58.7198 93.2294 58.0944C89.7468 55.0406 86.7614 51.4627 84.3808 47.4895C85.7006 50.8112 87.3102 54.0104 89.191 57.0499L88.5257 56.0985C86.4166 52.9915 84.1812 49.9644 82.3184 46.6978C83.9883 50.8692 85.3455 54.2756 87.3214 58.3339C88.0333 59.6645 88.7585 61.1282 89.6367 62.4987C89.9627 62.0064 90.302 61.534 90.6879 61.0816" fill="#0B041B"/>
<path d="M86.2903 47.7621C87.8009 51.6639 90.2861 55.1135 93.5089 57.7816C94.2274 56.9567 94.9393 56.125 95.6179 55.2668L96.2832 54.3686L95.5048 53.9694C92.4 52.351 89.5853 50.2287 87.1752 47.689C88.7015 50.1216 90.5227 52.3563 92.5974 54.342C91.6498 53.6295 90.7477 52.8585 89.8963 52.0334C88.5324 50.7028 87.1885 49.4387 86.2837 47.7888" fill="#0B041B"/>
<path d="M96.363 54.2622C96.7888 53.69 97.2079 53.1045 97.6138 52.5124C94.2156 51.5113 91.0263 49.9043 88.1997 47.7688C90.5948 50.2171 93.2494 52.7719 96.363 54.2622Z" fill="#0B041B"/>
<path d="M89.2573 47.2897C91.5613 49.7129 94.4611 51.4886 97.6668 52.4392C98.4518 51.2949 99.2036 50.1239 99.9222 48.9464C100.641 47.7688 101.253 46.7442 101.832 45.6198C102.166 45.0324 102.47 44.4284 102.743 43.8102C102.836 43.5774 102.903 43.3245 102.976 43.0784C102.557 43.3312 102.144 43.584 101.752 43.8701C99.7459 45.4105 97.4164 46.4751 94.939 46.9837C95.9002 47.0798 96.8694 47.062 97.8264 46.9305C96.7685 47.1863 95.6809 47.2982 94.5931 47.2631C95.3917 47.4746 96.2098 47.6039 97.0347 47.649L96.2896 47.6956C95.2378 47.7889 94.178 47.7307 93.1427 47.5226C94.1522 47.9295 95.1996 48.2348 96.2696 48.4341C95.4698 48.4049 94.6735 48.3137 93.8878 48.1613C94.3669 48.3476 94.8592 48.5206 95.3515 48.6736C93.8801 48.3668 92.4292 47.9691 91.0071 47.4827C92.8221 48.5947 94.7324 49.5431 96.7154 50.3169C97.176 50.4454 97.6451 50.541 98.1192 50.603C97.9677 50.5987 97.8166 50.5853 97.6668 50.563C94.6618 50.1164 91.7964 48.9976 89.2839 47.2897" fill="#0B041B"/>
<path d="M82.5245 18.9613C81.4987 23.5573 80.8556 28.2304 80.6017 32.9327C80.5685 33.3984 80.5352 33.8974 80.502 34.3498C80.5951 33.7377 80.6949 33.1323 80.8013 32.5202C82.5045 23.0596 84.5204 13.5923 88.0066 4.57739C85.6476 9.15217 83.8088 13.9769 82.5245 18.9613Z" fill="#0B041B"/>
<path d="M83.5757 20.1586C83.1433 22.7505 82.8589 25.365 82.7241 27.9893C84.1523 21.6245 85.5827 15.2598 87.0153 8.89502C85.5876 12.5579 84.4378 16.3231 83.5757 20.1586Z" fill="#0B041B"/>
<path d="M84.7334 22.9531C85.3987 19.8261 86.2303 16.6726 86.4765 13.519C85.506 16.5791 84.9205 19.7482 84.7334 22.9531Z" fill="#0B041B"/>
<path d="M86.29 20.2054C86.5213 19.2688 86.688 18.3174 86.789 17.3579C86.5118 18.2843 86.3444 19.24 86.29 20.2054Z" fill="#0B041B"/>
<path d="M105.923 8.60913C105.87 15.8277 105.458 23.0595 104.959 30.2648C104.959 30.6041 104.899 31.0299 104.879 31.3093L105.098 30.2648C106.738 23.1631 107.018 15.815 105.923 8.60913Z" fill="#0B041B"/>
<path d="M105.178 12.3415C105.145 14.6767 104.806 16.9986 104.666 19.3338C104.526 21.6691 104.573 24.3303 104.56 26.6522C105.225 21.9618 105.804 17.145 105.178 12.3215" fill="#0B041B"/>
<path d="M103.854 17.2314C103.738 18.7528 103.738 20.2808 103.854 21.8021C104.037 20.284 104.037 18.7495 103.854 17.2314Z" fill="#0B041B"/>
<path d="M99.5034 42.8722C100.169 38.1418 100.515 33.3916 100.761 28.6213C99.4303 33.2785 99.3172 38.0753 99.5034 42.8722Z" fill="#0B041B"/>
<path d="M100.96 32.0144C100.612 34.131 100.502 36.2802 100.634 38.4213C100.946 36.3008 101.055 34.1555 100.96 32.0144Z" fill="#0B041B"/>
<path d="M124.452 53.7234C123.787 48.0483 123.122 42.3533 121.425 36.8712C120.374 33.4516 119.429 29.9454 117.726 26.7786C119.09 30.3646 119.556 34.2167 120.447 37.9357C121.505 43.032 122.816 48.0683 124.146 53.098C124.306 53.7633 124.486 54.5151 124.625 55.0939C124.565 54.6415 124.506 54.1958 124.452 53.7633" fill="#0B041B"/>
<path d="M118.358 33.7708C119.123 36.8378 119.522 39.978 120.134 43.085C120.746 46.192 121.911 50.1572 122.623 52.8916C121.664 46.4914 120.886 39.8849 118.358 33.7708Z" fill="#0B041B"/>
<path d="M118.225 37.8892C118.551 39.8851 118.777 41.881 119.203 43.7971C119.622 45.5468 120.467 48.4542 120.846 49.5852C120.427 45.5984 119.547 41.6736 118.225 37.8892Z" fill="#0B041B"/>
<path d="M117.759 41.3486C117.976 42.6475 118.319 43.9221 118.784 45.1542C118.593 43.8498 118.249 42.5725 117.759 41.3486Z" fill="#0B041B"/>
<path d="M117.127 43.6638C117.14 43.9707 117.2 44.2737 117.307 44.562C117.266 44.2591 117.206 43.9591 117.127 43.6638Z" fill="#0B041B"/>
<path d="M106.582 67.1425C108.688 67.6672 110.852 67.922 113.022 67.9009C115.48 67.7831 117.906 67.2987 120.221 66.4639C115.693 67.0014 111.134 67.2237 106.575 67.1292" fill="#0B041B"/>
<path d="M109.722 66.8631C112.742 67.2103 115.8 67.028 118.757 66.3242C115.738 66.3309 112.722 66.5041 109.722 66.8432" fill="#0B041B"/>
<path d="M114.519 65.8983C116.462 65.7719 118.418 65.5125 120.34 65.3395C116.655 64.9736 112.763 64.9802 109.243 66.2443C110.563 66.0361 111.899 65.9426 113.235 65.9649L114.087 65.925C112.962 65.9981 111.864 66.1245 110.82 66.2975C113.131 66.4459 115.452 66.2983 117.726 65.8584C116.661 65.8185 115.584 65.8584 114.526 65.8983" fill="#0B041B"/>
<path d="M95.4517 44.276C96.117 44.2295 96.8289 44.1696 97.4875 44.0898C93.8634 43.5644 90.1752 43.6769 86.5898 44.4224H88.6257C88.0402 44.4956 87.4614 44.5821 86.8826 44.6952C87.3217 44.6952 87.7807 44.7285 88.2132 44.7351C87.5479 44.7817 86.8427 44.8349 86.1507 44.9014C87.0666 45.0187 87.9885 45.0831 88.9117 45.0944C86.9558 45.0944 84.9931 45.0944 83.0371 45.0478C84.937 45.4782 86.8722 45.7343 88.8186 45.8129C91.0359 45.7691 93.242 45.4858 95.3985 44.968L90.9343 45.0611C92.2649 45.0012 93.5955 44.8615 94.9261 44.6885C94.1477 44.6486 93.3759 44.6287 92.6042 44.6153C93.6288 44.5422 94.6001 44.4291 95.5648 44.276H95.4384" fill="#0B041B"/>
<path d="M93.1494 1.43049C95.611 1.72322 97.8731 2.01596 100.368 2.34861C98.0421 1.58605 95.5921 1.27444 93.1494 1.43049Z" fill="#0B041B"/>
<path d="M96.5693 2.22215C97.1615 2.33525 97.6671 2.38848 98.2259 2.46831C97.6956 2.27688 97.1324 2.19319 96.5693 2.22215Z" fill="#0B041B"/>
<path d="M108.911 24.164C110.96 24.2305 113.016 23.9511 115.058 24.0974C113.034 23.6202 110.924 23.643 108.911 24.164Z" fill="#0B041B"/>
<path d="M109.083 24.7028C110.58 24.7028 112.071 24.5165 113.561 24.4101C112.064 24.2195 110.543 24.3188 109.083 24.7028Z" fill="#0B041B"/>
</g>
<defs>
<clipPath id="clip0_816_1709">
<rect width="79.3242" height="140" fill="white" transform="translate(60.2769)"/>
</clipPath>
</defs>
</svg>
