<svg width="200" height="140" viewBox="0 0 200 140" fill="none" xmlns="http://www.w3.org/2000/svg">
<g opacity="0.6" clip-path="url(#clip0_816_1708)">
<path d="M87.8924 0.0295298C80.1031 2.2941 72.8351 6.06826 66.502 11.1372C60.1116 16.1162 54.7229 22.2614 50.6213 29.2473C46.3969 36.4293 43.8363 44.4669 43.1278 52.7689C42.509 60.9204 44.1099 69.7889 49.5311 76.3396C54.4417 82.301 62.2986 86.5437 70.4305 85.9643C71.4218 85.8923 72.4065 85.7479 73.3768 85.5322C74.3589 85.3259 73.9366 83.9411 72.984 84.1376C69.179 84.8552 65.2521 84.5576 61.5986 83.2749C57.9452 81.9921 54.6942 79.7694 52.173 76.8307C47.21 70.6975 44.6664 62.9584 45.0232 55.0769C45.2719 47.0134 47.2832 39.1022 50.9159 31.899C54.3455 24.9016 59.1562 18.671 65.0583 13.5827C71.0695 8.51737 77.9744 4.62023 85.4175 2.09196C86.3407 1.76787 87.2737 1.47323 88.2067 1.1786C88.2897 1.16524 88.369 1.13454 88.4394 1.08852C88.5097 1.0425 88.5696 0.982176 88.6152 0.911476C88.6607 0.840777 88.6908 0.761283 88.7036 0.678169C88.7164 0.595056 88.7115 0.510186 88.6893 0.429075C88.6672 0.347963 88.6282 0.272429 88.5749 0.207389C88.5216 0.142349 88.4552 0.0892616 88.38 0.051574C88.3048 0.0138864 88.2225 -0.00755361 88.1385 -0.0113515C88.0545 -0.0151494 87.9707 -0.00122069 87.8924 0.0295298Z" fill="#0B041B"/>
<path d="M78.5916 82.4874C77.5059 82.6084 76.4122 82.6413 75.3212 82.5856C71.5908 82.346 67.9912 81.119 64.8911 79.0304C61.7332 76.9028 59.2438 73.923 57.7119 70.4369C56.0589 66.3861 55.2373 62.0442 55.2959 57.6695C55.2429 53.2439 55.6643 48.8253 56.553 44.4895C58.2783 35.9413 61.767 27.8466 66.7964 20.7224C71.5301 14.1256 77.5794 8.58127 84.5628 4.43903C85.4271 3.92833 86.2913 3.38817 87.1556 2.86765C87.2858 2.79602 87.3823 2.67558 87.4237 2.53284C87.4652 2.3901 87.4482 2.23675 87.3766 2.10651C87.305 1.97628 87.1845 1.87983 87.0418 1.83839C86.899 1.79694 86.7457 1.81391 86.6155 1.88554C82.8649 3.84115 79.3658 6.24531 76.1952 9.04513C72.9667 11.7601 70.0068 14.7793 67.3562 18.0609C58.6783 28.6709 53.7909 41.8744 53.4692 55.5776C53.2281 60.1799 53.8647 64.786 55.345 69.1503C56.7825 72.8794 59.1386 76.185 62.1947 78.7603C65.2508 81.3357 68.9078 83.0974 72.8266 83.882C74.7022 84.2199 76.6141 84.3091 78.513 84.1472C78.513 83.5972 78.513 83.0472 78.513 82.4874" fill="#0B041B"/>
<path d="M94.5316 72.7549C92.3936 75.8666 89.5367 78.4168 86.2033 80.1895C85.8399 80.3761 85.4667 80.543 85.0935 80.7002V81.4859C85.0935 81.8689 85.0935 82.2421 85.0444 82.6251C88.6159 81.2227 91.7628 78.9183 94.1781 75.9369C94.7985 75.1667 95.3475 74.3416 95.8182 73.4718C95.8928 73.3069 95.9032 73.1201 95.8473 72.948C95.7914 72.7758 95.6733 72.6307 95.5161 72.541C95.3588 72.4513 95.1738 72.4236 94.9972 72.4631C94.8206 72.5027 94.6651 72.6067 94.5611 72.7549" fill="#0B041B"/>
<path d="M78.5625 83.4107C78.3071 83.4107 78.0518 83.4107 77.7965 83.4893C75.7363 83.6951 73.6965 84.0695 71.6975 84.6089C69.7178 85.1798 67.7894 85.9157 65.9325 86.8088C64.3204 87.5072 62.8443 88.4847 61.572 89.6962C60.9765 90.3132 60.4707 91.0108 60.0693 91.7685C60.364 92.1908 60.639 92.6327 60.8943 93.0845C61.0746 92.4944 61.3427 91.9349 61.6898 91.4247C62.7158 90.0818 64.0681 89.0236 65.6183 88.3507C67.3253 87.5584 69.092 86.9016 70.902 86.3865C72.7874 85.7936 74.7057 85.3116 76.6474 84.9428C77.3021 84.8249 77.9569 84.7267 78.6116 84.6482C78.6116 84.2259 78.6116 83.8134 78.6116 83.4009" fill="#0B041B"/>
<path d="M90.3084 84.108C88.5525 83.7337 86.7745 83.4712 84.9854 83.3223C84.9854 83.5874 84.9854 83.8624 84.9854 84.1374C84.9906 84.1798 84.9906 84.2227 84.9854 84.2651C86.7347 84.2416 88.4836 84.3368 90.22 84.5499C90.5048 84.5499 90.6423 84.1669 90.3379 84.108" fill="#0B041B"/>
<path d="M61.4246 90.089C61.7192 89.9024 62.0237 90.2658 61.8764 90.5408C61.1818 92.1856 60.9574 93.991 61.2282 95.7558C61.405 98.0834 61.5032 100.421 61.7978 102.729C62.4287 107.277 63.4138 111.769 64.7442 116.164C65.1075 117.411 65.4709 118.649 65.8638 119.886C66.3527 121.123 66.7275 122.402 66.9834 123.707C67.0229 123.861 67.0051 124.024 66.9335 124.166C66.8619 124.308 66.7411 124.42 66.5937 124.48C66.4463 124.539 66.2822 124.544 66.1317 124.492C65.9812 124.44 65.8546 124.336 65.7754 124.198C65.2205 123.122 64.7952 121.985 64.5084 120.809C64.1549 119.641 63.8111 118.472 63.5263 117.294C62.888 114.936 62.446 112.54 61.9746 110.144C61.5032 107.747 61.1005 105.351 60.7077 102.945C60.3148 100.539 59.8729 98.1718 59.7256 95.7558C59.5586 93.7916 59.5684 91.2774 61.4639 90.089" fill="#0B041B"/>
<path d="M78.5621 83.5581C76.1336 83.7796 73.7223 84.1601 71.3436 84.6973C70.9017 84.7956 71.0883 85.4241 71.5106 85.3652C73.8611 85.0444 76.2116 84.7923 78.5621 84.609C78.5621 84.2554 78.5621 83.9117 78.5621 83.5581Z" fill="#0B041B"/>
<path d="M107.525 86.3571C100.163 84.4269 92.5953 83.3882 84.9854 83.2634C84.9854 83.5581 84.9854 83.8429 84.9854 84.1375C84.9854 84.2063 84.9854 84.2848 84.9854 84.3536C89.4203 84.3711 93.8446 84.7885 98.2046 85.6008C100.689 86.0526 104.785 86.9562 107.201 87.6927C108.045 87.9481 108.409 86.583 107.544 86.3571" fill="#0B041B"/>
<path d="M99.1572 72.6075C98.2831 75.6324 95.7001 78.2547 93.1074 79.9144C90.6188 81.4586 87.8699 82.5369 84.9951 83.0965C84.9951 83.3617 84.9951 83.6268 84.9951 83.892C88.1496 83.6842 91.2064 82.7136 93.9029 81.0635C95.3948 80.1448 96.7226 78.9829 97.8313 77.6261C98.8945 76.2452 99.7635 74.7252 100.414 73.1084C100.787 72.2049 99.4322 71.6745 99.1768 72.6075" fill="#0B041B"/>
<path d="M99.7662 71.7628C98.6859 71.7628 97.6252 71.9887 96.5449 72.0279L93.5495 72.1262C91.7915 72.1851 90.0335 72.244 88.2854 72.3324C88.0693 72.6565 87.8532 72.9806 87.647 73.3145C89.6112 73.3145 91.5754 73.2359 93.5396 73.1672L96.5351 73.069C97.6056 73.069 98.6859 73.1475 99.7564 73.1279C100.64 73.1279 100.64 71.7235 99.7564 71.7628" fill="#0B041B"/>
<path d="M78.621 81.859C77.2348 82.3484 75.8086 82.7164 74.3587 82.959C74.2513 82.9907 74.1588 83.0597 74.0976 83.1534C74.0364 83.2472 74.0106 83.3596 74.0248 83.4707C74.039 83.5817 74.0922 83.6841 74.175 83.7595C74.2577 83.8349 74.3646 83.8784 74.4765 83.8821C75.915 83.7888 77.3189 83.401 78.6014 82.7429C78.6014 82.4483 78.6014 82.1438 78.6014 81.8394" fill="#0B041B"/>
<path d="M78.9651 88.1248C75.9594 88.7969 73.0855 89.9617 70.46 91.572C69.0849 92.3947 67.8871 93.4826 66.9361 94.7724C65.9852 96.0622 65.3002 97.5282 64.9209 99.0851C64.7736 99.8315 65.903 100.146 66.07 99.3896C67.4253 93.4969 73.4751 90.7077 78.8374 89.264L79.2499 89.1658C79.1517 88.8221 79.0633 88.4783 78.9946 88.1248" fill="#0B041B"/>
<path d="M107.161 90.5703C107.078 90.467 106.97 90.386 106.847 90.3346C101.025 87.8713 94.7421 86.6858 88.4226 86.858C87.3128 86.858 86.203 86.9856 85.0933 87.0936C85.0933 87.3785 85.0933 87.6633 85.0933 87.9481C85.0987 88.0167 85.0987 88.0857 85.0933 88.1543C88.9223 87.7537 92.7899 87.9359 96.5643 88.6945C99.8243 89.3436 102.989 90.4029 105.983 91.8471C106.194 91.9495 106.437 91.9647 106.659 91.8893C106.882 91.814 107.066 91.6542 107.171 91.4444C107.171 91.1498 107.171 90.865 107.171 90.5703" fill="#0B041B"/>
<path d="M127.049 73.3932L126.273 73.5208C124.566 76.0164 122.375 78.1437 119.831 79.7769C119.802 79.8005 119.776 79.8268 119.752 79.8555C119.772 80.235 119.772 80.6152 119.752 80.9947C119.861 81.0768 119.994 81.1212 120.13 81.1212C120.266 81.1212 120.399 81.0768 120.508 80.9947C121.222 80.5551 121.914 80.0798 122.58 79.5706C124.825 77.8128 126.74 75.6715 128.237 73.2458C127.815 73.295 127.383 73.295 127.01 73.3539" fill="#0B041B"/>
<path d="M131.017 60.2819L132.352 60.2328H132.608C133.127 53.1251 131.963 45.9951 129.21 39.4219C126.834 33.3599 123.52 27.7093 119.389 22.6769C115.289 17.6921 110.595 13.2265 105.413 9.37908C100.25 5.36527 94.4415 2.25997 88.236 0.196334C87.411 -0.0590152 87.1262 1.17844 87.9021 1.47307L90.1217 2.31769C96.0011 4.53168 101.539 7.56351 106.572 11.3237C111.617 15.16 116.034 19.7591 119.664 24.9554C123.359 30.1916 126.307 35.9165 128.424 41.9655C130.587 47.8157 131.471 54.0613 131.017 60.2819Z" fill="#0B041B"/>
<path d="M129.21 60.3606H130.447C130.452 60.3446 130.452 60.3275 130.447 60.3115C130.937 52.8698 129.679 45.4168 126.774 38.5479C124.47 32.8104 121.318 27.4507 117.425 22.6475C113.548 17.8222 108.958 13.6163 103.813 10.1747C101.248 8.47267 98.5702 6.94689 95.7985 5.60789C94.4039 4.94005 92.9799 4.32132 91.546 3.74188C90.134 3.12298 88.6917 2.57558 87.2247 2.10175C86.5078 1.88569 86.2426 3.00529 86.9301 3.23117C87.6175 3.45706 88.3443 3.73205 89.0711 3.90883C91.9736 4.71557 94.7646 5.88012 97.3797 7.37569C100.051 8.8 102.6 10.4424 105.001 12.2862C109.822 15.9106 114.118 20.1839 117.768 24.9849C121.381 29.7663 124.255 35.0634 126.293 40.6987C128.697 46.9731 129.703 53.6967 129.239 60.3999" fill="#0B041B"/>
<path d="M124.771 73.727C123.429 75.8619 121.774 77.7822 119.86 79.4233C119.806 79.4695 119.763 79.5263 119.732 79.5902C119.732 79.7474 119.732 79.9045 119.732 80.0616C119.776 80.1354 119.834 80.1988 119.904 80.2477C119.974 80.2965 120.054 80.3296 120.138 80.3445C120.222 80.3595 120.308 80.356 120.391 80.3342C120.474 80.3125 120.55 80.2731 120.616 80.2188C121.265 79.6884 121.883 79.1188 122.473 78.5295C123.945 77.0059 125.225 75.3073 126.283 73.4717L124.731 73.727" fill="#0B041B"/>
<path d="M109.98 80.16C108.609 79.9646 107.281 79.5396 106.051 78.9029C104.698 78.2377 103.497 77.299 102.525 76.1461C101.553 74.9932 100.831 73.6512 100.404 72.2049C100.36 72.053 100.258 71.9244 100.121 71.8462C99.9833 71.768 99.8207 71.7464 99.6675 71.786C99.5144 71.8255 99.3826 71.9232 99.3002 72.0582C99.2177 72.1932 99.1911 72.355 99.2258 72.5093C99.7437 74.3128 100.691 75.9639 101.986 77.3217C103.978 79.3986 106.577 80.7911 109.41 81.2992C109.597 80.9064 109.793 80.5332 110 80.16" fill="#0B041B"/>
<path d="M109.312 81.4465C107.37 81.0545 105.525 80.2836 103.881 79.1778C102.251 78.0582 99.9527 76.4279 100.218 74.2084C100.231 74.1275 100.227 74.0448 100.208 73.9653C100.188 73.8858 100.152 73.8111 100.103 73.7457C100.054 73.6803 99.992 73.6254 99.9211 73.5845C99.8501 73.5435 99.7717 73.5173 99.6904 73.5074C99.6091 73.4975 99.5266 73.5041 99.4479 73.5268C99.3692 73.5495 99.2959 73.5878 99.2324 73.6395C99.1688 73.6912 99.1164 73.7552 99.0782 73.8276C99.0399 73.9 99.0167 73.9794 99.0099 74.061C98.7447 76.2315 100.287 77.9895 101.956 79.2662C104.014 80.8097 106.383 81.8856 108.9 82.4188C109.037 82.0849 109.185 81.7608 109.332 81.4367" fill="#0B041B"/>
<path d="M93.5393 80.4841C93.9875 80.768 94.4054 81.0971 94.7865 81.4662C95.2285 81.8001 95.6901 82.1144 96.1615 82.4483C97.0667 83.0343 98.0082 83.5625 98.9802 84.0295C100.945 84.9762 103.015 85.685 105.148 86.141C105.442 86.1999 105.393 86.7106 105.079 86.6812C102.822 86.4761 100.609 85.9262 98.5186 85.0509C97.4664 84.5953 96.4488 84.0635 95.474 83.4599C95.0026 83.1652 94.5508 82.8509 94.0991 82.4777C93.5843 82.1679 93.1232 81.7765 92.7339 81.3189C92.3706 80.7983 93.0678 80.3367 93.5393 80.5135" fill="#0B041B"/>
<path d="M153.773 95.196C152.405 92.7565 150.581 90.6026 148.4 88.8516C148.4 89.1462 148.4 89.4506 148.4 89.7551C150.385 91.3436 152.092 93.2522 153.448 95.4022C153.462 95.4261 153.48 95.4471 153.502 95.4639C153.523 95.4808 153.548 95.4932 153.575 95.5005C153.601 95.5078 153.629 95.5098 153.656 95.5064C153.683 95.5031 153.709 95.4944 153.733 95.4808C153.757 95.4673 153.778 95.4492 153.795 95.4275C153.812 95.4059 153.824 95.3811 153.832 95.3547C153.839 95.3282 153.841 95.3006 153.837 95.2734C153.834 95.2462 153.825 95.2199 153.812 95.196" fill="#0B041B"/>
<path d="M143.647 85.6107C138.359 82.6279 132.438 80.9447 126.371 80.7001C124.172 80.6214 121.97 80.7397 119.791 81.0537C119.791 81.5448 119.791 82.0358 119.673 82.517C125.689 81.5136 131.858 82.0095 137.636 83.9607C139.724 84.6692 141.747 85.553 143.686 86.6026C143.686 86.2589 143.686 85.9151 143.686 85.5714" fill="#0B041B"/>
<path d="M153.743 95.2942C152.574 92.7319 150.73 90.5356 148.41 88.9399C148.41 89.1953 148.41 89.4408 148.361 89.6863C148.812 90.1163 149.241 90.5686 149.647 91.0417C152.616 94.4008 154.187 98.7687 154.037 103.249C153.786 108.027 151.832 112.557 148.528 116.017C147.987 116.586 148.842 117.451 149.392 116.881C151.389 114.791 152.96 112.333 154.018 109.643C154.931 107.351 155.378 104.899 155.333 102.432C155.287 99.9648 154.75 97.5315 153.752 95.2746" fill="#0B041B"/>
<path d="M143.627 85.0608C143.627 84.7956 143.627 84.5206 143.627 84.226C137.872 81.5252 131.292 80.769 124.898 80.8574C124.84 80.8689 124.788 80.9002 124.751 80.9458C124.713 80.9915 124.693 81.0487 124.693 81.1078C124.693 81.1669 124.713 81.2241 124.751 81.2698C124.788 81.3154 124.84 81.3467 124.898 81.3582C129.999 81.4253 135.062 82.2427 139.925 83.7841C141.202 84.2208 142.446 84.7492 143.647 85.3653C143.647 85.2671 143.647 85.1688 143.647 85.0608" fill="#0B041B"/>
<path d="M156.002 97.5924C154.828 93.888 152.624 90.594 149.648 88.0954C149.225 87.732 148.783 87.3981 148.341 87.0642C148.341 87.2999 148.341 87.5454 148.341 87.7811C148.341 88.0169 148.341 88.2526 148.341 88.4883C151.924 91.3053 154.366 95.3243 155.216 99.8022C156.031 104.565 154.696 109.427 153.252 113.935C152.79 115.408 152.27 116.881 151.857 118.344L152.839 116.803C153.35 116.007 153.821 115.162 154.421 114.387C154.725 113.404 155.02 112.422 155.295 111.499C156.562 107.001 157.259 102.159 155.923 97.5924" fill="#0B041B"/>
<path d="M63.6834 89.2151C64.6267 88.1275 65.9527 87.4452 67.3859 87.3098C67.5136 87.3098 67.5038 87.4669 67.3859 87.5062C66.7152 87.7484 66.1052 88.1339 65.5985 88.6357C65.1661 89.1312 64.8027 89.6829 64.5182 90.2758C63.8293 91.4624 63.553 92.8439 63.7325 94.2042C64.145 97.239 66.4038 99.6451 68.8689 101.266C71.6781 102.985 74.6364 104.447 77.7079 105.636C80.7656 106.945 83.8658 108.127 87.0085 109.181C99.6853 113.537 112.907 116.106 126.293 116.812C130.015 116.999 133.747 117.048 137.479 116.93C141.211 116.812 145.051 116.42 148.842 115.948C149.569 115.87 149.569 117.019 148.842 117.097C145.356 117.47 141.83 117.628 138.324 117.765C134.818 117.903 131.292 117.932 127.776 117.814C120.834 117.603 113.915 116.897 107.073 115.703C100.141 114.484 93.3114 112.737 86.6451 110.478C83.3944 109.378 80.1828 108.15 77.0106 106.824C73.7857 105.611 70.6844 104.092 67.7493 102.287C64.803 100.323 62.2986 97.3077 62.1906 93.6346C62.1053 92.0473 62.6011 90.4832 63.5852 89.2348" fill="#0B041B"/>
<path d="M66.6297 123.157C68.7904 124.434 70.8823 125.789 73.1411 126.899C75.358 127.95 77.63 128.881 79.9472 129.688C84.8529 131.404 89.8418 132.872 94.8949 134.088C105.123 136.581 115.563 138.107 126.077 138.645C129.023 138.795 131.97 138.861 134.916 138.841C137.862 138.841 140.809 138.625 143.755 138.448C144.678 138.389 144.678 139.843 143.755 139.882C141.093 140.01 138.432 139.98 135.78 140C133.129 140.02 130.457 140 127.796 139.872C122.502 139.676 117.218 139.214 111.964 138.527C101.429 137.147 91.0434 134.8 80.9391 131.515C78.2776 130.65 75.6652 129.678 73.0822 128.568C70.4266 127.511 67.9362 126.079 65.6869 124.316C65.0485 123.776 65.8637 122.744 66.561 123.157" fill="#0B041B"/>
<path d="M143.411 138.92C144.197 135.139 145.169 131.397 145.955 127.606C146.741 123.815 147.31 119.965 148.351 116.253C148.407 116.115 148.51 116.003 148.642 115.937C148.774 115.87 148.926 115.854 149.069 115.891C149.213 115.929 149.337 116.017 149.42 116.139C149.503 116.262 149.539 116.41 149.52 116.557C148.95 120.377 147.909 124.129 147.084 127.9C146.259 131.672 145.631 135.502 144.806 139.283C144.609 140.196 143.225 139.823 143.411 138.92Z" fill="#0B041B"/>
<path d="M149.206 129.481L149.972 126.064C150.463 123.874 151.042 121.693 151.612 119.513C152.181 117.333 152.761 115.162 153.399 113.011C154.038 110.861 154.872 108.592 155.56 106.372C155.59 106.288 155.652 106.219 155.732 106.178C155.812 106.137 155.904 106.129 155.991 106.154C156.077 106.179 156.15 106.235 156.196 106.312C156.242 106.39 156.257 106.481 156.237 106.569C155.756 108.769 155.393 110.998 154.912 113.208C154.43 115.418 153.821 117.657 153.252 119.876C152.682 122.096 152.132 124.227 151.484 126.388L150.502 129.619C150.168 130.719 149.922 131.878 149.52 132.958C149.323 133.498 148.361 133.449 148.459 132.791C148.626 131.681 148.96 130.581 149.206 129.481Z" fill="#0B041B"/>
<path d="M143.686 138.537C144.643 137.655 145.533 136.703 146.347 135.689C146.731 135.207 147.074 134.706 147.438 134.206C147.801 133.705 148.263 133.165 148.646 132.615C148.705 132.527 148.793 132.463 148.895 132.433C148.996 132.403 149.104 132.409 149.202 132.449C149.3 132.489 149.381 132.562 149.431 132.654C149.482 132.747 149.499 132.854 149.48 132.958C149.246 133.601 148.97 134.227 148.655 134.834C148.302 135.41 147.918 135.968 147.506 136.504C146.666 137.603 145.733 138.628 144.717 139.568C144.58 139.64 144.423 139.667 144.269 139.644C144.116 139.621 143.974 139.549 143.864 139.439C143.754 139.329 143.682 139.187 143.659 139.034C143.636 138.88 143.663 138.723 143.735 138.586" fill="#0B041B"/>
<path d="M143.833 89.4703C140.282 87.0417 136.277 85.355 132.058 84.5112C127.839 83.6674 123.493 83.6839 119.281 84.5598C119.212 84.9821 119.124 85.4044 119.035 85.8365L119.86 85.6401C124.029 84.815 128.325 84.8765 132.469 85.8207C136.613 86.7648 140.512 88.5705 143.912 91.1203C143.912 90.5703 143.853 90.0105 143.814 89.4507" fill="#0B041B"/>
<path d="M152.338 99.7629C151.307 97.1624 149.76 94.7973 147.791 92.8096C147.644 93.3006 147.487 93.7917 147.31 94.2729C149.198 96.3093 150.64 98.7178 151.543 101.344C152.894 105.373 152.677 109.764 150.934 113.64C150.913 113.701 150.914 113.767 150.937 113.827C150.96 113.887 151.003 113.937 151.059 113.969C151.115 114 151.181 114.011 151.244 114C151.307 113.988 151.364 113.955 151.405 113.905C154.077 109.692 154.106 104.33 152.388 99.7629" fill="#0B041B"/>
<path d="M113.879 64.7505C113.82 65.3791 113.722 65.9978 113.614 66.6263C114.112 66.9966 114.566 67.4216 114.969 67.8933C115.302 66.3902 115.515 64.8632 115.607 63.3264C116.324 51.1581 112.239 38.5772 105.089 28.7758C98.2899 19.5274 88.7509 12.6549 77.8257 9.13353C77.4034 8.99603 77.2462 9.63441 77.6489 9.78172C83.4944 11.9068 88.9471 14.9866 93.785 18.8957C102.735 26.1173 109.173 35.9826 112.18 47.0823C113.807 52.8244 114.383 58.8134 113.879 64.7603" fill="#0B041B"/>
<path d="M112.602 72.7548L112.032 71.9004C110.794 74.8093 108.719 77.2843 106.071 79.0109C105.909 79.1136 105.793 79.2746 105.747 79.4605C105.7 79.6465 105.727 79.8432 105.822 80.0098C105.917 80.1764 106.072 80.3003 106.255 80.3557C106.439 80.411 106.637 80.3937 106.808 80.3073C109.536 78.7178 111.717 76.3376 113.064 73.4816C112.916 73.2361 112.759 73.0004 112.602 72.7548Z" fill="#0B041B"/>
<path d="M116.806 72.7842L118.023 72.0672C115.48 67.0192 110.923 62.9238 105.256 61.814C103.523 61.476 101.756 61.3474 99.9919 61.431C99.8942 61.5237 99.7711 61.5853 99.6383 61.6077C99.5015 61.6333 99.3669 61.6694 99.2357 61.7158L99.0785 61.7943L98.725 62.0202L98.5973 62.1282C98.4049 62.3025 98.2244 62.4896 98.0571 62.6881C101.29 62.2003 104.594 62.6185 107.603 63.8961C111.599 65.6995 114.854 68.8197 116.825 72.7351" fill="#0B041B"/>
<path d="M119.575 76.2217L119.33 76.5065C119.055 76.8208 118.789 77.135 118.524 77.4886C119.287 80.8068 119.264 84.2575 118.456 87.5651C117.66 90.6003 116.282 93.4521 114.399 95.9621C114.458 96.5317 114.537 97.1014 114.557 97.671C114.714 97.6353 114.853 97.5448 114.949 97.4156C115.478 96.6854 115.964 95.9245 116.403 95.1371C119.516 89.5391 121.176 82.5759 119.575 76.2511" fill="#0B041B"/>
<path d="M114.272 74.6307C113.557 72.9399 112.561 71.3825 111.325 70.0246C109.485 68.0178 107.142 66.5394 104.539 65.7426C101.98 64.8776 99.2144 64.8398 96.633 65.6345C96.5444 65.658 96.4688 65.7156 96.4228 65.7948C96.3767 65.874 96.364 65.9683 96.3875 66.0568C96.4109 66.1454 96.4686 66.221 96.5478 66.267C96.627 66.3131 96.7212 66.3258 96.8098 66.3024C98.2363 65.9561 99.7031 65.8042 101.17 65.8506C102.646 65.9545 104.094 66.3064 105.452 66.8916C107.289 67.7244 108.938 68.9216 110.299 70.4106C111.66 71.8996 112.704 73.6493 113.368 75.5538C113.643 75.2248 113.942 74.9163 114.262 74.6307" fill="#0B041B"/>
<path d="M115.588 81.4759L115.332 82.0652C115.362 82.1844 115.362 82.3093 115.332 82.4285C114.94 84.0883 114.458 85.7284 113.967 87.3391C114.036 88.0069 114.085 88.6846 114.115 89.3622C114.581 88.1675 114.959 86.9397 115.244 85.6891C115.597 84.2365 115.762 82.7446 115.735 81.25C115.695 81.3167 115.659 81.3855 115.627 81.4563" fill="#0B041B"/>
<path d="M114.419 74.5029C114.731 74.2191 115.059 73.9535 115.401 73.7074C114.727 72.4654 113.902 71.311 112.946 70.27C110.15 67.5505 106.55 65.8073 102.683 65.3005C102.811 65.3595 105.944 66.2827 106.071 66.3318C109.674 68.0635 112.605 70.9357 114.41 74.5029" fill="#0B041B"/>
<path d="M117.297 78.9323C116.973 79.3448 116.639 79.7474 116.315 80.1697C116.769 82.883 116.618 85.6633 115.873 88.3115C115.487 89.6638 114.929 90.961 114.213 92.1712C114.213 92.3676 114.213 92.5738 114.213 92.7702C114.213 93.114 114.213 93.4479 114.213 93.7524C115.464 91.8206 116.408 89.707 117.012 87.4865C117.75 84.681 117.824 81.7419 117.228 78.9028" fill="#0B041B"/>
<path d="M91.3395 68.1879C93.8486 66.2462 96.9476 65.2236 100.12 65.2907C100.175 65.302 100.225 65.3321 100.261 65.3759C100.297 65.4198 100.316 65.4747 100.316 65.5313C100.316 65.5879 100.297 65.6428 100.261 65.6867C100.225 65.7306 100.175 65.7607 100.12 65.7719C94.8063 66.2237 89.994 70.0147 87.6173 74.6797C86.38 77.2864 85.6773 80.1146 85.5508 82.9973C85.4243 85.88 85.8765 88.7589 86.8807 91.464C87.7954 94.3413 89.6668 96.8191 92.1841 98.4861C92.7635 98.8396 92.243 99.7628 91.6537 99.4093C86.5369 96.2861 84.7102 89.9122 84.5433 84.2455C84.3567 78.2349 86.4289 71.9298 91.3395 68.1879Z" fill="#0B041B"/>
<path d="M101.455 65.2024C99.847 64.9743 98.2099 65.0577 96.6331 65.4479C94.9903 65.7756 93.3984 66.3206 91.8993 67.0684C88.8657 68.5601 86.2628 70.8013 84.3371 73.5798C82.4711 76.3504 81.3546 79.5572 81.0964 82.8876C80.8382 86.218 81.4472 89.5585 82.8639 92.5836C84.4436 95.9036 86.9114 98.7216 89.994 100.725C90.6422 101.138 91.2315 100.107 90.5931 99.6843C88.002 97.9615 85.8845 95.6161 84.4345 92.8631C82.9844 90.11 82.2482 87.0372 82.2931 83.9259C82.3381 80.8147 83.1628 77.7644 84.6918 75.0544C86.2207 72.3443 88.4051 70.0611 91.0449 68.4139C92.5812 67.5009 94.2327 66.7974 95.9555 66.322C96.7932 66.0859 97.6465 65.9086 98.509 65.7916C99.4911 65.6541 100.473 65.6738 101.455 65.5559C101.642 65.5559 101.72 65.2417 101.504 65.2024" fill="#0B041B"/>
<path d="M105.433 62.5899C104.449 62.227 103.442 61.9317 102.418 61.706C101.444 61.5337 100.46 61.4287 99.4714 61.3918C97.41 61.3401 95.3538 61.622 93.3823 62.2266C89.5073 63.4057 86.0292 65.6237 83.3255 68.6397C80.5733 71.7172 78.755 75.5151 78.0836 79.5887C77.4122 83.6623 77.9155 87.8429 79.5345 91.6408C80.4892 93.8198 81.9113 95.7622 83.7001 97.3304C85.489 98.8986 87.6008 100.054 89.886 100.716C90.0419 100.74 90.2011 100.705 90.333 100.619C90.465 100.532 90.5603 100.4 90.6005 100.248C90.6408 100.095 90.6232 99.9331 90.5511 99.7928C90.479 99.6525 90.3575 99.5439 90.2101 99.4879C82.2845 97.2388 78.3658 88.4195 79.2596 80.7099C79.7027 76.9843 81.1261 73.4429 83.3844 70.4468C85.6907 67.4207 88.8624 65.167 92.4788 63.9845C94.5147 63.3186 96.6266 62.9127 98.7643 62.7765C99.8399 62.698 100.92 62.698 101.995 62.7765C103.106 62.822 104.21 62.9666 105.295 63.2087C105.365 63.2191 105.437 63.203 105.495 63.1637C105.554 63.1244 105.596 63.0646 105.613 62.996C105.631 62.9274 105.622 62.8549 105.588 62.7925C105.555 62.7301 105.499 62.6825 105.433 62.6587" fill="#0B041B"/>
<path d="M147.919 81.9671C145.758 75.7995 140.651 70.4666 134.081 69.1997C133.503 69.0851 132.92 68.9999 132.333 68.9443C132.306 68.9827 132.277 69.0188 132.245 69.0524L132.019 69.2979L131.479 69.8381L131.302 69.9952C133.055 70.1563 134.772 70.5939 136.389 71.2916C139.113 72.549 141.513 74.4137 143.404 76.7426C145.296 79.0716 146.628 81.8028 147.3 84.7269C148.106 88.0773 148.106 91.5708 147.3 94.9212C146.406 98.2793 144.821 101.414 142.645 104.124C142.144 104.782 143.293 105.449 143.794 104.772C144.309 104.032 144.778 103.261 145.199 102.464C148.587 96.3845 150.276 88.7142 147.919 81.9671Z" fill="#0B041B"/>
<path d="M125.448 72.9904C128.014 72.2042 130.762 72.242 133.305 73.0985C135.914 73.8889 138.262 75.3681 140.101 77.3805C141.961 79.4971 143.288 82.0276 143.971 84.761C144.655 87.4944 144.675 90.3515 144.03 93.0942C143.281 96.3537 141.951 99.4511 140.101 102.238C139.669 102.866 138.638 102.238 139.119 101.658C140.856 99.4545 142.114 96.9122 142.812 94.1942C143.464 91.5421 143.565 88.7843 143.107 86.0918C142.184 81.0437 139.119 76.2707 134.268 74.3064C132.912 73.7212 131.468 73.3693 129.996 73.2654C128.525 73.2156 127.055 73.3643 125.625 73.7074C125.544 73.7147 125.462 73.6928 125.396 73.6456C125.329 73.5983 125.281 73.5288 125.261 73.4496C125.241 73.3703 125.25 73.2865 125.286 73.2131C125.322 73.1398 125.383 73.0817 125.458 73.0493" fill="#0B041B"/>
<path d="M134.877 73.6779C134.759 73.6779 131.626 72.6958 131.498 72.6958C135.363 73.2107 138.96 74.9527 141.761 77.6653C143.825 79.9742 145.282 82.7604 146 85.7729C146.719 88.7853 146.676 91.9292 145.876 94.921C144.964 98.3375 143.231 101.48 140.828 104.074C140.347 104.585 139.561 103.799 140.062 103.308C142.254 101.236 143.851 98.6145 144.688 95.7165C145.874 91.4812 145.541 86.9644 143.748 82.9485C141.954 78.9325 138.812 75.6704 134.867 73.727" fill="#0B041B"/>
<path d="M120.145 75.544C122.653 73.6009 125.753 72.5781 128.925 72.6468C128.981 72.6581 129.031 72.6882 129.066 72.732C129.102 72.7759 129.122 72.8308 129.122 72.8874C129.122 72.944 129.102 72.9989 129.066 73.0428C129.031 73.0867 128.981 73.1168 128.925 73.128C123.602 73.5798 118.8 77.3708 116.413 82.0358C115.177 84.6432 114.476 87.4717 114.352 90.3544C114.227 93.2371 114.681 96.1156 115.686 98.8201C116.598 101.696 118.466 104.174 120.98 105.842C121.569 106.196 121.039 107.119 120.459 106.765C115.343 103.642 113.516 97.2683 113.339 91.6015C113.162 85.591 115.234 79.2859 120.145 75.544Z" fill="#0B041B"/>
<path d="M130.261 72.5583C128.652 72.3303 127.015 72.4136 125.439 72.8039C123.792 73.1299 122.197 73.675 120.695 74.4244C117.664 75.916 115.064 78.1574 113.143 80.9357C111.283 83.7033 110.169 86.9041 109.909 90.2282C109.65 93.5524 110.252 96.8873 111.66 99.9101C113.243 103.228 115.715 106.042 118.799 108.042C119.448 108.464 120.037 107.423 119.389 107.001C116.8 105.277 114.685 102.931 113.238 100.179C111.79 97.4263 111.055 94.3546 111.101 91.2449C111.147 88.1352 111.972 85.0866 113.5 82.378C115.029 79.6694 117.212 77.3873 119.85 75.7404C121.384 74.8229 123.036 74.1191 124.761 73.6485C125.599 73.4124 126.452 73.2352 127.314 73.1181C128.296 72.9807 129.279 73.0003 130.261 72.8824C130.447 72.8824 130.526 72.5682 130.261 72.5289" fill="#0B041B"/>
<path d="M127.678 69.4648L127.275 69.0916L127.167 69.013C127.167 69.013 126.921 68.8755 127.03 68.9246C126.972 68.9014 126.919 68.8681 126.872 68.8264C125.276 68.9079 123.697 69.1849 122.168 69.6514C118.293 70.8255 114.815 73.0404 112.111 76.0548C109.358 79.1318 107.539 82.9292 106.866 87.0026C106.193 91.0759 106.694 95.2568 108.31 99.0558C109.276 101.224 110.705 103.155 112.497 104.713C114.289 106.27 116.4 107.417 118.682 108.072C118.837 108.096 118.997 108.061 119.129 107.975C119.261 107.888 119.356 107.756 119.396 107.604C119.436 107.451 119.419 107.289 119.347 107.149C119.275 107.009 119.153 106.9 119.006 106.844C111.08 104.585 107.161 95.7756 108.055 88.066C108.502 84.3212 109.935 80.7624 112.209 77.7538C114.519 74.7336 117.69 72.4839 121.304 71.3013C123.337 70.6361 125.445 70.227 127.58 70.0835H128.336L127.697 69.4451" fill="#0B041B"/>
<path d="M134.238 69.9559C133.492 69.7103 132.775 69.4451 132.028 69.2585L131.488 69.7987L131.154 70.0933C132.147 70.1379 133.133 70.2726 134.101 70.496C134.173 70.513 134.249 70.5013 134.312 70.4633C134.376 70.4253 134.422 70.364 134.441 70.2925C134.46 70.221 134.451 70.1448 134.415 70.0801C134.379 70.0154 134.319 69.9673 134.248 69.946" fill="#0B041B"/>
<path d="M129.789 70.5648C126.609 68.7271 123.859 66.2288 121.726 63.2383C121.451 62.8749 120.803 63.366 121.078 63.7293C122.223 65.2242 123.509 66.6055 124.918 67.8542C126.332 69.1113 127.864 70.1916 129.367 71.3014C129.799 71.6157 130.28 70.8202 129.789 70.5648Z" fill="#0B041B"/>
<path d="M137.341 63.5132C137.015 63.7907 136.706 64.0893 136.418 64.4069L135.436 65.281C134.768 65.8801 134.1 66.489 133.413 67.0782C132.103 68.2437 130.771 69.4157 129.416 70.5942C128.925 71.0263 129.642 71.7531 130.123 71.3111C131.419 70.1326 132.696 68.9442 133.983 67.7461C134.601 67.1666 135.23 66.597 135.858 66.0274L136.841 65.1435C137.017 64.9863 137.184 64.8194 137.371 64.6721C137.565 64.5545 137.746 64.4162 137.911 64.2596C138.216 63.8765 137.823 63.1989 137.341 63.5132Z" fill="#0B041B"/>
<path d="M125.203 60.0169C125.065 59.8401 124.712 59.8597 124.672 60.1151C124.672 60.1838 124.545 60.2624 124.496 60.3017C124.434 60.3712 124.365 60.4338 124.289 60.4883L123.857 60.8222L122.973 61.49C122.374 61.9418 121.795 62.4721 121.215 62.8944C121.137 62.9766 121.094 63.0856 121.094 63.1989C121.094 63.3122 121.137 63.4212 121.215 63.5033C121.296 63.5808 121.403 63.624 121.515 63.624C121.627 63.624 121.734 63.5808 121.814 63.5033C122.364 63.0025 122.905 62.5212 123.425 61.9712L124.191 61.1954C124.319 61.0677 124.446 60.94 124.584 60.8222C124.645 60.755 124.71 60.6927 124.78 60.6356L124.888 60.5472C124.888 60.5472 124.996 60.4883 124.967 60.4883C125.022 60.4883 125.075 60.473 125.122 60.4443C125.168 60.4155 125.206 60.3743 125.231 60.3254C125.255 60.2765 125.265 60.2217 125.26 60.1672C125.256 60.1127 125.236 60.0606 125.203 60.0169Z" fill="#0B041B"/>
<path d="M133.629 59.8893C132.205 59.8402 130.771 59.8893 129.347 59.8893C127.923 59.8893 126.499 59.8893 125.065 59.8893C124.985 59.9029 124.913 59.9444 124.86 60.0064C124.808 60.0684 124.779 60.147 124.779 60.2281C124.779 60.3092 124.808 60.3877 124.86 60.4497C124.913 60.5117 124.985 60.5533 125.065 60.5669C126.489 60.6258 127.923 60.6553 129.347 60.6848C130.771 60.7142 132.205 60.8026 133.629 60.8026C133.731 60.7871 133.825 60.7354 133.892 60.6571C133.959 60.5787 133.996 60.4787 133.996 60.3754C133.996 60.272 133.959 60.1721 133.892 60.0937C133.825 60.0154 133.731 59.9637 133.629 59.9482" fill="#0B041B"/>
<path d="M137.715 63.2775C137.636 63.1891 137.568 63.1008 137.489 63.0222L137.047 62.5311C136.752 62.2267 136.438 61.9222 136.124 61.6374C135.486 61.0295 134.792 60.4836 134.052 60.0071C133.728 59.8009 133.344 60.2919 133.639 60.5473C134.268 61.1071 134.906 61.657 135.495 62.266C135.79 62.5606 136.075 62.8651 136.35 63.1793L136.752 63.6606C136.939 63.8864 137.077 64.1221 137.401 64.1221C137.5 64.1247 137.597 64.0929 137.676 64.0321C137.755 63.9713 137.81 63.8851 137.833 63.7882C137.855 63.6999 137.857 63.6074 137.836 63.5185C137.816 63.4296 137.774 63.347 137.715 63.2775Z" fill="#0B041B"/>
<path d="M128.65 62.8551C128.389 62.5994 128.106 62.3661 127.805 62.1578C127.521 61.9221 127.236 61.6962 126.941 61.4801L125.193 60.1347C125.133 60.0759 125.052 60.043 124.967 60.043C124.883 60.043 124.802 60.0759 124.741 60.1347C124.711 60.164 124.687 60.1991 124.67 60.2379C124.654 60.2767 124.646 60.3184 124.646 60.3605C124.646 60.4027 124.654 60.4444 124.67 60.4832C124.687 60.522 124.711 60.5571 124.741 60.5864L126.45 62.0105L127.305 62.7078C127.597 62.9603 127.905 63.1933 128.228 63.4051C128.301 63.4412 128.385 63.4508 128.464 63.4322C128.544 63.4137 128.615 63.3681 128.664 63.3032C128.714 63.2384 128.74 63.1583 128.737 63.0766C128.735 62.9949 128.704 62.9166 128.65 62.8551Z" fill="#0B041B"/>
<path d="M134.081 60.2821C134.053 60.2536 134.019 60.231 133.982 60.2155C133.945 60.2001 133.905 60.1921 133.865 60.1921C133.825 60.1921 133.785 60.2001 133.748 60.2155C133.711 60.231 133.677 60.2536 133.649 60.2821C133.256 60.7044 132.853 61.1267 132.451 61.5392L131.861 62.1481L131.557 62.4722C131.491 62.5283 131.435 62.5946 131.39 62.6686C131.338 62.7611 131.314 62.867 131.321 62.9731C131.321 63.0538 131.353 63.1313 131.41 63.1884C131.467 63.2455 131.545 63.2775 131.626 63.2775C131.804 63.2622 131.97 63.1776 132.087 63.0418C132.185 62.924 132.274 62.8061 132.372 62.6981C132.47 62.5901 132.745 62.2463 132.942 62.0302C133.315 61.5785 133.698 61.1463 134.081 60.7044C134.133 60.6466 134.162 60.5713 134.162 60.4932C134.162 60.4152 134.133 60.3399 134.081 60.2821Z" fill="#0B041B"/>
<path d="M131.567 62.7274C131.305 62.7126 131.043 62.7126 130.781 62.7274H130.025C129.514 62.7274 129.043 62.7863 128.493 62.8354C128.407 62.8354 128.325 62.8695 128.264 62.9303C128.203 62.9911 128.169 63.0735 128.169 63.1595C128.169 63.2454 128.203 63.3279 128.264 63.3886C128.325 63.4494 128.407 63.4836 128.493 63.4836C129.017 63.5229 129.537 63.5425 130.055 63.5425H130.84C131.116 63.5457 131.392 63.5293 131.665 63.4934C131.756 63.4702 131.836 63.4143 131.888 63.3365C131.941 63.2586 131.963 63.1642 131.95 63.0711C131.936 62.9781 131.891 62.8928 131.821 62.8301C131.751 62.7673 131.661 62.7309 131.567 62.7274Z" fill="#0B041B"/>
<path d="M127.412 66.1256C127.188 65.9911 126.947 65.8855 126.696 65.8113L125.939 65.5069C125.478 65.3006 125.026 65.0944 124.584 64.8685C123.659 64.4071 122.764 63.8889 121.903 63.3168C121.628 63.14 121.382 63.5721 121.647 63.7587C122.521 64.3729 123.433 64.9305 124.378 65.4283C124.849 65.6836 125.36 65.9095 125.812 66.1256C126.264 66.3815 126.755 66.5638 127.265 66.6657C127.589 66.6657 127.619 66.2729 127.412 66.1256Z" fill="#0B041B"/>
<path d="M137.126 63.3953C136.209 63.8536 135.296 64.325 134.386 64.8096L133.069 65.5069L132.411 65.8604C132.155 65.9736 131.914 66.1188 131.695 66.2926C131.643 66.3495 131.611 66.4211 131.603 66.4973C131.595 66.5734 131.611 66.6502 131.649 66.7167C131.687 66.7831 131.746 66.8358 131.815 66.8672C131.885 66.8987 131.963 66.9072 132.038 66.8916C132.289 66.8113 132.527 66.6955 132.745 66.5479L133.443 66.1551L134.739 65.4283C135.633 64.9274 136.527 64.4462 137.41 63.8962C137.443 63.8775 137.472 63.8525 137.495 63.8226C137.519 63.7928 137.536 63.7586 137.546 63.7222C137.556 63.6857 137.559 63.6476 137.554 63.61C137.549 63.5725 137.537 63.5362 137.518 63.5033C137.5 63.4705 137.475 63.4416 137.445 63.4184C137.415 63.3951 137.381 63.378 137.344 63.368C137.271 63.3477 137.192 63.3576 137.126 63.3953Z" fill="#0B041B"/>
<path d="M131.832 66.4398C130.339 66.3514 128.886 66.2532 127.363 66.2041C126.97 66.2041 126.98 66.7639 127.363 66.8032C128.846 66.9309 130.31 67.0193 131.832 67.1175C132.274 67.1175 132.274 66.4595 131.832 66.4398Z" fill="#0B041B"/>
<path d="M128.139 63.1006C128.062 63.238 128.009 63.3875 127.982 63.5426C127.933 63.6899 127.894 63.8372 127.854 63.9845C127.815 64.1318 127.707 64.5345 127.638 64.8095C127.569 65.0845 127.491 65.3595 127.412 65.6345C127.303 65.929 127.231 66.2357 127.196 66.5478C127.201 66.6193 127.229 66.6874 127.274 66.7426C127.32 66.7979 127.382 66.8374 127.451 66.8558C127.52 66.8742 127.593 66.8705 127.66 66.8452C127.728 66.8199 127.785 66.7743 127.825 66.7148C127.949 66.4251 128.038 66.1218 128.09 65.8113L128.296 64.9863C128.365 64.7113 128.434 64.4363 128.512 64.1613C128.591 63.8863 128.581 63.8569 128.62 63.7095C128.666 63.5597 128.693 63.4046 128.699 63.2479C128.695 63.1838 128.671 63.1225 128.631 63.0728C128.59 63.0231 128.535 62.9875 128.472 62.9712C128.41 62.9549 128.345 62.9586 128.285 62.9818C128.225 63.0051 128.174 63.0467 128.139 63.1006Z" fill="#0B041B"/>
<path d="M132.225 65.5362C132.166 65.2416 132.117 64.9372 132.058 64.6327C131.999 64.3282 131.95 64.0336 131.891 63.739C131.876 63.4107 131.774 63.0922 131.596 62.8158C131.563 62.7821 131.523 62.7565 131.479 62.7409C131.435 62.7253 131.388 62.7202 131.341 62.7259C131.294 62.7316 131.25 62.748 131.211 62.7738C131.171 62.7996 131.139 62.8342 131.115 62.8747C131.029 63.1964 131.029 63.5351 131.115 63.8568C131.115 64.1613 131.203 64.4657 131.243 64.7702L131.39 65.6737C131.397 66.0121 131.471 66.3457 131.606 66.6559C131.644 66.7201 131.7 66.7718 131.767 66.8046C131.834 66.8375 131.91 66.8499 131.984 66.8405C132.058 66.8311 132.128 66.8003 132.184 66.7518C132.241 66.7033 132.283 66.6392 132.303 66.5675C132.326 66.2369 132.293 65.9049 132.205 65.5854" fill="#0B041B"/>
<path d="M129.828 70.6334L128.846 68.5415C128.689 68.1978 128.522 67.8442 128.355 67.5005C128.188 67.1568 128.041 66.7836 127.844 66.4595C127.648 66.1354 127.186 66.3514 127.294 66.6854C127.428 67.0474 127.582 67.4015 127.756 67.746C127.913 68.1127 128.08 68.4761 128.257 68.8362C128.581 69.5531 128.905 70.2602 129.239 70.9772C129.426 71.3798 130.025 71.0361 129.838 70.6334" fill="#0B041B"/>
<path d="M131.626 66.3514L130.467 68.5514C130.27 68.9049 130.094 69.2585 129.907 69.6121C129.676 69.9864 129.478 70.3809 129.318 70.7906C129.289 70.8883 129.298 70.9933 129.344 71.0845C129.389 71.1756 129.468 71.246 129.563 71.2817C129.657 71.3172 129.76 71.319 129.855 71.2867C129.95 71.2545 130.031 71.1902 130.084 71.1049C130.294 70.7593 130.478 70.3981 130.634 70.0246C130.82 69.6513 131.007 69.2781 131.184 68.9049L132.235 66.6755C132.411 66.3023 131.881 65.9881 131.675 66.3514" fill="#0B041B"/>
<path d="M134.945 64.623C133.904 64.0534 132.893 63.4346 131.832 62.9141C131.805 62.8986 131.775 62.8886 131.744 62.8847C131.713 62.8808 131.682 62.883 131.652 62.8912C131.622 62.8994 131.593 62.9134 131.569 62.9325C131.544 62.9516 131.523 62.9754 131.508 63.0025C131.492 63.0296 131.482 63.0594 131.478 63.0904C131.475 63.1213 131.477 63.1528 131.485 63.1829C131.493 63.2129 131.507 63.2411 131.526 63.2658C131.545 63.2905 131.569 63.3111 131.596 63.3266C132.578 63.9944 133.56 64.5837 134.611 65.2024C134.975 65.4283 135.318 64.8391 134.945 64.623Z" fill="#0B041B"/>
<path d="M135.2 64.4363C134.847 63.1596 134.503 61.873 134.218 60.5865C134.201 60.52 134.159 60.4631 134.1 60.4281C134.041 60.3931 133.971 60.3829 133.904 60.3999C133.838 60.4168 133.781 60.4594 133.746 60.5183C133.711 60.5773 133.701 60.6477 133.717 60.7141C134.012 62.0105 134.297 63.3167 134.572 64.6426C134.66 65.0845 135.367 64.9077 135.25 64.4658" fill="#0B041B"/>
<path d="M128.09 62.8748C127.903 62.9044 127.727 62.9823 127.579 63.1007L127.157 63.356L126.244 63.8765L124.427 64.9175C124.367 64.9514 124.323 65.0077 124.304 65.074C124.286 65.1403 124.295 65.2112 124.329 65.2711C124.362 65.331 124.419 65.375 124.485 65.3934C124.551 65.4119 124.622 65.4032 124.682 65.3693L126.519 64.3872L127.432 63.8765C127.569 63.7979 127.717 63.7096 127.864 63.6408C128.042 63.5711 128.2 63.4599 128.326 63.3167C128.347 63.2754 128.358 63.2292 128.357 63.1826C128.356 63.1359 128.343 63.0903 128.32 63.05C128.296 63.0097 128.263 62.9761 128.222 62.9523C128.182 62.9285 128.137 62.9154 128.09 62.914" fill="#0B041B"/>
<path d="M124.751 60.4588C124.653 61.1855 124.554 61.8926 124.456 62.6096L124.309 63.6703C124.215 64.0289 124.178 64.4002 124.201 64.7702C124.219 64.8331 124.255 64.8894 124.304 64.9321C124.354 64.9748 124.415 65.002 124.479 65.0104C124.544 65.0187 124.61 65.0079 124.669 64.9792C124.728 64.9504 124.777 64.9051 124.81 64.8488C124.913 64.505 124.963 64.1472 124.957 63.7881C124.957 63.4247 125.016 63.0614 125.055 62.6882C125.114 61.9712 125.183 61.2444 125.242 60.5275C125.242 60.2525 124.79 60.1838 124.751 60.4588Z" fill="#0B041B"/>
<path d="M95.7 97.2389C94.0693 97.4887 92.5211 98.1215 91.1823 99.0852C89.7306 100.032 88.6407 101.44 88.0886 103.082C88.0566 103.233 88.0784 103.39 88.1505 103.527C88.2225 103.663 88.3401 103.77 88.4827 103.828C88.6253 103.887 88.784 103.893 88.9309 103.847C89.0779 103.8 89.2038 103.703 89.2868 103.573C89.6895 102.925 90.0626 102.248 90.5046 101.609C90.9251 101.021 91.4092 100.481 91.9483 99.9986C93.0564 98.9755 94.4093 98.255 95.8767 97.9067C96.3285 97.7987 96.1321 97.1603 95.7 97.229" fill="#0B041B"/>
<path d="M124.574 104.34C122.952 104.525 121.407 105.135 120.096 106.107C118.767 107.108 117.785 108.498 117.287 110.085C117.061 110.841 118.269 111.362 118.593 110.615C119.159 109.291 119.988 108.095 121.029 107.099C122.056 106.076 123.332 105.338 124.731 104.958C125.144 104.87 124.967 104.291 124.574 104.34Z" fill="#0B041B"/>
<path d="M144.835 106.264C144.474 105.742 144.048 105.266 143.568 104.85C143.081 104.445 142.546 104.099 141.977 103.819C140.758 103.218 139.364 103.075 138.049 103.416C137.332 103.632 137.42 104.801 138.226 104.762C140.406 104.644 142.812 104.929 144.383 106.628C144.609 106.873 145.071 106.539 144.855 106.264" fill="#0B041B"/>
<path d="M140.691 103.328C140.267 102.724 139.738 102.202 139.129 101.786C138.869 101.601 138.593 101.44 138.304 101.305L137.872 101.118C137.7 101.033 137.523 100.958 137.342 100.892C137.252 100.869 137.156 100.879 137.073 100.92C136.99 100.962 136.925 101.032 136.89 101.118C136.852 101.205 136.848 101.302 136.879 101.392C136.91 101.481 136.973 101.555 137.057 101.6C137.339 101.719 137.606 101.87 137.852 102.051C137.881 102.083 137.914 102.109 137.951 102.13L138.108 102.277C138.226 102.378 138.338 102.486 138.442 102.601L138.579 102.758L138.668 102.866C138.746 102.984 138.834 103.102 138.903 103.22C138.99 103.351 139.066 103.489 139.129 103.632V103.691L139.286 104.074C139.337 104.166 139.406 104.246 139.489 104.31C139.571 104.374 139.666 104.421 139.768 104.448C139.967 104.491 140.176 104.463 140.357 104.369C140.538 104.266 140.67 104.095 140.726 103.895C140.781 103.694 140.754 103.48 140.651 103.299" fill="#0B041B"/>
<path d="M118.8 113.011C118.613 113.601 118.456 114.249 118.328 114.819C118.78 113.935 119.31 113.07 119.791 112.226C121.913 108.946 125.046 105.754 129.23 105.351C124.132 104.369 120.116 108.396 118.8 113.021" fill="#0B041B"/>
<path d="M121.058 112.746C121.557 112.064 122.091 111.408 122.659 110.782C123.493 109.908 124.41 109.119 125.399 108.425C126.482 107.553 127.65 106.793 128.886 106.156C127.095 106.442 125.417 107.212 124.033 108.382C122.648 109.552 121.609 111.078 121.029 112.796" fill="#0B041B"/>
<path d="M124.515 110.763C125.743 109.731 126.833 108.504 128.139 107.581C126.613 108.212 125.338 109.331 124.515 110.763Z" fill="#0B041B"/>
<path d="M132.824 107.708L131.027 108.69C132.009 108.396 132.991 108.111 133.973 107.875C139.306 106.736 144.069 108.101 148.577 111.352C144.649 106.156 138.609 104.585 132.863 107.689" fill="#0B041B"/>
<path d="M135.22 108.857L134.729 108.975C135.191 108.975 135.711 108.975 136.143 108.975C137.882 108.975 140.258 109.309 141.673 109.486C142.905 109.591 144.107 109.924 145.218 110.468C142.488 108.248 138.53 108.239 135.22 108.877" fill="#0B041B"/>
<path d="M138.147 110.507C140.278 110.723 141.673 110.841 143.765 111.195C142.022 110.342 140.044 110.1 138.147 110.507Z" fill="#0B041B"/>
<path d="M140.288 112.196C140.851 112.231 141.415 112.231 141.977 112.196C141.418 112.099 140.847 112.099 140.288 112.196Z" fill="#0B041B"/>
<path d="M139.65 89.9026C137.101 88.2581 134.248 87.1436 131.26 86.6256C128.271 86.1076 125.209 86.1967 122.256 86.8875C127.875 86.6823 133.473 87.6627 138.687 89.7651C139.325 90.0302 140.003 90.2954 140.602 90.5704C140.288 90.3445 139.974 90.1186 139.62 89.9026" fill="#0B041B"/>
<path d="M126.715 88.0464C129.799 88.4785 132.952 89.0972 135.986 89.8338C133.127 88.375 129.912 87.7554 126.715 88.0464Z" fill="#0B041B"/>
<path d="M129.161 89.549C130.536 89.7553 132.107 90.2463 133.335 90.5311C132.056 89.838 130.615 89.499 129.161 89.549Z" fill="#0B041B"/>
<path d="M80.1141 90.089C75.5618 91.3144 71.4425 93.7874 68.2207 97.229C71.8566 94.3283 76.1162 92.3112 80.6641 91.3363C80.4484 90.9254 80.2646 90.4986 80.1141 90.0596" fill="#0B041B"/>
<path d="M98.9409 90.089C94.4447 88.8381 89.748 88.4745 85.1128 89.0185C85.2896 89.4998 85.4762 90.0006 85.6922 90.4328C89.7082 89.9783 93.7612 89.9552 97.782 90.364C98.8329 90.4819 101.102 90.9238 102.093 91.1694C101.062 90.7551 100.01 90.3945 98.9409 90.089Z" fill="#0B041B"/>
<path d="M86.0262 91.1891C86.1539 91.4542 86.2914 91.7096 86.4191 91.9649C89.4385 91.5359 92.4833 91.3095 95.533 91.2873C92.3433 90.7616 89.1018 90.6231 85.8789 90.8748L86.0262 91.1891Z" fill="#0B041B"/>
<path d="M80.8505 91.6899C77.6563 92.4397 74.6486 93.8333 72.0115 95.7853C71.6088 96.0702 71.0294 96.4434 70.7544 96.6987C71.5401 96.2764 72.3258 95.8639 73.1311 95.4711C75.752 94.1694 78.5471 93.2531 81.4299 92.7506C81.2139 92.3971 81.0076 92.0533 80.8112 91.6899" fill="#0B041B"/>
<path d="M86.6743 92.4658L87.077 93.2416C88.6778 92.9175 90.2885 92.6033 91.8893 92.2595C90.151 92.2595 88.4028 92.2595 86.6743 92.4265" fill="#0B041B"/>
<path d="M82.078 93.6738L81.7735 93.2122C81.0861 93.3693 80.4084 93.5461 79.7307 93.772C77.3232 94.6777 75.0187 95.8366 72.856 97.229C75.9686 95.9741 79.1774 94.9723 82.4512 94.2336L82.0485 93.6738" fill="#0B041B"/>
<path d="M82.805 94.8032C81.0099 95.3974 79.2819 96.1775 77.6489 97.1308C79.4757 96.5219 81.3318 95.9818 83.188 95.4416C83.0604 95.2353 82.9229 95.0291 82.805 94.8032Z" fill="#0B041B"/>
<path d="M87.3225 93.713C87.3426 93.7402 87.3591 93.7699 87.3716 93.8014L87.5877 94.2138L90.534 93.3987C89.4416 93.4347 88.3526 93.5397 87.2734 93.713" fill="#0B041B"/>
<path d="M87.8333 107.119C87.6664 107.443 87.4503 107.875 87.3423 108.101C87.8137 107.423 88.2262 106.883 88.7173 106.284C90.6781 103.718 93.1241 101.563 95.9161 99.9397C97.8865 98.6516 100.129 97.838 102.467 97.563C96.0438 97.121 90.4556 101.275 87.8333 107.08" fill="#0B041B"/>
<path d="M90.5541 105.803L89.7979 106.883C90.2398 106.422 90.7014 105.98 91.163 105.538C92.9213 103.859 94.8577 102.377 96.9378 101.118C98.2231 100.21 99.6455 99.5137 101.151 99.0557C96.8298 99.4485 92.9504 102.277 90.5541 105.803Z" fill="#0B041B"/>
<path d="M92.9502 105.695C94.1484 104.644 95.4448 103.672 96.3876 102.945C97.3206 102.19 98.3051 101.501 99.3339 100.883C96.7706 101.57 94.3448 103.829 92.9698 105.695" fill="#0B041B"/>
<path d="M95.6606 104.958C96.7704 104.084 97.8115 103.112 98.9114 102.218C97.6122 102.84 96.4932 103.783 95.6606 104.958Z" fill="#0B041B"/>
<path d="M98.2437 104.379C98.4303 104.261 98.5776 104.133 98.7544 104.025C98.5594 104.103 98.3847 104.223 98.2437 104.379Z" fill="#0B041B"/>
<path d="M115.735 114.131C107.344 112.932 99.0362 111.214 90.8584 108.985C95.0764 110.825 99.46 112.258 103.95 113.267C107.835 113.995 111.784 114.324 115.735 114.249H116.992L115.706 114.082" fill="#0B041B"/>
<path d="M96.9082 109.24C102.176 111.39 107.816 112.478 113.506 112.442C107.957 111.46 102.467 110.183 96.9082 109.24Z" fill="#0B041B"/>
<path d="M102.545 108.956C105.74 110.177 109.133 110.793 112.553 110.772C109.204 110.075 105.835 109.515 102.545 108.956Z" fill="#0B041B"/>
<path d="M108.684 108.435C109.1 108.595 109.536 108.697 109.98 108.739C109.548 108.612 109.116 108.523 108.684 108.435Z" fill="#0B041B"/>
<path d="M81.9898 105.469C79.7015 104.556 76.9221 103.249 74.3293 102.012C72.2268 101.097 70.2173 99.9825 68.3286 98.6826C72.3356 102.876 78.022 105.106 83.6299 106.196L83.9835 106.265C83.3156 106.009 82.6478 105.734 82.0192 105.469" fill="#0B041B"/>
<path d="M72.5225 99.9102C75.6307 101.809 79.0324 103.18 82.5891 103.966C79.2106 102.473 76.0875 101.108 72.5225 99.9102Z" fill="#0B041B"/>
<path d="M76.4507 99.9102C78.4538 101.077 80.6278 101.922 82.8933 102.415C80.804 101.437 78.6517 100.6 76.4507 99.9102Z" fill="#0B041B"/>
<path d="M81.1157 99.979C81.4284 100.137 81.7578 100.259 82.0978 100.342C81.7847 100.186 81.4554 100.064 81.1157 99.979Z" fill="#0B041B"/>
<path d="M122.374 115.673C129.694 116.515 137.096 116.297 144.354 115.025C137.027 115.29 129.691 115.074 122.374 115.673Z" fill="#0B041B"/>
<path d="M125.812 114.455C129.444 114.682 133.09 114.576 136.703 114.141C133.073 113.813 129.417 113.919 125.812 114.455Z" fill="#0B041B"/>
<path d="M128.562 113.021C130.433 113.194 132.319 113.145 134.179 112.874C132.307 112.707 130.422 112.756 128.562 113.021Z" fill="#0B041B"/>
<path d="M131.36 111.696C131.913 111.695 132.465 111.649 133.01 111.558C132.457 111.535 131.902 111.581 131.36 111.696Z" fill="#0B041B"/>
<path d="M113.771 81.6921L112.347 82.0457L111.61 84.501C111.993 84.3144 112.386 84.118 112.789 83.9412C113.113 83.2144 113.437 82.468 113.771 81.6921Z" fill="#0B041B"/>
<path d="M91.3394 11.5201C96.4521 15.3239 101.088 19.7292 105.148 24.6411C99.7659 18.6601 92.8617 14.1424 85.7119 10.5085C106.061 24.0028 117.689 43.4289 115.49 68.0112C115.49 68.4531 115.382 68.9147 115.323 69.3861C115.464 69.4275 115.588 69.5125 115.678 69.6289C115.768 69.7454 115.819 69.8873 115.823 70.0343C115.825 70.1324 115.805 70.2297 115.765 70.3191L115.814 70.4272C115.814 70.4272 115.814 70.4861 115.863 70.4959C116.04 70.7073 116.23 70.9074 116.432 71.095C116.717 71.3504 117.022 71.5959 117.316 71.8414L117.434 71.4387L117.375 71.8905C117.483 71.9789 117.601 72.0673 117.699 72.1655C118.239 71.9789 118.78 71.812 119.31 71.6646C119.447 70.9968 119.585 70.329 119.693 69.6513C124.604 44.2834 113.614 23.8456 91.3394 11.4907M109.224 30.0133C111.15 32.7894 112.795 35.7504 114.134 38.8523C115.44 41.3861 117.336 48.6734 117.739 51.6983C116.304 44.0112 113.396 36.6742 109.175 30.0919" fill="#0B041B"/>
<path d="M110.972 86.416C110.608 87.5847 110.255 88.7338 109.901 89.8436C110.333 89.0383 110.883 87.8794 111.522 86.5732C111.327 86.5765 111.136 86.5218 110.972 86.416Z" fill="#0B041B"/>
<path d="M121.51 74.3752C120.685 74.6797 119.88 75.0136 119.064 75.3573L119.123 75.4555C119.958 75.1707 120.813 74.8957 121.667 74.6404C121.667 74.5225 121.716 74.4047 121.736 74.2966L121.51 74.3752Z" fill="#0B041B"/>
<path d="M123.032 65.438C122.844 65.3397 122.672 65.2139 122.521 65.0648C122.393 64.931 122.289 64.7745 122.217 64.6032L122.021 64.4756C121.798 64.3444 121.635 64.1305 121.569 63.8804C121.503 63.6303 121.538 63.3642 121.667 63.1399C122.012 62.6935 122.4 62.2823 122.826 61.9122C123.123 61.5889 123.452 61.2961 123.808 61.0382C125.085 44.136 119.772 30.6418 103.94 18.8074C108.384 23.0201 112.221 27.8292 115.342 33.0971C119.892 41.049 121.901 50.2028 121.097 59.3293C120.773 63.4934 120.282 67.5692 119.654 71.6253C120.567 71.3896 121.48 71.1834 122.413 71.0164C122.777 69.1799 123.071 67.3826 123.317 65.6148C123.208 65.5834 123.103 65.5406 123.003 65.4871" fill="#0B041B"/>
<path d="M121.952 74.5422C122.934 74.2574 123.916 73.9922 124.898 73.7565C124.948 73.5896 124.997 73.4128 125.056 73.2458C124.074 73.5012 123.091 73.8155 122.06 74.169L121.972 74.5422" fill="#0B041B"/>
<path d="M117.297 92.2595L116.266 95.9227C116.786 94.5183 117.316 93.1728 117.847 91.8372L117.297 92.2595Z" fill="#0B041B"/>
<path d="M121.628 32.7829C124.79 39.1498 126.735 46.0512 127.364 53.1322C127.432 54.4286 127.452 55.9116 127.442 57.4044C127.326 53.6393 126.852 49.8937 126.028 46.2182C124.064 36.8194 118.485 28.5402 110.638 22.0386C117.003 28.7411 121.326 37.1181 123.101 46.1887C124.206 50.9896 124.61 55.9252 124.299 60.8418C124.846 60.6926 125.412 60.6231 125.979 60.6356C126.234 60.6356 126.489 60.6356 126.755 60.6356H127.256C127.835 60.4656 128.445 60.4221 129.043 60.5079C129.374 60.5466 129.702 60.6056 130.025 60.6847C130.025 60.1543 130.025 59.6338 130.025 59.1035C130.241 49.7145 126.715 40.5514 121.638 32.7829" fill="#0B041B"/>
<path d="M124.957 67.098C124.741 66.8132 124.525 66.5185 124.279 66.2534C124.134 66.0893 123.965 65.9471 123.779 65.8311C123.563 67.2453 123.307 68.6595 122.973 70.0541C122.905 70.3389 122.846 70.6238 122.777 70.9086C124.569 70.5932 126.38 70.3996 128.198 70.3291C128.198 70.2211 128.267 70.1131 128.306 70.005L127.786 69.4158C126.71 68.8212 125.751 68.0358 124.957 67.098Z" fill="#0B041B"/>
<path d="M65.2055 82.8803C61.3556 79.7769 57.7021 76.86 55.895 72.2833C52.7621 65.2023 52.2809 54.7036 53.4692 47.1904C55.237 36.7506 59.6467 27.9999 65.3037 19.0234C57.5254 28.3142 51.1318 39.4219 50.3854 51.7474C49.747 60.0954 50.9157 69.1308 56.2781 75.8484C58.9396 79.1287 62.6716 81.2697 66.0992 83.6169C65.7849 83.3714 65.4706 83.1357 65.1171 82.8803" fill="#0B041B"/>
<path d="M56.1899 78.7751C55.3911 77.2947 54.6699 75.7736 54.0293 74.2181C51.2008 67.3434 49.8455 61.3721 50.2383 54.2518C50.3857 46.0315 52.2026 38.7345 55.0016 30.5535C51.7688 36.284 49.4493 42.4835 48.1268 48.9288C48.3134 46.1396 48.6277 43.3406 49.0205 40.5317C44.7974 51.4135 44.2573 63.1203 51.2401 72.9905C51.6624 73.6387 52.1338 74.3655 52.5365 74.9547C52.0847 74.0806 51.466 72.7843 51.1713 72.0084C50.5898 70.5359 50.0947 69.0307 49.6884 67.5005C50.7825 70.3377 52.2277 73.0266 53.99 75.5047C54.7069 76.5948 55.4534 77.6948 56.1899 78.7555" fill="#0B041B"/>
<path d="M137.518 130.847L141.633 130.405C139.993 130.405 138.353 130.405 136.723 130.405C132.323 130.277 128.336 130.022 124.525 129.678C128.051 129.678 131.596 129.56 135.181 129.256C136.261 129.177 137.44 129.099 138.461 129.01C137.027 129.01 135.593 129.01 134.159 128.892C130.113 128.578 126.381 128.215 122.777 127.792C126.195 127.841 129.652 127.792 133.295 127.547C134.277 127.547 135.78 127.439 136.497 127.39C135.24 127.331 133.992 127.242 132.745 127.134C126.646 126.457 121.412 125.799 116.167 125.003C122.175 125.405 128.204 125.385 134.209 124.944C135.348 124.875 136.546 124.797 137.646 124.708C136.408 124.708 135.161 124.64 133.924 124.571C128.257 124.217 123.317 123.717 118.426 123.029C124.885 123.416 131.365 123.241 137.793 122.509C139.365 122.361 141.594 122.165 142.792 122.018C141.103 122.018 139.414 122.018 137.725 122.018C130.584 122.002 123.457 121.378 116.423 120.151C123.147 120.577 129.895 120.433 136.595 119.719C138.284 119.572 140.7 119.415 141.967 119.297C139.924 119.248 137.891 119.179 135.849 119.071C121.134 118.641 106.53 116.388 92.3706 112.363C83.7008 110.258 75.2295 107.406 67.0518 103.839C73.9927 108.334 81.4949 111.897 89.3653 114.436C83.895 113.012 78.4737 111.43 73.1212 109.623C80.9501 113.706 89.1775 116.974 97.674 119.376C89.9742 117.942 82.3923 115.987 74.8203 114.003C80.5141 116.53 86.3552 118.711 92.3117 120.535C87.0181 119.444 81.7343 118.276 76.539 116.744C80.6111 118.676 84.7846 120.387 89.0412 121.87C82.1665 120.525 75.2917 119.11 68.5838 117.087C74.8498 119.836 81.2822 122.187 87.8431 124.129C82.3236 123.088 76.8205 121.981 71.3338 120.81C77.9237 123.019 84.3467 125.72 91.0742 127.488L92.3313 127.822C86.6482 126.748 80.9683 125.602 75.2917 124.384C81.8424 126.702 88.4029 129.089 95.1009 130.945C89.7189 129.963 84.2976 128.981 79.0826 127.508C95.7785 135.011 114.439 138.988 132.735 137.417L135.426 137.132C134.258 137.132 133.079 137.063 131.91 136.985C126.544 136.538 121.208 135.774 115.931 134.697C123.073 135.49 130.29 135.302 137.381 134.137C138.363 133.989 139.502 133.813 140.484 133.646C139.05 133.764 137.607 133.832 136.173 133.852C127.491 133.901 121.225 132.713 112.975 131.377C121.157 132.052 129.387 131.861 137.528 130.807" fill="#0B041B"/>
<path d="M119.86 105.94C119.772 105.597 119.448 105.4 119.232 105.145C115.47 101.315 112.838 97.1013 112.2 91.3953C111.955 96.0139 113.327 100.574 116.079 104.29C117.061 105.43 118.092 106.893 119.025 107.04C119.157 107.039 119.287 107.007 119.405 106.948C119.523 106.888 119.626 106.803 119.705 106.698C119.785 106.592 119.84 106.47 119.865 106.341C119.89 106.211 119.885 106.078 119.85 105.95" fill="#0B041B"/>
<path d="M119.438 75.3574C118.456 75.5146 117.316 77.1645 116.334 78.3725C113.631 81.786 112.154 86.0096 112.141 90.3641C112.754 86.3407 114.584 82.6015 117.385 79.6492C117.382 79.6885 117.382 79.7279 117.385 79.7671C117.868 82.6937 117.868 85.6796 117.385 88.6061C118.49 85.7993 118.852 82.7548 118.436 79.7671C118.423 79.4323 118.306 79.1097 118.102 78.8439C118.691 78.2154 119.3 77.5868 119.939 76.9583C120.084 76.8462 120.191 76.692 120.246 76.5168C120.301 76.3416 120.3 76.1537 120.244 75.9788C120.189 75.8039 120.08 75.6505 119.934 75.5393C119.788 75.4281 119.611 75.3646 119.428 75.3574" fill="#0B041B"/>
<path d="M91.1823 98.8593C90.9859 98.3486 90.4065 98.1228 90.0627 97.7201C86.287 94.0456 83.932 89.1546 83.4138 83.9116C83.1652 88.6498 84.6332 93.3187 87.5485 97.0621C88.2348 98.0004 89.0366 98.8484 89.935 99.5861C90.073 99.7243 90.2603 99.802 90.4556 99.8022C90.5739 99.8009 90.6904 99.7722 90.7958 99.7184C90.9013 99.6645 90.9928 99.587 91.0632 99.4919C91.1336 99.3967 91.181 99.2865 91.2017 99.17C91.2223 99.0534 91.2157 98.9336 91.1823 98.8201" fill="#0B041B"/>
<path d="M92.2531 68.0898C91.4183 66.8524 89.7094 68.8362 88.6684 69.6612C85.3315 73.0047 83.417 77.5093 83.3257 82.2322C84.2405 77.57 86.7942 73.3893 90.5246 70.4469C91.5067 69.4648 92.7147 69.2782 92.2433 68.1291" fill="#0B041B"/>
<path d="M139.728 101.727C139.581 101.963 139.542 101.727 139.443 102.375C139.445 102.504 139.476 102.63 139.534 102.745C139.592 102.859 139.675 102.959 139.777 103.037C139.879 103.114 139.998 103.168 140.124 103.193C140.25 103.218 140.38 103.213 140.504 103.181C140.975 103.023 141.25 102.572 141.555 102.198C141.966 101.638 142.34 101.05 142.674 100.44C144.21 97.2563 145.022 93.7715 145.051 90.2363C144.225 94.4354 142.399 98.3735 139.728 101.717" fill="#0B041B"/>
<path d="M97.1535 73.1084C97.0651 73.2754 96.9669 73.4423 96.8785 73.6191C97.0455 73.0888 97.016 72.637 96.5544 72.4111C96.3726 72.3395 96.1704 72.3392 95.9883 72.4102C95.8062 72.4812 95.6577 72.6183 95.5723 72.7941C94.0621 76.3072 91.6076 79.3328 88.4814 81.5349C91.1682 80.3719 93.5287 78.5678 95.3562 76.2806C95.4053 76.1922 95.4741 76.094 95.5526 75.9762C94.9025 77.0461 94.1278 78.0351 93.2447 78.9225C95.3167 77.4731 96.9807 75.5148 98.0767 73.2361C98.0857 73.1774 98.0831 73.1175 98.069 73.0598C98.0548 73.0022 98.0295 72.9478 97.9944 72.9C97.9235 72.8033 97.8171 72.7387 97.6986 72.7205C97.6399 72.7114 97.58 72.7141 97.5223 72.7282C97.4647 72.7423 97.4103 72.7676 97.3625 72.8027C97.2658 72.8737 97.2012 72.9801 97.183 73.0986" fill="#0B041B"/>
<path d="M98.391 72.9807C97.4777 74.4244 96.6822 75.927 95.6411 77.2921C96.0634 77.1252 100.326 72.2441 98.391 72.9807Z" fill="#0B041B"/>
<path d="M108.978 82.5367C108.772 82.3207 108.438 82.3305 108.163 82.2323C104.721 81.4532 101.541 79.7952 98.9311 77.4199C100.237 79.2261 101.886 80.7578 103.783 81.9278C101.682 81.0564 99.7277 79.8672 97.9883 78.402C100.371 81.3238 103.551 83.4904 107.142 84.6384C107.389 84.7323 107.652 84.779 107.917 84.7759C108.046 84.7721 108.17 84.7288 108.274 84.652C108.377 84.5752 108.454 84.4685 108.495 84.3464C108.536 84.2243 108.538 84.0927 108.501 83.9692C108.465 83.8458 108.391 83.7366 108.291 83.6563C108.395 83.667 108.5 83.667 108.605 83.6563C108.725 83.6383 108.837 83.5876 108.93 83.5098C109.022 83.432 109.092 83.3301 109.13 83.2154C109.169 83.1007 109.175 82.9776 109.148 82.8596C109.121 82.7415 109.063 82.6332 108.978 82.5465" fill="#0B041B"/>
<path d="M107.328 84.7956C103.863 83.6238 100.607 81.9064 97.6838 79.7083C99.5535 81.7102 101.712 83.4217 104.087 84.7858C101.411 83.6417 98.8982 82.1491 96.6133 80.3466C97.8434 81.7224 99.1979 82.9816 100.66 84.1081C98.8922 83.2291 97.2146 82.1799 95.6509 80.9752C97.1732 82.804 99.0596 84.2957 101.19 85.3554C101.255 85.4106 101.335 85.4456 101.42 85.4562C101.505 85.4668 101.591 85.4526 101.668 85.4151C101.745 85.3777 101.81 85.3187 101.854 85.2453C101.898 85.172 101.92 85.0874 101.917 85.0018C102.643 85.4678 103.401 85.8814 104.185 86.2393C104.874 86.5367 105.596 86.7478 106.336 86.8679C106.415 86.8911 106.498 86.8954 106.578 86.8805C106.659 86.8656 106.735 86.8319 106.8 86.7821C106.865 86.7324 106.917 86.6679 106.953 86.5941C106.988 86.5202 107.006 86.4391 107.004 86.3572C106.984 86.2012 106.92 86.0544 106.817 85.9349C106.888 85.9603 106.96 85.98 107.034 85.9938C107.116 86.0182 107.202 86.0252 107.287 86.0144C107.373 86.0036 107.455 85.9752 107.528 85.931C107.602 85.8868 107.665 85.8277 107.715 85.7576C107.764 85.6876 107.799 85.6079 107.816 85.5238C107.833 85.4397 107.832 85.353 107.814 85.2691C107.796 85.1852 107.76 85.1061 107.71 85.0367C107.659 84.9673 107.595 84.9091 107.521 84.8659C107.447 84.8227 107.364 84.7954 107.279 84.7858" fill="#0B041B"/>
<path d="M107.093 89.107C107.093 89.107 107.093 89.107 106.994 89.0186C103.922 87.7446 100.685 86.9082 97.3796 86.5339C93.9893 86.0316 90.5462 85.9952 87.146 86.4259C93.2404 86.2296 99.2957 87.4675 104.824 90.04C105.806 90.4329 105.993 90.7766 106.788 90.6784C106.942 90.6332 107.081 90.5473 107.19 90.43C107.299 90.3126 107.375 90.168 107.409 90.0113C107.443 89.8546 107.435 89.6917 107.384 89.5395C107.334 89.3873 107.243 89.2515 107.122 89.1463" fill="#0B041B"/>
<path d="M64.3316 97.4942C64.3276 97.4321 64.3276 97.3698 64.3316 97.3076V97.5237" fill="#0B041B"/>
<path d="M65.3333 94.9997C65.7503 93.696 66.5388 92.5423 67.602 91.6801C70.0164 89.6424 72.8007 88.0886 75.8026 87.1035C71.7269 88.0856 67.1109 89.4606 64.4789 92.9274C65.2252 91.6589 66.174 90.521 67.2877 89.5588C68.6571 88.5196 70.2 87.7315 71.8447 87.2312C69.241 87.4948 66.8002 88.6218 64.911 90.4329C63.811 91.415 62.4754 93.3792 62.5932 94.4399C62.6076 94.5324 62.6424 94.6206 62.6952 94.6979C62.748 94.7752 62.8175 94.8398 62.8984 94.8869C62.9794 94.9339 63.0698 94.9623 63.1631 94.9699C63.2565 94.9776 63.3503 94.9642 63.4378 94.9309C63.2367 95.4541 63.199 96.026 63.3298 96.5711C63.4113 96.7771 63.5689 96.944 63.7699 97.0372C63.971 97.1305 64.2002 97.1429 64.4101 97.0719C64.4101 97.18 64.4101 97.3076 64.3316 97.455C64.3244 97.5836 64.3493 97.7121 64.4042 97.8287C64.4591 97.9452 64.5421 98.0463 64.6458 98.1228C65.2449 98.5844 65.8931 98.0639 66.011 97.4255C66.011 97.3371 66.011 97.5237 65.952 97.5826C66.1974 96.9636 66.528 96.3818 66.9342 95.8541C69.611 92.1192 73.3269 89.2538 77.6195 87.6142C73.1902 88.3802 67.9261 91.1007 65.3824 94.9997" fill="#0B041B"/>
<path d="M123.042 82.802C121.923 82.9984 120.263 83.018 119.418 83.7841C119.346 83.9214 119.319 84.0784 119.342 84.2319C119.365 84.3855 119.437 84.5277 119.547 84.6375C119.657 84.7473 119.799 84.8191 119.952 84.8422C120.106 84.8654 120.263 84.8387 120.4 84.7662C124.486 83.5294 128.802 83.2571 133.011 83.9707C129.802 82.9676 126.438 82.5517 123.081 82.743" fill="#0B041B"/>
<path d="M143.951 88.3999C141.309 86.1116 137.725 85.0312 134.346 84.4714C137.435 85.507 140.305 87.1053 142.812 89.1856C143.431 90.0302 144.609 89.2838 143.951 88.4392" fill="#0B041B"/>
<path d="M149.009 92.4168C148.95 92.3589 148.878 92.3152 148.8 92.2889C148.721 92.2625 148.638 92.2542 148.556 92.2646C148.474 92.275 148.395 92.3038 148.325 92.3488C148.256 92.3939 148.198 92.4541 148.155 92.5248C148.094 92.6296 148.068 92.7514 148.082 92.8719C148.097 92.9923 148.15 93.1049 148.233 93.1927C148.822 93.8114 149.343 94.4792 149.883 95.1569C151.242 96.7592 152.363 98.5486 153.212 100.47C152.521 97.4768 151.074 94.7108 149.009 92.4364" fill="#0B041B"/>
<path d="M148.881 124.846C149.343 122.401 149.765 119.935 150.139 117.49C148.351 124.021 145.758 130.395 144.364 137.005C144.385 137.177 144.453 137.339 144.562 137.474C144.671 137.609 144.816 137.711 144.98 137.767C145.144 137.823 145.321 137.832 145.49 137.793C145.659 137.754 145.813 137.668 145.935 137.545C146.024 137.378 146.092 137.201 146.171 137.024C146.295 137.09 146.433 137.124 146.574 137.124C146.714 137.124 146.852 137.09 146.976 137.024C147.683 136.346 147.448 136.288 147.782 135.669C148.881 132.722 149.147 129.472 149.746 126.368C150.512 122.194 151.445 118.04 152.584 113.954C151.229 117.323 149.991 121.134 148.872 124.885" fill="#0B041B"/>
<path d="M119.791 73.6094C112.2 77.3905 107.672 85.3947 109.283 93.8507C109.135 85.6992 112.769 79.5217 118.966 74.5129C119.735 73.9498 120.535 73.4317 121.363 72.9612C120.832 73.1576 120.302 73.3639 119.791 73.6094Z" fill="#0B041B"/>
<path d="M110.039 81.9671C109.243 83.4415 108.812 85.0848 108.782 86.7598C108.782 87.0741 108.782 87.6044 108.782 87.7419C108.901 86.8168 109.084 85.9012 109.332 85.0018C110.627 81.4142 112.766 78.1906 115.568 75.603C113.106 77.071 111.174 79.282 110.049 81.918" fill="#0B041B"/>
<path d="M85.103 70.7218C86.4694 68.9693 88.0239 67.372 89.7386 65.9585C85.5745 68.2272 82.0487 72.0378 80.8996 76.7028C80.8996 76.8992 80.8112 77.1153 80.7719 77.2921C80.8898 77.0269 80.9978 76.7618 81.1255 76.4966C81.9407 74.9096 82.9288 73.4175 84.0718 72.0476C82.2467 74.6984 81.0202 77.7144 80.4773 80.8866C80.3889 81.3286 80.3103 81.8687 80.2612 82.2518C80.5264 81.358 81.0175 80.0616 81.3023 79.4036C83.9049 72.9806 88.0396 68.2174 94.3545 65.3496C90.8266 66.1823 87.6244 68.0414 85.1521 70.6923" fill="#0B041B"/>
<path d="M116.108 72.6762C115.75 72.0129 115.326 71.3877 114.842 70.8101C112.71 68.364 109.895 66.6126 106.759 65.7817C110.314 67.2156 113.83 70.103 115.175 73.069C115.199 73.178 115.257 73.2764 115.342 73.3491C115.427 73.4217 115.533 73.4647 115.644 73.4714C115.756 73.478 115.866 73.4481 115.959 73.3861C116.051 73.324 116.121 73.2334 116.158 73.1279C116.196 73.0589 116.217 72.9812 116.217 72.902C116.217 72.8229 116.196 72.7452 116.158 72.6762" fill="#0B041B"/>
<path d="M146.073 83.4893C147.052 86.7112 147.206 90.1276 146.519 93.4244C145.833 96.7211 144.328 99.7924 142.144 102.356C141.928 102.604 141.728 102.867 141.545 103.141C141.545 103.141 141.643 103.014 141.673 102.974C141.503 103.147 141.408 103.38 141.408 103.623C141.409 103.761 141.442 103.897 141.504 104.02C141.566 104.143 141.655 104.251 141.765 104.334C141.875 104.418 142.003 104.475 142.138 104.501C142.274 104.528 142.414 104.523 142.547 104.487C143.834 104.074 145.562 100.254 145.994 99.0655C148.018 94.076 148.047 88.499 146.073 83.4893Z" fill="#0B041B"/>
<path d="M91.6242 18.1298C86.6257 14.8228 81.2477 12.1288 75.606 10.106C75.0781 11.1256 74.3219 12.0096 73.3962 12.6889L72.0605 13.671C75.7305 14.7599 79.2783 16.2245 82.6477 18.0414C88.4731 20.9133 93.7304 24.8164 98.1651 29.5616C103.92 35.2677 108.271 41.2094 110.933 49.2038C108.644 36.9372 101.858 25.3876 91.5849 18.1298" fill="#0B041B"/>
<path d="M87.2541 21.4984C82.0788 18.4194 76.4412 16.1943 70.5582 14.9084L69.9984 15.3602C69.4631 16.606 68.77 17.7777 67.9359 18.8467L67.8672 18.9351C78.0517 21.194 86.1148 24.4939 94.6788 31.0347C98.5287 33.9123 104.195 39.2452 107.289 44.2147C102.6 35.0966 95.7149 27.2896 87.2541 21.4984Z" fill="#0B041B"/>
<path d="M64.2236 23.8259C78.3955 24.808 91.1924 29.424 102.005 40.3549C95.8967 32.3016 87.755 25.525 78.0812 22.2742C74.5031 21.1506 70.8267 20.3679 67.1012 19.9368C66.1257 21.2462 65.1665 22.5557 64.2236 23.8652" fill="#0B041B"/>
<path d="M73.0429 29.3356C77.5115 29.7383 90.0629 32.6061 96.6823 36.8979C90.3867 32.0738 83.2788 28.4151 75.6946 26.0947C71.7883 24.9917 67.7418 24.4656 63.6833 24.5331C62.6128 26.0456 61.5914 27.5973 60.6584 29.1785L62.2789 29.0705C61.6995 29.149 61.12 29.2571 60.5504 29.3553C59.679 30.8234 58.8952 32.3418 58.2032 33.9025L57.938 34.5408C60.8098 33.6032 63.7725 32.9712 66.777 32.6552C75.0786 32.0884 83.412 33.1117 91.3298 35.6702C85.1389 32.4277 78.4507 30.2403 71.5402 29.1981C72.0509 29.2472 72.5223 29.3062 73.0527 29.3749" fill="#0B041B"/>
<path d="M57.2209 40.4138C58.9116 39.4734 60.6792 38.6783 62.5046 38.0371C70.5481 35.6309 77.9434 35.1399 86.7235 35.8765C74.9382 32.8516 65.775 32.4194 57.545 35.6113C56.8575 37.3791 56.2584 39.2156 55.7084 41.0816C55.3548 45.786 54.3236 50.6179 54.2549 55.1553C54.2549 55.5874 54.2549 56.0196 54.2549 56.4419C56.2514 54.1404 58.4288 52.0024 60.7663 50.0483C65.0934 46.1402 69.9301 42.8365 75.1444 40.2272C68.9082 42.1387 62.9904 44.9652 57.5842 48.6144C58.2717 48.0153 58.9494 47.4261 59.6663 46.8368C65.1857 42.5988 71.517 39.5402 78.2675 37.8505C74.2651 38.2001 70.3131 38.9872 66.4822 40.1977C71.4796 37.9642 76.871 36.7457 82.3433 36.613C73.778 35.4544 65.0601 36.7733 57.2209 40.4138Z" fill="#0B041B"/>
<path d="M54.9719 63.7686C55.345 62.6181 55.8285 61.5064 56.4156 60.4491C59.0005 55.552 62.4626 51.1712 66.6296 47.5245C68.2854 45.9982 70.0957 44.6487 72.0312 43.4978C65.0246 46.4897 58.8988 51.2227 54.2354 57.2474C54.3062 59.4289 54.5393 61.602 54.9326 63.7489" fill="#0B041B"/>
<path d="M56.9558 71.0263C57.2701 69.6317 57.6531 68.1782 58.1343 66.6264C60.3805 58.6629 64.7137 51.4442 70.6857 45.7173C66.1069 48.9663 62.0952 52.9482 58.812 57.5026C57.3651 59.7162 56.1226 62.0567 55.0996 64.4953C55.5428 66.7184 56.1635 68.9024 56.9558 71.0263Z" fill="#0B041B"/>
<path d="M58.8903 75.3573C59.3549 75.7521 59.7913 76.1787 60.1965 76.6341C60.2555 75.4752 60.3242 74.2967 60.4519 73.0592C61.0805 65.2023 64.1937 55.3812 70.1944 48.2805C63.4685 54.4833 58.9164 62.6853 57.2109 71.6744C57.4172 72.1949 57.6234 72.7253 57.8493 73.236C58.1636 73.9431 58.527 74.6502 58.8903 75.3573Z" fill="#0B041B"/>
<path d="M63.2219 79.4136C64.2875 80.1477 65.4185 80.7822 66.6003 81.3091C65.1386 75.6314 64.8049 69.7221 65.6182 63.9159C66.4236 59.6045 67.2485 55.0769 69.3994 51.3154C63.6301 59.0722 60.8983 68.6718 61.7192 78.3039C62.1772 78.7304 62.67 79.1181 63.1924 79.4627" fill="#0B041B"/>
<path d="M70.8234 82.7723C71.4028 82.9196 71.9823 83.0375 72.5617 83.1455C71.9725 81.9669 71.4716 80.8473 71.0886 79.8358C69.9291 76.294 69.107 72.6505 68.6333 68.954C68.1422 63.8961 68.0637 59.0641 69.5172 54.3696C65.6895 62.9677 64.9945 72.6348 67.553 81.692C68.6314 82.1241 69.737 82.4849 70.8627 82.7723" fill="#0B041B"/>
<path d="M78.2185 84.0295C77.2951 82.7391 76.4835 81.3723 75.7927 79.9439C73.7722 75.7238 72.3413 71.246 71.5401 66.6363C70.8488 63.5854 70.5191 60.4637 70.558 57.3357C69.2714 65.8211 69.4875 75.3182 73.141 83.2536C74.8695 83.5581 76.5784 83.7545 78.2381 84.0295" fill="#0B041B"/>
<path d="M78.965 78.7163C79.0698 78.186 79.1974 77.6556 79.348 77.1253C78.3913 75.7294 77.5095 74.2836 76.7062 72.7942C74.575 68.4925 72.7286 64.6721 72.0706 59.1428C71.8508 67.3297 74.1438 75.3876 78.6409 82.2323C78.6122 81.0484 78.7209 79.8652 78.965 78.7065" fill="#0B041B"/>
<path d="M81.0175 72.9219C78.0162 69.7314 75.5399 66.085 73.6812 62.1187C74.9569 66.8635 77.0616 71.3455 79.8979 75.3575C80.1947 74.5158 80.5695 73.7036 81.0175 72.9317" fill="#0B041B"/>
<path d="M89.061 80.0322C87.9087 79.1745 86.7793 78.2808 85.6727 77.3511C85.437 78.6376 85.1719 79.9144 84.8281 81.1813L85.7513 82.075C86.8964 81.4643 88.0018 80.782 89.061 80.0322Z" fill="#0B041B"/>
<path d="M89.5913 81.9081C88.6622 82.3275 87.7077 82.6884 86.7334 82.9884C87.0575 83.2831 87.3816 83.5875 87.7155 83.8723L87.8825 83.6857C88.2744 83.3695 88.7202 83.1266 89.1985 82.9688C89.3753 82.9 89.5619 82.8509 89.7387 82.792L89.7976 82.7233C89.9404 82.5721 90.1022 82.4401 90.2788 82.3304H90.3476C90.5085 82.2506 90.6761 82.1849 90.8484 82.134C91.0351 82.088 91.226 82.0616 91.4181 82.0554H91.4966C91.6592 82.059 91.8208 82.0821 91.9779 82.1242L90.8092 81.3188C90.4065 81.5349 90.0038 81.7608 89.5913 81.9572" fill="#0B041B"/>
<path d="M88.2362 83.4402C88.1272 83.5165 88.0223 83.5985 87.9219 83.6857C88.0106 83.5852 88.1172 83.502 88.2362 83.4402Z" fill="#0B041B"/>
<path d="M111.964 65.8505C112.028 65.891 112.079 65.9504 112.109 66.0207C112.139 66.0909 112.146 66.1686 112.131 66.2433C112.36 64.8077 112.475 63.3562 112.474 61.9024C112.474 58.1114 111.679 54.8017 110.824 50.9224C111.415 55.4926 111.081 60.1351 109.842 64.5737C110.569 64.9666 111.276 65.3987 111.964 65.8505Z" fill="#0B041B"/>
<path d="M111.296 69.1604C110.707 68.6399 110.108 68.1193 109.469 67.6578L108.841 67.3926C108.13 69.108 107.259 70.7522 106.238 72.3031C105.039 73.9933 103.588 75.4903 101.937 76.7423C102.071 76.8439 102.212 76.9358 102.359 77.0173C102.899 77.3512 103.42 77.7047 103.92 78.0878C104.442 78.5139 105 78.892 105.59 79.2172C108.377 76.4666 110.407 73.0432 111.483 69.2782L111.335 69.1309" fill="#0B041B"/>
<path d="M81.5282 72.1067C81.8284 71.6421 82.1564 71.1961 82.5103 70.7711C80.0415 68.6936 77.8322 66.3259 75.9302 63.7195C77.3768 66.7708 79.2302 69.6121 81.4398 72.1656V72.1067" fill="#0B041B"/>
<path d="M92.7146 77.1449C90.6532 76.1848 88.6613 75.0821 86.7532 73.845C86.7909 74.1277 86.7321 74.4149 86.5863 74.6601C86.2802 75.2304 86.0302 75.829 85.8398 76.4476C87.1173 77.5247 88.4551 78.5281 89.8469 79.4528C90.829 78.7261 91.8111 77.9502 92.7146 77.1449Z" fill="#0B041B"/>
<path d="M93.6474 79.5902C93.0581 79.9831 92.459 80.3563 91.8501 80.7098C92.2429 80.9455 92.6456 81.1911 93.0483 81.4071C93.6375 81.0045 94.2072 80.5822 94.767 80.15C95.3457 79.7397 95.882 79.2725 96.3678 78.7554L95.3366 78.3135C94.7866 78.7554 94.2268 79.1876 93.6474 79.5902Z" fill="#0B041B"/>
<path d="M84.455 68.8951C82.3577 67.6467 80.4439 66.1131 78.7686 64.3381C79.9907 66.4414 81.4905 68.3705 83.2273 70.0737C83.6202 69.671 84.0228 69.2683 84.455 68.8951Z" fill="#0B041B"/>
<path d="M102.683 65.605C101.204 67.7227 99.4727 69.6521 97.5268 71.3504C96.6214 72.1068 95.552 72.6415 94.4036 72.9119C94.3184 72.9569 94.2248 72.9836 94.1287 72.9905L93.9617 72.9316C91.7814 72.2343 90.2591 71.7236 88.6878 71.0558C87.9905 71.6352 87.2932 72.2343 86.6548 72.8727L86.8807 73.0396C88.9672 74.3486 91.1819 75.4411 93.4903 76.3002C93.5769 75.7473 93.8765 75.2502 94.3251 74.9155C94.7715 74.4594 95.2472 74.0329 95.7491 73.6387C95.7606 73.5788 95.7905 73.524 95.8344 73.4818C95.8784 73.4396 95.9344 73.4121 95.9947 73.403L96.1223 73.295L96.2009 73.2262C96.2747 73.174 96.3657 73.152 96.4552 73.1648C96.5447 73.1776 96.6259 73.2241 96.6821 73.295C97.4178 73.1919 98.159 73.1329 98.9017 73.1182C101.072 71.0648 102.829 68.6144 104.077 65.8997C103.606 65.7818 103.095 65.6836 102.644 65.5952" fill="#0B041B"/>
<path d="M105.305 62.9532C105.792 61.5252 106.06 60.032 106.101 58.5239C105.78 60.017 105.216 61.4471 104.431 62.7568V62.8157L105.335 62.9532" fill="#0B041B"/>
<path d="M108.016 63.6997L108.801 64.0434C109.553 61.2182 109.796 58.2817 109.518 55.3713C109.317 58.1852 108.545 60.9286 107.25 63.4345C107.509 63.5096 107.765 63.5981 108.016 63.6997Z" fill="#0B041B"/>
<path d="M105.649 66.3022C105.147 67.1018 104.596 67.8693 103.999 68.6004C102.713 70.1646 101.282 71.6048 99.7269 72.902C99.9429 72.902 100.169 73.069 100.139 73.3243C99.9973 73.9544 99.6523 74.5203 99.1572 74.935C99.6644 74.8646 100.181 74.9605 100.629 75.2084C101.077 75.4564 101.432 75.8429 101.642 76.31C102.968 75.1254 104.151 73.7906 105.168 72.3324C106.251 70.6555 107.159 68.8718 107.878 67.0094C107.152 66.7442 106.425 66.5183 105.688 66.3022" fill="#0B041B"/>
<path d="M85.9279 67.6577L86.5859 67.1273L87.2341 66.6265C85.7543 65.5619 84.4059 64.3256 83.2172 62.9435C82.9422 62.6882 82.0191 61.5195 82.4807 62.2953C83.402 64.2193 84.5601 66.0207 85.9279 67.6577Z" fill="#0B041B"/>
<path d="M99.717 65.2219C98.9228 66.3618 97.8299 67.2609 96.5583 67.8205C95.2866 68.3801 93.8854 68.5786 92.5083 68.3942C91.5092 68.9134 90.5648 69.532 89.6897 70.2405L89.562 70.3387C91.0486 71.0998 92.7292 71.3981 94.387 71.1951C96.0447 70.992 97.6036 70.2969 98.8626 69.1995C99.9678 68.1145 100.855 66.8276 101.475 65.4085C100.896 65.3201 100.306 65.2612 99.717 65.2219Z" fill="#0B041B"/>
<path d="M102.506 62.6488C102.85 61.5488 103.144 60.4194 103.488 59.2605C102.93 60.4048 102.307 61.5164 101.622 62.5899L102.506 62.6488Z" fill="#0B041B"/>
<path d="M88.8353 65.5364C89.3828 65.1775 89.95 64.8496 90.5343 64.5543C89.5649 64.4814 88.61 64.2765 87.696 63.9454C86.8711 63.5851 86.124 63.0681 85.4961 62.4231C85.6883 62.7909 85.9152 63.1395 86.1737 63.4641C86.8857 64.3594 87.7971 65.0758 88.8353 65.556" fill="#0B041B"/>
<path d="M98.6464 62.5899H98.833C99.4702 61.7078 99.9213 60.7054 100.159 59.6436C99.4757 60.8679 98.5175 61.9168 97.3599 62.7077C97.7822 62.639 98.2143 62.5899 98.6464 62.5604" fill="#0B041B"/>
</g>
<defs>
<clipPath id="clip0_816_1708">
<rect width="113.719" height="140" fill="white" transform="translate(43)"/>
</clipPath>
</defs>
</svg>
